<?xml version="1.0" encoding="utf-8"?>
<!-- Generator: Adobe Illustrator 24.3.0, SVG Export Plug-In . SVG Version: 6.00 Build 0)  -->
<svg version="1.1" id="Layer_1" xmlns="http://www.w3.org/2000/svg" xmlns:xlink="http://www.w3.org/1999/xlink" x="0px" y="0px"
	 viewBox="0 0 700 600" style="enable-background:new 0 0 700 600;" xml:space="preserve">
<style type="text/css">
	.st0{opacity:0.2;fill:#92B4D1;}
	.st1{fill:#2672AB;}
	.st2{fill:#D1EBFF;}
	.st3{opacity:0.5;fill:#3F92D1;}
	.st4{fill:#3F92D1;}
	.st5{fill:#FFFFFF;}
	.st6{opacity:0.3;fill:#FFFFFF;}
	.st7{fill:#A8CFF0;}
	.st8{fill:#72B5E8;}
	.st9{fill:#03336E;}
	.st10{fill:#022652;}
	.st11{opacity:0.7;fill:#FFFFFF;}
	.st12{opacity:0.1;fill:#F1F2F2;}
	.st13{opacity:0.1429;fill:#ECEFF0;}
	.st14{opacity:0.1857;fill:#E7EBEE;}
	.st15{opacity:0.2286;fill:#E2E8EC;}
	.st16{opacity:0.2714;fill:#DEE5EA;}
	.st17{opacity:0.3143;fill:#D9E1E8;}
	.st18{opacity:0.3571;fill:#D4DEE6;}
	.st19{opacity:0.4;fill:#CFDBE4;}
	.st20{opacity:0.4429;fill:#CAD7E2;}
	.st21{opacity:0.4857;fill:#C5D4E0;}
	.st22{opacity:0.5286;fill:#C0D1DE;}
	.st23{opacity:0.5714;fill:#BCCDDB;}
	.st24{opacity:0.6143;fill:#B7CAD9;}
	.st25{opacity:0.6571;fill:#B2C7D7;}
	.st26{opacity:0.7;fill:#ADC3D5;}
	.st27{opacity:0.7429;fill:#A8C0D3;}
	.st28{opacity:0.7857;fill:#A3BDD1;}
	.st29{opacity:0.8286;fill:#9EB9CF;}
	.st30{opacity:0.8714;fill:#9AB6CD;}
	.st31{opacity:0.9143;fill:#95B3CB;}
	.st32{opacity:0.9571;fill:#90AFC9;}
	.st33{fill:#8BACC7;}
	.st34{fill:#EB4680;}
	.st35{fill:#FFD70F;}
	.st36{opacity:0.5;fill:#FFFFFF;}
	.st37{fill:#0BA19F;}
	.st38{fill:#3ECFCD;}
	.st39{fill:#0FBAB8;}
	.st40{fill:url(#SVGID_1_);}
	.st41{fill:url(#SVGID_2_);}
	.st42{fill:url(#SVGID_3_);}
	.st43{fill:#FFDE17;}
	.st44{fill:#FFCC00;}
	.st45{fill:#E6EDFC;}
	.st46{fill:#D7E2F4;}
	.st47{fill:#444A7C;}
	.st48{fill:#262A41;}
	.st49{fill:none;stroke:#FFFFFF;stroke-width:0.6671;stroke-miterlimit:10;}
	.st50{fill:#85D2F9;}
	.st51{fill:none;stroke:#FFFFFF;stroke-width:0.3254;stroke-miterlimit:10;}
	.st52{fill:none;stroke:#FFFFFF;stroke-width:0.3254;stroke-miterlimit:10;stroke-dasharray:1.2826,1.2826;}
	.st53{fill:none;stroke:#FFFFFF;stroke-width:0.3254;stroke-miterlimit:10;stroke-dasharray:1.2776,1.2776;}
	.st54{fill:#8391FC;stroke:#FFFFFF;stroke-width:0.3254;stroke-miterlimit:10;}
	.st55{opacity:0.8;fill:#444A7C;}
	.st56{opacity:0.8;fill:#8391FC;}
	.st57{fill:#8391FC;}
	.st58{fill:none;stroke:#FFFFFF;stroke-width:1.0422;stroke-miterlimit:10;}
	.st59{fill:none;stroke:#C8D0FC;stroke-width:0.2605;stroke-miterlimit:10;}
	.st60{fill:none;stroke:#FFFFFF;stroke-width:0.2605;stroke-linecap:round;stroke-miterlimit:10;}
	.st61{fill:none;stroke:#FFFFFF;stroke-width:0.5211;stroke-miterlimit:10;}
	.st62{fill:#E5E1F9;}
	.st63{fill:#7683E1;}
	.st64{fill:#E8A398;}
	.st65{fill:#C3D3EA;}
	.st66{fill:none;stroke:#E8B1C3;stroke-width:1.9735;stroke-miterlimit:10;}
	.st67{fill:#7481B2;}
	.st68{fill:#545C8C;}
	.st69{fill:#ECECEC;}
	.st70{fill:#F0F0F0;}
	.st71{fill:#F5F5F5;}
	.st72{fill:#E7E7E7;}
	.st73{fill:#FAFAFA;}
	.st74{opacity:0.4;fill:#E7E7E7;}
	.st75{fill:#E1E1E1;}
	.st76{fill:#007CFF;}
	.st77{opacity:0.2;fill:#FFFFFF;}
	.st78{opacity:0.2;}
	.st79{opacity:0.6;fill:#FFFFFF;}
	.st80{opacity:0.3;}
	.st81{fill:#1A2E35;}
	.st82{opacity:0.4;fill:#FFFFFF;}
	.st83{fill:#CD5B51;}
	.st84{fill:#BA221F;}
	.st85{opacity:0.4;}
	.st86{fill:#1A4175;}
	.st87{fill:#1674BA;}
	.st88{fill-rule:evenodd;clip-rule:evenodd;fill:#389CCF;}
	.st89{fill:url(#XMLID_6_);}
	.st90{fill-rule:evenodd;clip-rule:evenodd;fill:#1674BA;}
	.st91{fill:#1B75BB;}
	.st92{clip-path:url(#SVGID_6_);}
	.st93{clip-path:url(#SVGID_7_);}
	.st94{filter:url(#Adobe_OpacityMaskFilter);}
	.st95{filter:url(#Adobe_OpacityMaskFilter_1_);}
	.st96{mask:url(#SVGID_8_);fill:url(#SVGID_9_);}
	.st97{opacity:0.3;fill:#ADBCFF;}
	.st98{filter:url(#Adobe_OpacityMaskFilter_2_);}
	.st99{filter:url(#Adobe_OpacityMaskFilter_3_);}
	.st100{mask:url(#SVGID_10_);fill:url(#SVGID_11_);}
	.st101{opacity:0.7;fill:#E6EDFC;}
	.st102{fill:none;stroke:#1A2E35;stroke-width:2;stroke-miterlimit:10;}
	.st103{fill:none;stroke:#1A2E35;stroke-linecap:round;stroke-linejoin:round;stroke-miterlimit:10;}
	.st104{opacity:0.44;fill:#FFFFFF;}
	.st105{fill:none;stroke:#FFFFFF;stroke-miterlimit:10;}
	.st106{fill:none;stroke:#1A2E35;stroke-width:0.5;stroke-miterlimit:10;}
	.st107{fill:#FFFFFF;stroke:#1A2E35;stroke-width:0.5;stroke-miterlimit:10;}
	.st108{fill:#1A2E35;stroke:#1A2E35;stroke-linecap:round;stroke-linejoin:round;stroke-miterlimit:10;}
	.st109{fill:#FFFFFF;stroke:#1A2E35;stroke-linecap:round;stroke-linejoin:round;stroke-miterlimit:10;}
	.st110{fill:#808080;stroke:#1A2E35;stroke-linecap:round;stroke-linejoin:round;stroke-miterlimit:10;}
	.st111{fill:#B0B0D9;}
	.st112{fill:#B0B0D9;stroke:#1A2E35;stroke-linecap:round;stroke-linejoin:round;stroke-miterlimit:10;}
	.st113{opacity:0.2;clip-path:url(#XMLID_7_);fill:#404773;}
	.st114{fill:#AAFF00;}
	.st115{opacity:0.2;clip-path:url(#XMLID_8_);fill:#8383C9;}
	.st116{opacity:0.2;clip-path:url(#XMLID_9_);}
	.st117{clip-path:url(#XMLID_10_);fill:none;stroke:#1A2E35;stroke-linecap:round;stroke-linejoin:round;stroke-miterlimit:10;}
	.st118{clip-path:url(#XMLID_11_);}
	.st119{fill:#575757;}
	.st120{fill:none;stroke:#575757;stroke-miterlimit:10;}
	.st121{filter:url(#Adobe_OpacityMaskFilter_4_);}
	.st122{filter:url(#Adobe_OpacityMaskFilter_5_);}
	.st123{mask:url(#SVGID_12_);fill:url(#SVGID_13_);}
	.st124{fill:#939AA3;}
	.st125{fill:#404773;}
	.st126{fill:#EEA886;}
	.st127{fill:#C5CDDB;}
	.st128{fill:#E55353;}
	.st129{fill:#434343;}
	.st130{fill:#282C47;}
	.st131{fill:#525252;}
	.st132{fill:#EDDAD3;}
	.st133{fill:#A77860;}
	.st134{fill:url(#SVGID_14_);}
	.st135{fill:#7A7AB5;}
	.st136{fill:url(#SVGID_15_);}
	.st137{fill:url(#SVGID_16_);}
	.st138{fill:#2A2E4A;}
	.st139{fill:url(#SVGID_17_);}
	.st140{fill:#626EB0;}
	.st141{opacity:0.72;fill:#D9D9D9;}
	.st142{fill:#8383C9;}
	.st143{enable-background:new    ;}
	.st144{fill:url(#SVGID_18_);}
	.st145{fill:url(#SVGID_19_);}
	.st146{fill:url(#SVGID_20_);}
	.st147{opacity:0.8;}
	.st148{opacity:0;fill:#D7C8FF;}
	.st149{opacity:6.369427e-03;fill:#D6C7FE;}
	.st150{opacity:0.0127;fill:#D5C6FE;}
	.st151{opacity:0.0191;fill:#D4C6FD;}
	.st152{opacity:0.0255;fill:#D3C5FC;}
	.st153{opacity:0.0318;fill:#D2C4FB;}
	.st154{opacity:0.0382;fill:#D1C3FB;}
	.st155{opacity:0.0446;fill:#D0C3FA;}
	.st156{opacity:0.051;fill:#CFC2F9;}
	.st157{opacity:0.0573;fill:#CEC1F9;}
	.st158{opacity:0.0637;fill:#CDC0F8;}
	.st159{opacity:0.0701;fill:#CCC0F7;}
	.st160{opacity:0.0764;fill:#CBBFF6;}
	.st161{opacity:0.0828;fill:#CABEF6;}
	.st162{opacity:0.0892;fill:#C9BDF5;}
	.st163{opacity:0.0955;fill:#C8BDF4;}
	.st164{opacity:0.1019;fill:#C7BCF3;}
	.st165{opacity:0.1083;fill:#C6BBF3;}
	.st166{opacity:0.1146;fill:#C5BAF2;}
	.st167{opacity:0.121;fill:#C4B9F1;}
	.st168{opacity:0.1274;fill:#C3B9F1;}
	.st169{opacity:0.1338;fill:#C2B8F0;}
	.st170{opacity:0.1401;fill:#C1B7EF;}
	.st171{opacity:0.1465;fill:#C0B6EE;}
	.st172{opacity:0.1529;fill:#BFB6EE;}
	.st173{opacity:0.1592;fill:#BEB5ED;}
	.st174{opacity:0.1656;fill:#BDB4EC;}
	.st175{opacity:0.172;fill:#BCB3EC;}
	.st176{opacity:0.1783;fill:#BBB3EB;}
	.st177{opacity:0.1847;fill:#BAB2EA;}
	.st178{opacity:0.1911;fill:#B9B1E9;}
	.st179{opacity:0.1975;fill:#B8B0E9;}
	.st180{opacity:0.2038;fill:#B7B0E8;}
	.st181{opacity:0.2102;fill:#B6AFE7;}
	.st182{opacity:0.2166;fill:#B5AEE7;}
	.st183{opacity:0.2229;fill:#B4ADE6;}
	.st184{opacity:0.2293;fill:#B3ACE5;}
	.st185{opacity:0.2357;fill:#B2ACE4;}
	.st186{opacity:0.242;fill:#B1ABE4;}
	.st187{opacity:0.2484;fill:#B0AAE3;}
	.st188{opacity:0.2548;fill:#AFA9E2;}
	.st189{opacity:0.2611;fill:#AEA9E1;}
	.st190{opacity:0.2675;fill:#ADA8E1;}
	.st191{opacity:0.2739;fill:#ACA7E0;}
	.st192{opacity:0.2803;fill:#ABA6DF;}
	.st193{opacity:0.2866;fill:#AAA6DF;}
	.st194{opacity:0.293;fill:#A9A5DE;}
	.st195{opacity:0.2994;fill:#A8A4DD;}
	.st196{opacity:0.3057;fill:#A7A3DC;}
	.st197{opacity:0.3121;fill:#A6A3DC;}
	.st198{opacity:0.3185;fill:#A5A2DB;}
	.st199{opacity:0.3248;fill:#A4A1DA;}
	.st200{opacity:0.3312;fill:#A3A0DA;}
	.st201{opacity:0.3376;fill:#A29FD9;}
	.st202{opacity:0.3439;fill:#A19FD8;}
	.st203{opacity:0.3503;fill:#A09ED7;}
	.st204{opacity:0.3567;fill:#9F9DD7;}
	.st205{opacity:0.3631;fill:#9E9CD6;}
	.st206{opacity:0.3694;fill:#9D9CD5;}
	.st207{opacity:0.3758;fill:#9C9BD5;}
	.st208{opacity:0.3822;fill:#9B9AD4;}
	.st209{opacity:0.3885;fill:#9A99D3;}
	.st210{opacity:0.3949;fill:#9999D2;}
	.st211{opacity:0.4013;fill:#9898D2;}
	.st212{opacity:0.4076;fill:#9797D1;}
	.st213{opacity:0.414;fill:#9696D0;}
	.st214{opacity:0.4204;fill:#9596CF;}
	.st215{opacity:0.4268;fill:#9495CF;}
	.st216{opacity:0.4331;fill:#9394CE;}
	.st217{opacity:0.4395;fill:#9293CD;}
	.st218{opacity:0.4459;fill:#9192CD;}
	.st219{opacity:0.4522;fill:#9092CC;}
	.st220{opacity:0.4586;fill:#8F91CB;}
	.st221{opacity:0.465;fill:#8E90CA;}
	.st222{opacity:0.4713;fill:#8D8FCA;}
	.st223{opacity:0.4777;fill:#8C8FC9;}
	.st224{opacity:0.4841;fill:#8B8EC8;}
	.st225{opacity:0.4904;fill:#8A8DC8;}
	.st226{opacity:0.4968;fill:#898CC7;}
	.st227{opacity:0.5032;fill:#888CC6;}
	.st228{opacity:0.5096;fill:#878BC5;}
	.st229{opacity:0.5159;fill:#868AC5;}
	.st230{opacity:0.5223;fill:#8589C4;}
	.st231{opacity:0.5287;fill:#8489C3;}
	.st232{opacity:0.535;fill:#8388C3;}
	.st233{opacity:0.5414;fill:#8287C2;}
	.st234{opacity:0.5478;fill:#8186C1;}
	.st235{opacity:0.5541;fill:#8086C0;}
	.st236{opacity:0.5605;fill:#7F85C0;}
	.st237{opacity:0.5669;fill:#7E84BF;}
	.st238{opacity:0.5732;fill:#7D83BE;}
	.st239{opacity:0.5796;fill:#7C82BE;}
	.st240{opacity:0.586;fill:#7B82BD;}
	.st241{opacity:0.5924;fill:#7A81BC;}
	.st242{opacity:0.5987;fill:#7980BB;}
	.st243{opacity:0.6051;fill:#787FBB;}
	.st244{opacity:0.6115;fill:#777FBA;}
	.st245{opacity:0.6178;fill:#767EB9;}
	.st246{opacity:0.6242;fill:#757DB8;}
	.st247{opacity:0.6306;fill:#747CB8;}
	.st248{opacity:0.6369;fill:#737CB7;}
	.st249{opacity:0.6433;fill:#727BB6;}
	.st250{opacity:0.6497;fill:#717AB6;}
	.st251{opacity:0.6561;fill:#7079B5;}
	.st252{opacity:0.6624;fill:#6F79B4;}
	.st253{opacity:0.6688;fill:#6E78B3;}
	.st254{opacity:0.6752;fill:#6D77B3;}
	.st255{opacity:0.6815;fill:#6C76B2;}
	.st256{opacity:0.6879;fill:#6B75B1;}
	.st257{opacity:0.6943;fill:#6A75B1;}
	.st258{opacity:0.7006;fill:#6974B0;}
	.st259{opacity:0.707;fill:#6873AF;}
	.st260{opacity:0.7134;fill:#6772AE;}
	.st261{opacity:0.7197;fill:#6672AE;}
	.st262{opacity:0.7261;fill:#6571AD;}
	.st263{opacity:0.7325;fill:#6470AC;}
	.st264{opacity:0.7389;fill:#636FAC;}
	.st265{opacity:0.7452;fill:#626FAB;}
	.st266{opacity:0.7516;fill:#616EAA;}
	.st267{opacity:0.758;fill:#606DA9;}
	.st268{opacity:0.7643;fill:#5F6CA9;}
	.st269{opacity:0.7707;fill:#5E6CA8;}
	.st270{opacity:0.7771;fill:#5D6BA7;}
	.st271{opacity:0.7834;fill:#5C6AA6;}
	.st272{opacity:0.7898;fill:#5B69A6;}
	.st273{opacity:0.7962;fill:#5A68A5;}
	.st274{opacity:0.8025;fill:#5968A4;}
	.st275{opacity:0.8089;fill:#5867A4;}
	.st276{opacity:0.8153;fill:#5766A3;}
	.st277{opacity:0.8217;fill:#5665A2;}
	.st278{opacity:0.828;fill:#5565A1;}
	.st279{opacity:0.8344;fill:#5464A1;}
	.st280{opacity:0.8408;fill:#5363A0;}
	.st281{opacity:0.8471;fill:#52629F;}
	.st282{opacity:0.8535;fill:#51629F;}
	.st283{opacity:0.8599;fill:#50619E;}
	.st284{opacity:0.8662;fill:#4F609D;}
	.st285{opacity:0.8726;fill:#4E5F9C;}
	.st286{opacity:0.879;fill:#4D5F9C;}
	.st287{opacity:0.8854;fill:#4C5E9B;}
	.st288{opacity:0.8917;fill:#4B5D9A;}
	.st289{opacity:0.8981;fill:#4A5C9A;}
	.st290{opacity:0.9045;fill:#495B99;}
	.st291{opacity:0.9108;fill:#485B98;}
	.st292{opacity:0.9172;fill:#475A97;}
	.st293{opacity:0.9236;fill:#465997;}
	.st294{opacity:0.9299;fill:#455896;}
	.st295{opacity:0.9363;fill:#445895;}
	.st296{opacity:0.9427;fill:#435794;}
	.st297{opacity:0.949;fill:#425694;}
	.st298{opacity:0.9554;fill:#415593;}
	.st299{opacity:0.9618;fill:#405592;}
	.st300{opacity:0.9682;fill:#3F5492;}
	.st301{opacity:0.9745;fill:#3E5391;}
	.st302{opacity:0.9809;fill:#3D5290;}
	.st303{opacity:0.9873;fill:#3C528F;}
	.st304{opacity:0.9936;fill:#3B518F;}
	.st305{fill:#3A508E;}
	.st306{clip-path:url(#SVGID_22_);enable-background:new    ;}
	.st307{fill:#70166B;}
	.st308{fill:#74176F;}
	.st309{fill:#781873;}
	.st310{fill:#7D1977;}
	.st311{fill:#811A7B;}
	.st312{fill:#851B7F;}
	.st313{fill:#8A1C83;}
	.st314{fill:#8E1C87;}
	.st315{fill:#921D8B;}
	.st316{clip-path:url(#SVGID_24_);enable-background:new    ;}
	.st317{fill:#616B85;}
	.st318{fill:#656F8A;}
	.st319{fill:#69738F;}
	.st320{fill:#6C7794;}
	.st321{fill:#707B99;}
	.st322{fill:#747F9E;}
	.st323{fill:#7883A3;}
	.st324{fill:#7B87A8;}
	.st325{fill:#7F8BAD;}
	.st326{clip-path:url(#SVGID_26_);enable-background:new    ;}
	.st327{fill:#9D1F95;}
	.st328{clip-path:url(#SVGID_28_);enable-background:new    ;}
	.st329{clip-path:url(#SVGID_30_);enable-background:new    ;}
	.st330{fill:#767385;}
	.st331{fill:#6C1667;}
	.st332{clip-path:url(#SVGID_32_);enable-background:new    ;}
	.st333{fill:#7C798C;}
	.st334{clip-path:url(#SVGID_34_);enable-background:new    ;}
	.st335{fill:#918DA3;}
	.st336{fill:#9592A8;}
	.st337{fill:#9A96AD;}
	.st338{fill:#8C899E;}
	.st339{fill:#888599;}
	.st340{fill:#838094;}
	.st341{fill:#7F7C8F;}
	.st342{fill:#7A778A;}
	.st343{fill:url(#SVGID_35_);}
	.st344{fill:url(#SVGID_36_);}
	.st345{fill:url(#SVGID_37_);}
	.st346{fill:url(#SVGID_38_);}
	.st347{fill:url(#SVGID_39_);}
	.st348{opacity:0;fill:#012B7E;}
	.st349{opacity:0.0278;fill:#012B7E;}
	.st350{opacity:0.0556;fill:#012B7E;}
	.st351{opacity:0.0833;fill:#012B7E;}
	.st352{opacity:0.1111;fill:#012B7E;}
	.st353{opacity:0.1389;fill:#012B7E;}
	.st354{opacity:0.1667;fill:#012B7E;}
	.st355{opacity:0.1944;fill:#012B7E;}
	.st356{opacity:0.2222;fill:#012B7E;}
	.st357{opacity:0.25;fill:#012B7E;}
	.st358{opacity:0.2778;fill:#012B7E;}
	.st359{opacity:0.3056;fill:#012B7E;}
	.st360{opacity:0.3333;fill:#012B7E;}
	.st361{opacity:0.3611;fill:#012B7E;}
	.st362{opacity:0.3889;fill:#012B7E;}
	.st363{opacity:0.4167;fill:#012B7E;}
	.st364{opacity:0.4444;fill:#012B7E;}
	.st365{opacity:0.4722;fill:#012B7E;}
	.st366{opacity:0.5;fill:#012B7E;}
	.st367{opacity:0.5278;fill:#012B7E;}
	.st368{opacity:0.5556;fill:#012B7E;}
	.st369{opacity:0.5833;fill:#012B7E;}
	.st370{opacity:0.6111;fill:#012B7E;}
	.st371{opacity:0.6389;fill:#012B7E;}
	.st372{opacity:0.6667;fill:#012B7E;}
	.st373{opacity:0.6944;fill:#012B7E;}
	.st374{opacity:0.7222;fill:#012B7E;}
	.st375{opacity:0.75;fill:#012B7E;}
	.st376{opacity:0.7778;fill:#012B7E;}
	.st377{opacity:0.8056;fill:#012B7E;}
	.st378{opacity:0.8333;fill:#012B7E;}
	.st379{opacity:0.8611;fill:#012B7E;}
	.st380{opacity:0.8889;fill:#012B7E;}
	.st381{opacity:0.9167;fill:#012B7E;}
	.st382{opacity:0.9444;fill:#012B7E;}
	.st383{opacity:0.9722;fill:#012B7E;}
	.st384{fill:#012B7E;}
	.st385{fill:url(#SVGID_40_);}
	.st386{fill:url(#SVGID_41_);}
	.st387{fill:url(#SVGID_42_);}
	.st388{fill:url(#SVGID_43_);}
	.st389{fill:url(#SVGID_44_);}
	.st390{fill:url(#SVGID_45_);}
	.st391{fill:url(#SVGID_46_);}
	.st392{fill:url(#SVGID_47_);}
	.st393{clip-path:url(#SVGID_49_);}
	.st394{fill:#412121;}
	.st395{fill:#87A8DC;}
	.st396{opacity:0.8;clip-path:url(#SVGID_49_);}
	.st397{opacity:0.7;}
	.st398{fill:url(#SVGID_50_);}
	.st399{fill:url(#SVGID_51_);}
	.st400{fill:url(#SVGID_52_);}
	.st401{fill:url(#SVGID_53_);}
	.st402{fill:url(#SVGID_54_);}
	.st403{fill:url(#SVGID_55_);}
	.st404{opacity:0;fill:#BECBF7;}
	.st405{opacity:0.0108;fill:#BDCAF6;}
	.st406{opacity:0.0215;fill:#BBC8F5;}
	.st407{opacity:0.0323;fill:#BAC7F4;}
	.st408{opacity:0.043;fill:#B8C6F2;}
	.st409{opacity:0.0538;fill:#B7C4F1;}
	.st410{opacity:0.0645;fill:#B5C3F0;}
	.st411{opacity:0.0753;fill:#B4C2EF;}
	.st412{opacity:0.086;fill:#B3C0EE;}
	.st413{opacity:0.0968;fill:#B1BFED;}
	.st414{opacity:0.1075;fill:#B0BEEC;}
	.st415{opacity:0.1183;fill:#AEBCEB;}
	.st416{opacity:0.129;fill:#ADBBE9;}
	.st417{opacity:0.1398;fill:#ACBAE8;}
	.st418{opacity:0.1505;fill:#AAB8E7;}
	.st419{opacity:0.1613;fill:#A9B7E6;}
	.st420{opacity:0.172;fill:#A7B6E5;}
	.st421{opacity:0.1828;fill:#A6B5E4;}
	.st422{opacity:0.1935;fill:#A4B3E3;}
	.st423{opacity:0.2043;fill:#A3B2E2;}
	.st424{opacity:0.2151;fill:#A2B1E0;}
	.st425{opacity:0.2258;fill:#A0AFDF;}
	.st426{opacity:0.2366;fill:#9FAEDE;}
	.st427{opacity:0.2473;fill:#9DADDD;}
	.st428{opacity:0.2581;fill:#9CABDC;}
	.st429{opacity:0.2688;fill:#9BAADB;}
	.st430{opacity:0.2796;fill:#99A9DA;}
	.st431{opacity:0.2903;fill:#98A7D9;}
	.st432{opacity:0.3011;fill:#96A6D7;}
	.st433{opacity:0.3118;fill:#95A5D6;}
	.st434{opacity:0.3226;fill:#93A3D5;}
	.st435{opacity:0.3333;fill:#92A2D4;}
	.st436{opacity:0.3441;fill:#91A1D3;}
	.st437{opacity:0.3548;fill:#8F9FD2;}
	.st438{opacity:0.3656;fill:#8E9ED1;}
	.st439{opacity:0.3763;fill:#8C9DCF;}
	.st440{opacity:0.3871;fill:#8B9BCE;}
	.st441{opacity:0.3978;fill:#899ACD;}
	.st442{opacity:0.4086;fill:#8899CC;}
	.st443{opacity:0.4194;fill:#8797CB;}
	.st444{opacity:0.4301;fill:#8596CA;}
	.st445{opacity:0.4409;fill:#8495C9;}
	.st446{opacity:0.4516;fill:#8293C8;}
	.st447{opacity:0.4624;fill:#8192C6;}
	.st448{opacity:0.4731;fill:#8091C5;}
	.st449{opacity:0.4839;fill:#7E8FC4;}
	.st450{opacity:0.4946;fill:#7D8EC3;}
	.st451{opacity:0.5054;fill:#7B8DC2;}
	.st452{opacity:0.5161;fill:#7A8CC1;}
	.st453{opacity:0.5269;fill:#788AC0;}
	.st454{opacity:0.5376;fill:#7789BF;}
	.st455{opacity:0.5484;fill:#7688BD;}
	.st456{opacity:0.5591;fill:#7486BC;}
	.st457{opacity:0.5699;fill:#7385BB;}
	.st458{opacity:0.5806;fill:#7184BA;}
	.st459{opacity:0.5914;fill:#7082B9;}
	.st460{opacity:0.6022;fill:#6F81B8;}
	.st461{opacity:0.6129;fill:#6D80B7;}
	.st462{opacity:0.6237;fill:#6C7EB6;}
	.st463{opacity:0.6344;fill:#6A7DB4;}
	.st464{opacity:0.6452;fill:#697CB3;}
	.st465{opacity:0.6559;fill:#677AB2;}
	.st466{opacity:0.6667;fill:#6679B1;}
	.st467{opacity:0.6774;fill:#6578B0;}
	.st468{opacity:0.6882;fill:#6376AF;}
	.st469{opacity:0.6989;fill:#6275AE;}
	.st470{opacity:0.7097;fill:#6074AC;}
	.st471{opacity:0.7204;fill:#5F72AB;}
	.st472{opacity:0.7312;fill:#5D71AA;}
	.st473{opacity:0.7419;fill:#5C70A9;}
	.st474{opacity:0.7527;fill:#5B6EA8;}
	.st475{opacity:0.7634;fill:#596DA7;}
	.st476{opacity:0.7742;fill:#586CA6;}
	.st477{opacity:0.7849;fill:#566AA5;}
	.st478{opacity:0.7957;fill:#5569A3;}
	.st479{opacity:0.8065;fill:#5468A2;}
	.st480{opacity:0.8172;fill:#5266A1;}
	.st481{opacity:0.828;fill:#5165A0;}
	.st482{opacity:0.8387;fill:#4F649F;}
	.st483{opacity:0.8495;fill:#4E639E;}
	.st484{opacity:0.8602;fill:#4C619D;}
	.st485{opacity:0.871;fill:#4B609C;}
	.st486{opacity:0.8817;fill:#4A5F9A;}
	.st487{opacity:0.8925;fill:#485D99;}
	.st488{opacity:0.9032;fill:#475C98;}
	.st489{opacity:0.914;fill:#455B97;}
	.st490{opacity:0.9247;fill:#445996;}
	.st491{opacity:0.9355;fill:#435895;}
	.st492{opacity:0.9462;fill:#415794;}
	.st493{opacity:0.957;fill:#405593;}
	.st494{opacity:0.9677;fill:#3E5491;}
	.st495{opacity:0.9785;fill:#3D5390;}
	.st496{opacity:0.9892;fill:#3B518F;}
	.st497{fill:url(#SVGID_56_);}
	.st498{fill:url(#SVGID_57_);}
	.st499{fill:url(#SVGID_58_);}
	.st500{fill:url(#SVGID_59_);}
	.st501{fill:url(#SVGID_60_);}
	.st502{clip-path:url(#SVGID_62_);}
	.st503{fill:#FA4542;}
	.st504{opacity:0.8;clip-path:url(#SVGID_62_);}
	.st505{fill:url(#SVGID_63_);}
	.st506{fill:url(#SVGID_64_);}
	.st507{opacity:0.7;fill:url(#SVGID_65_);}
	.st508{fill:url(#SVGID_66_);}
	.st509{fill:url(#SVGID_67_);}
	.st510{clip-path:url(#SVGID_69_);}
	.st511{fill:#1479DA;}
	.st512{opacity:0.8;clip-path:url(#SVGID_69_);}
	.st513{fill:url(#SVGID_70_);}
	.st514{clip-path:url(#SVGID_72_);}
	.st515{fill:#1278DA;}
	.st516{opacity:0.8;clip-path:url(#SVGID_72_);}
	.st517{fill:url(#SVGID_73_);}
	.st518{clip-path:url(#SVGID_75_);}
	.st519{fill:#127ADB;}
	.st520{opacity:0.8;clip-path:url(#SVGID_75_);}
	.st521{fill:url(#SVGID_76_);}
	.st522{clip-path:url(#SVGID_78_);}
	.st523{opacity:0.8;clip-path:url(#SVGID_78_);}
	.st524{fill:url(#SVGID_79_);}
	.st525{clip-path:url(#SVGID_81_);}
	.st526{fill:url(#SVGID_82_);}
	.st527{fill:url(#SVGID_83_);}
	.st528{opacity:0.8;clip-path:url(#SVGID_81_);}
	.st529{fill:url(#SVGID_84_);}
	.st530{clip-path:url(#SVGID_86_);}
	.st531{fill:#187FDF;}
	.st532{opacity:0.8;clip-path:url(#SVGID_86_);}
	.st533{fill:url(#SVGID_87_);}
	.st534{clip-path:url(#SVGID_89_);}
	.st535{fill:#0E70D3;}
	.st536{opacity:0.8;clip-path:url(#SVGID_89_);}
	.st537{fill:url(#SVGID_90_);}
	.st538{clip-path:url(#SVGID_92_);fill:#FFFFFF;}
	.st539{clip-path:url(#SVGID_92_);fill:#0071C1;}
	.st540{opacity:0.8;clip-path:url(#SVGID_92_);}
	.st541{clip-path:url(#SVGID_92_);}
	.st542{opacity:0.7;fill:#8B7BC8;}
	.st543{fill:url(#SVGID_93_);}
	.st544{fill:url(#SVGID_94_);}
	.st545{fill:#003B64;}
	.st546{fill:#003D68;}
	.st547{fill:url(#SVGID_95_);}
	.st548{opacity:0.7;fill:url(#SVGID_96_);}
	.st549{fill:url(#SVGID_97_);}
	.st550{fill:url(#SVGID_98_);}
	.st551{clip-path:url(#SVGID_100_);}
	.st552{opacity:0.8;clip-path:url(#SVGID_100_);}
	.st553{fill:url(#SVGID_101_);}
	.st554{fill:url(#SVGID_102_);}
	.st555{fill:url(#SVGID_103_);}
	.st556{fill:url(#SVGID_104_);}
	.st557{fill:url(#SVGID_105_);}
	.st558{opacity:0.7;fill:url(#SVGID_106_);}
	.st559{fill:url(#SVGID_107_);}
	.st560{fill:url(#SVGID_108_);}
	.st561{fill:url(#SVGID_109_);}
	.st562{fill:url(#SVGID_110_);}
	.st563{fill:url(#SVGID_111_);}
	.st564{fill:url(#SVGID_112_);}
	.st565{opacity:0.7;fill:url(#SVGID_113_);}
	.st566{fill:url(#SVGID_114_);}
	.st567{clip-path:url(#SVGID_116_);fill:#FF3B62;}
	.st568{clip-path:url(#SVGID_116_);fill:#412121;}
	.st569{clip-path:url(#SVGID_116_);fill:#FFFFFF;}
	.st570{opacity:0.8;clip-path:url(#SVGID_116_);}
	.st571{clip-path:url(#SVGID_116_);}
	.st572{fill:url(#SVGID_117_);}
	.st573{fill:url(#SVGID_118_);}
	.st574{opacity:0;fill:#3A508E;}
	.st575{opacity:0.02;fill:#3A508E;}
	.st576{opacity:0.04;fill:#3A508E;}
	.st577{opacity:0.06;fill:#3A508E;}
	.st578{opacity:0.08;fill:#3A508E;}
	.st579{opacity:0.1;fill:#3A508E;}
	.st580{opacity:0.12;fill:#3A508E;}
	.st581{opacity:0.14;fill:#3A508E;}
	.st582{opacity:0.16;fill:#3A508E;}
	.st583{opacity:0.18;fill:#3A508E;}
	.st584{opacity:0.2;fill:#3A508E;}
	.st585{opacity:0.22;fill:#3A508E;}
	.st586{opacity:0.24;fill:#3A508E;}
	.st587{opacity:0.26;fill:#3A508E;}
	.st588{opacity:0.28;fill:#3A508E;}
	.st589{opacity:0.3;fill:#3A508E;}
	.st590{opacity:0.32;fill:#3A508E;}
	.st591{opacity:0.34;fill:#3A508E;}
	.st592{opacity:0.36;fill:#3A508E;}
	.st593{opacity:0.38;fill:#3A508E;}
	.st594{opacity:0.4;fill:#3A508E;}
	.st595{opacity:0.42;fill:#3A508E;}
	.st596{opacity:0.44;fill:#3A508E;}
	.st597{opacity:0.46;fill:#3A508E;}
	.st598{opacity:0.48;fill:#3A508E;}
	.st599{opacity:0.5;fill:#3A508E;}
	.st600{opacity:0.52;fill:#3A508E;}
	.st601{opacity:0.54;fill:#3A508E;}
	.st602{opacity:0.56;fill:#3A508E;}
	.st603{opacity:0.58;fill:#3A508E;}
	.st604{opacity:0.6;fill:#3A508E;}
	.st605{opacity:0.62;fill:#3A508E;}
	.st606{opacity:0.64;fill:#3A508E;}
	.st607{opacity:0.66;fill:#3A508E;}
	.st608{opacity:0.68;fill:#3A508E;}
	.st609{opacity:0.7;fill:#3A508E;}
	.st610{opacity:0.72;fill:#3A508E;}
	.st611{opacity:0.74;fill:#3A508E;}
	.st612{opacity:0.76;fill:#3A508E;}
	.st613{opacity:0.78;fill:#3A508E;}
	.st614{opacity:0.8;fill:#3A508E;}
	.st615{opacity:0.82;fill:#3A508E;}
	.st616{opacity:0.84;fill:#3A508E;}
	.st617{opacity:0.86;fill:#3A508E;}
	.st618{opacity:0.88;fill:#3A508E;}
	.st619{opacity:0.9;fill:#3A508E;}
	.st620{opacity:0.92;fill:#3A508E;}
	.st621{opacity:0.94;fill:#3A508E;}
	.st622{opacity:0.96;fill:#3A508E;}
	.st623{opacity:0.98;fill:#3A508E;}
	.st624{fill:url(#SVGID_119_);}
	.st625{fill:url(#SVGID_120_);}
	.st626{clip-path:url(#SVGID_122_);}
	.st627{fill:url(#SVGID_123_);}
	.st628{fill:url(#SVGID_124_);}
	.st629{clip-path:url(#SVGID_126_);}
	.st630{fill:url(#SVGID_127_);}
	.st631{fill:url(#SVGID_128_);}
	.st632{fill:url(#SVGID_129_);}
</style>
<g>
	<g>
		<path class="st45" d="M612.83,433.57c-2.13,9.36-3.57,18.73-3.42,28.18c0.11,6.94,0.94,15.83,2.52,25.54H51.19
			c-10.76-32.09-5.35-69.09,17.55-95.39c13.81-15.83,30.69-28.84,38.93-48.67c8.92-21.53,8.84-46.28,9.83-69.19
			c0-0.08,0.01-0.17,0.01-0.26c2.13-48.64,5.39-100.83,59.36-118.44c4.85-1.98,9.88-3.57,15.1-4.73c10.5-2.31,21.77-2.92,33.85-1.47
			c23.67,2.86,45.19,14.63,67.32,23.5c22.14,8.9,47.34,14.95,69.54,6.2c18.13-7.14,31.1-22.9,45.51-36.06
			c20.31-18.57,45.66-32.96,73.13-34.96c42.85-3.08,77.09,26.98,79.28,69.59c0.76,14.63-0.91,29.28-0.38,43.91
			c1.73,49.9,51.7,73.25,65.82,117.78C635.82,369.94,620.14,401.51,612.83,433.57z"/>
	</g>
	<path class="st46" d="M521.14,439.25c0,16.7-2.46,32.83-7.03,48.04H194.7c-4.57-15.21-7.03-31.35-7.03-48.04
		c0-92.09,74.65-166.74,166.74-166.74C446.5,272.52,521.14,347.16,521.14,439.25z"/>
	<g>
		<g>
			<g>
				<g>
					<g>
						<path class="st47" d="M88.92,167.48v168.59c0,3.67,2.44,6.63,5.46,6.63h234.68c3.03,0,5.47-2.96,5.47-6.63V167.48
							c0-3.65-2.44-6.62-5.47-6.62H94.38C91.36,160.86,88.92,163.82,88.92,167.48z"/>
						<path class="st48" d="M88.92,167.48v12.07h245.61v-12.07c0-3.65-2.44-6.62-5.47-6.62H94.38
							C91.36,160.86,88.92,163.82,88.92,167.48z"/>
					</g>
				</g>
			</g>
		</g>
		<g>
			<g>
				
					<rect x="286.19" y="257.82" transform="matrix(6.123234e-17 -1 1 6.123234e-17 28.368 547.9874)" class="st5" width="3.98" height="3.98"/>
				<rect x="239.81" y="304.2" class="st5" width="3.98" height="3.98"/>
				<g>
					<circle class="st49" cx="241.75" cy="259.81" r="46.32"/>
					
						<rect x="193.43" y="257.82" transform="matrix(6.123234e-17 -1 1 6.123234e-17 -64.3887 455.2307)" class="st5" width="3.98" height="3.98"/>
					<rect x="239.81" y="211.44" class="st5" width="3.98" height="3.98"/>
					<g>
						<line class="st49" x1="195.42" y1="303.75" x2="195.42" y2="217.15"/>
						<circle class="st5" cx="195.66" cy="215.79" r="2.01"/>
						<circle class="st5" cx="195.66" cy="303.27" r="2.01"/>
					</g>
				</g>
			</g>
			<g>
				<g>
					<path class="st5" d="M134.99,245.93l5.65,2.66l10.56-22.46l-5.65-2.66c-1.48-0.7-3.26-0.07-3.95,1.41l-8.03,17.09
						C132.86,243.46,133.51,245.23,134.99,245.93z"/>
					<path class="st5" d="M153.56,259.28l35.17-1.07l0.02-0.04l-21.6-10.15c-0.62,0.78-1.73,1.03-2.67,0.6
						c-1.16-0.55-1.64-1.91-1.09-3.07c0.53-1.13,1.88-1.63,3.05-1.08c0.95,0.45,1.45,1.48,1.27,2.47l21.57,10.14l-21.6-27.8
						c-1.25-1.6-3.12-2.54-5.15-2.57l-10.36-0.18l-10.61,22.57l6.74,7.88C149.62,258.48,151.53,259.33,153.56,259.28z"/>
				</g>
				<path class="st45" d="M140.64,248.58l5.29-11.25l-8.34-3.92l-4.02,8.56c-0.7,1.5-0.05,3.26,1.43,3.96L140.64,248.58z"/>
				<path class="st45" d="M153.56,259.28l35.17-1.07l0.02-0.04l-21.6-10.15c-0.62,0.78-1.73,1.03-2.67,0.6
					c-1.16-0.55-1.64-1.91-1.09-3.07l-16.53-7.77l-5.31,11.3l6.74,7.88C149.62,258.48,151.53,259.33,153.56,259.28z"/>
			</g>
		</g>
	</g>
	<g>
		<g>
			<g>
				<g>
					<g>
						<path class="st50" d="M267.24,129.57v84.56c0,1.84,1.23,3.32,2.74,3.32h117.72c1.52,0,2.74-1.49,2.74-3.32v-84.56
							c0-1.83-1.23-3.32-2.74-3.32H269.98C268.46,126.25,267.24,127.74,267.24,129.57z"/>
						<path class="st48" d="M267.24,129.57v6.06h123.2v-6.06c0-1.83-1.23-3.32-2.74-3.32H269.98
							C268.46,126.25,267.24,127.74,267.24,129.57z"/>
					</g>
				</g>
			</g>
		</g>
		<g>
			<polygon class="st5" points="353.69,193.1 303.99,193.1 304.31,192.54 328.83,150.06 353.37,192.54 			"/>
			<path class="st5" d="M353.69,193.1c0,1.91-11.12,3.46-24.86,3.46c-13.72,0-24.84-1.55-24.84-3.46c0-0.2,0.11-0.38,0.32-0.56
				c1.88-1.66,12.16-2.92,24.52-2.92c12.38,0,22.65,1.26,24.54,2.92C353.58,192.72,353.69,192.9,353.69,193.1z"/>
			<path class="st45" d="M353.69,193.1c0,1.91-11.12,3.46-24.86,3.46v-46.51l24.54,42.48C353.58,192.72,353.69,192.9,353.69,193.1z"
				/>
		</g>
	</g>
	<g>
		<g>
			<g>
				<g>
					<g>
						<path class="st50" d="M550.99,323.87v51.07c0,1.11,0.74,2.01,1.65,2.01h71.09c0.92,0,1.66-0.9,1.66-2.01v-51.07
							c0-1.11-0.74-2-1.66-2h-71.09C551.74,321.86,550.99,322.76,550.99,323.87z"/>
						<path class="st48" d="M550.99,323.87v3.66h74.4v-3.66c0-1.11-0.74-2-1.66-2h-71.09C551.74,321.86,550.99,322.76,550.99,323.87
							z"/>
					</g>
				</g>
			</g>
		</g>
		<g>
			<g>
				<g>
					<polyline class="st51" points="612.67,365.3 612.67,365.95 612.02,365.95 					"/>
					<line class="st52" x1="610.74" y1="365.95" x2="565.21" y2="365.95"/>
					<polyline class="st51" points="564.56,365.95 563.91,365.95 563.91,365.3 					"/>
					<line class="st53" x1="563.91" y1="364.03" x2="563.91" y2="339.11"/>
					<polyline class="st51" points="563.91,338.47 563.91,337.82 564.56,337.82 					"/>
					<line class="st52" x1="565.85" y1="337.82" x2="611.38" y2="337.82"/>
					<polyline class="st51" points="612.02,337.82 612.67,337.82 612.67,338.47 					"/>
					<line class="st53" x1="612.67" y1="339.75" x2="612.67" y2="364.67"/>
				</g>
			</g>
			<g>
				<rect x="611.2" y="336.82" class="st54" width="2.41" height="2.41"/>
				<rect x="611.2" y="364.67" class="st54" width="2.41" height="2.41"/>
			</g>
			<g>
				<rect x="562.78" y="336.82" class="st54" width="2.41" height="2.41"/>
				<rect x="562.78" y="364.67" class="st54" width="2.41" height="2.41"/>
			</g>
		</g>
		<circle class="st48" cx="596.77" cy="351.95" r="8.17"/>
		<circle class="st55" cx="588.19" cy="351.95" r="8.17"/>
		<circle class="st56" cx="579.08" cy="351.95" r="8.17"/>
	</g>
	<g>
		<rect x="471.2" y="100" class="st57" width="78.36" height="195.17"/>
		<g>
			<polygon class="st58" points="490.75,122.21 488.57,138.68 494.62,134.18 502.34,134.12 			"/>
			<polygon class="st5" points="523.68,122.21 521.5,138.68 527.55,134.18 535.26,134.12 			"/>
			<g>
				<line class="st59" x1="510.38" y1="113.93" x2="510.38" y2="281.24"/>
				<g>
					<line class="st59" x1="479.92" y1="147.89" x2="540.84" y2="147.89"/>
					<line class="st59" x1="479.92" y1="192.32" x2="540.84" y2="192.32"/>
					<line class="st59" x1="479.92" y1="236.75" x2="540.84" y2="236.75"/>
					<line class="st59" x1="479.92" y1="281.17" x2="540.84" y2="281.17"/>
					<line class="st59" x1="479.92" y1="114" x2="540.84" y2="114"/>
				</g>
			</g>
			<g>
				<path class="st5" d="M500.73,170.9l-5.56-5.56l1.61-1.61c0.25-0.25,0.66-0.25,0.91,0l4.64,4.64c0.25,0.25,0.25,0.66,0,0.91
					L500.73,170.9z"/>
				<path class="st5" d="M499.35,174.21l1.17-3.07l-5.58-5.58l-3.07,1.17c-0.6,0.22-1.06,0.71-1.25,1.32l-3.45,10.6l5.33-5.33
					c-0.16-0.27-0.12-0.63,0.11-0.87c0.29-0.29,0.75-0.29,1.02-0.01c0.29,0.29,0.29,0.75,0,1.03c-0.23,0.23-0.58,0.27-0.86,0.11
					l-5.34,5.34l0.01,0.01l10.59-3.46C498.64,175.27,499.13,174.81,499.35,174.21z"/>
			</g>
			<g>
				<g>
					<path class="st5" d="M534.91,170.9l-5.56-5.56l1.61-1.61c0.25-0.25,0.66-0.25,0.91,0l4.64,4.64c0.25,0.25,0.25,0.66,0,0.91
						L534.91,170.9z"/>
					<path class="st5" d="M533.53,174.21l1.17-3.07l-5.58-5.58l-3.07,1.17c-0.6,0.22-1.06,0.71-1.25,1.32l-3.45,10.6l5.33-5.33
						c-0.16-0.27-0.12-0.63,0.11-0.87c0.29-0.29,0.75-0.29,1.02-0.01c0.29,0.29,0.29,0.75,0,1.03c-0.23,0.23-0.58,0.27-0.86,0.11
						l-5.34,5.34l0.01,0.01l10.59-3.46C532.82,175.27,533.3,174.81,533.53,174.21z"/>
				</g>
				<path class="st60" d="M521.11,179c0,0-2.23,0.77-3.04-1.25c-1.47-3.68,4.18-10.15-0.25-8.9"/>
			</g>
			<g>
				<path class="st61" d="M522.72,224.48l-3.82-3.82c-0.33-0.33-0.33-0.85,0-1.18l4.41-4.41l5,5l-4.41,4.41
					C523.57,224.81,523.04,224.81,522.72,224.48z"/>
				<path class="st5" d="M527.89,221.65l-6.17-6.17c-0.36-0.36-0.36-0.93,0-1.29l7.39-7.39c0.36-0.36,0.93-0.36,1.29,0l6.17,6.17
					c0.36,0.36,0.36,0.93,0,1.29l-7.39,7.39C528.82,222.01,528.25,222.01,527.89,221.65z"/>
			</g>
			<rect x="487.07" y="208.74" class="st61" width="12.87" height="12.87"/>
			<g>
				
					<rect x="490.23" y="254.16" transform="matrix(0.7071 0.7071 -0.7071 0.7071 328.693 -272.4955)" class="st5" width="6.09" height="12.72"/>
				<polygon class="st5" points="484.9,268.76 484.9,268.76 486.16,263.33 490.47,267.64 				"/>
				<path class="st5" d="M502.07,255.48l-3.75-3.75c-0.15-0.15-0.4-0.15-0.56,0l-1.68,1.68l4.31,4.31l1.68-1.68
					C502.22,255.88,502.22,255.64,502.07,255.48z"/>
			</g>
			<g>
				<path class="st5" d="M526.77,256.59h-4.01v-1.45h9.76v1.45h-4.03v11.74h-1.72V256.59z"/>
			</g>
		</g>
	</g>
	<g>
		<g>
			<path class="st57" d="M121.18,274.07H57.43c-0.94,0-1.71-0.76-1.71-1.71v-36.16c0-0.94,0.76-1.71,1.71-1.71h63.75
				c0.94,0,1.71,0.76,1.71,1.71v36.16C122.88,273.31,122.12,274.07,121.18,274.07z"/>
			<path class="st47" d="M118.02,259.43v10.09H60.58l11.64-11.85c2.94-2.99,7.72-3.13,10.83-0.31l6.18,5.6l9.89-10.5
				c2.95-3.13,7.87-3.3,11.02-0.37L118.02,259.43z"/>
			<circle class="st47" cx="77.71" cy="245.69" r="3.78"/>
		</g>
	</g>
	<g>
		<g>
			<path class="st45" d="M169.06,146.72h-63.75c-0.94,0-1.71-0.76-1.71-1.71v-36.16c0-0.94,0.76-1.71,1.71-1.71h63.75
				c0.94,0,1.71,0.76,1.71,1.71v36.16C170.77,145.96,170,146.72,169.06,146.72z"/>
			<path class="st5" d="M165.9,132.08v10.09h-57.44l11.64-11.85c2.94-2.99,7.72-3.13,10.83-0.31l6.18,5.6l9.89-10.5
				c2.95-3.13,7.87-3.3,11.02-0.37L165.9,132.08z"/>
			<circle class="st5" cx="125.6" cy="118.34" r="3.78"/>
		</g>
	</g>
	<g>
		<path class="st57" d="M137.07,469.15c-1.09-2.5-5.46-12.12-6.53-18.2s-4.38-11.02-4.47-14.06c-0.09-3.04,4.9-4.83,6.2-11.07
			s3.93-16.43,5.55-16.12c1.62,0.31,2.73,11.49,4.27,14.25c1.54,2.76,5.7,6.18,2.48,10.15c-3.22,3.97-1.5,8.72,1.45,12.87
			s-5.42,9.31-4.6,14.96c0.82,5.64-0.74,13.23-0.74,13.23L137.07,469.15z"/>
		<g>
			<path class="st62" d="M138.52,457.1c-0.25,0-0.46-0.19-0.49-0.44c-0.41-3.72-1.54-6.55-2.44-8.83c-0.72-1.8-1.33-3.35-1.39-4.8
				c-0.07-1.78,0.93-3.17,1.9-4.51c0.9-1.24,1.83-2.53,2.05-4.22c0.46-3.54-2.73-11.4-2.76-11.47c-0.1-0.25,0.02-0.54,0.27-0.64
				c0.25-0.1,0.54,0.02,0.64,0.27c0.14,0.33,3.32,8.18,2.83,11.98c-0.25,1.94-1.3,3.39-2.23,4.67c-0.95,1.32-1.77,2.45-1.72,3.9
				c0.05,1.29,0.61,2.69,1.32,4.48c0.93,2.33,2.09,5.24,2.51,9.09c0.03,0.27-0.17,0.51-0.43,0.54
				C138.56,457.1,138.54,457.1,138.52,457.1z"/>
		</g>
		<path class="st57" d="M128.75,467.27c-1.21-0.54-1.6-7.13-3.81-8.11c-2.21-0.98-3.81-4.06-4.55-7.25
			c-0.74-3.2-7.25-4.55-8.48-7.99c-1.23-3.44,2.46-5.9,2.21-9.09c-0.25-3.2-2.95-7.74-0.98-9.83c1.97-2.09,5.41,5.16,7.25,6.64
			c1.84,1.47,5.41,3.07,4.42,5.78c-0.98,2.7,0.37,7.13,6.76,9.59S142.15,473.29,128.75,467.27z"/>
		<g>
			<path class="st62" d="M129.73,455.97c-0.21,0-0.4-0.13-0.47-0.34c-1.25-3.84-3.23-5.36-5.52-7.11c-1.18-0.9-2.4-1.84-3.59-3.16
				c-3.58-3.96-1.91-10.85-1.83-11.14c0.07-0.26,0.33-0.42,0.6-0.36c0.26,0.07,0.42,0.33,0.36,0.6c-0.02,0.07-1.61,6.68,1.61,10.24
				c1.13,1.25,2.32,2.16,3.46,3.04c2.32,1.78,4.51,3.45,5.86,7.59c0.08,0.26-0.06,0.54-0.31,0.62
				C129.84,455.96,129.78,455.97,129.73,455.97z"/>
		</g>
		<path class="st57" d="M140.67,468.01c0.33-0.98,0.66-5.24,2.95-6.23s4.59-1.64,6.39-4.59s0-7.54,1.97-10.65
			c1.97-3.11,6.39-0.16,8.68-3.28c2.29-3.11-2.79-8.52-0.98-10.81c1.8-2.29,4.26-8.52,1.8-9.34c-2.46-0.82-9.34,3.6-11.14,7.54
			c-1.8,3.93-5.41,6.23-6.23,9.34c-0.82,3.11-3.44,4.75-4.1,7.86s0.33,7.86-0.82,11.31C138.05,462.6,140.67,468.01,140.67,468.01z"
			/>
		<path class="st48" d="M146.54,485.71h-20.58c-1.48,0-2.7-1.17-2.76-2.65l-0.88-21.93h27.86l-0.88,21.93
			C149.24,484.53,148.02,485.71,146.54,485.71z"/>
		<g>
			<path class="st62" d="M145.26,456.54c-0.01,0-0.02,0-0.04,0c-0.27-0.02-0.47-0.26-0.46-0.53c0.62-8.5,3.57-13.11,6.67-16.83
				c2.36-2.83,3.82-8.28,3.83-8.33c0.07-0.26,0.34-0.42,0.6-0.35c0.26,0.07,0.42,0.34,0.35,0.6c-0.06,0.23-1.53,5.71-4.03,8.71
				c-2.99,3.59-5.84,8.05-6.44,16.27C145.73,456.34,145.51,456.54,145.26,456.54z"/>
		</g>
	</g>
	<g>
		<rect x="64.47" y="352.38" class="st50" width="92.21" height="30.89"/>
		<g>
			<circle class="st5" cx="84.84" cy="368.36" r="6.97"/>
			<circle class="st57" cx="102" cy="368.36" r="6.97"/>
			<circle class="st63" cx="119.16" cy="368.36" r="6.97"/>
			<circle class="st47" cx="136.33" cy="368.36" r="6.97"/>
		</g>
	</g>
	<g>
		<path class="st64" d="M364.34,326.18c-28.92,1.15-80.44,149.41-60.31,152.27C331.15,497.25,411.13,333.67,364.34,326.18z"/>
		<path class="st47" d="M366.64,320.29l-0.26,36.42l-0.55,71.87c0,0-0.58,0.92-1.58,2.59c-0.26,0.4-0.52,0.86-0.83,1.35
			c-0.92,1.47-2.07,3.34-3.39,5.52l-16.28-10.96l-30.99-20.86c7.94-20.46,16.14-40.22,21.95-51.01
			C350.12,326.51,366.64,320.29,366.64,320.29z"/>
		<path class="st65" d="M366.38,356.72l-0.55,71.87c0,0-0.58,0.92-1.58,2.59c-0.26,0.4-0.52,0.83-0.83,1.35
			c-0.92,1.47-2.07,3.34-3.39,5.52l-16.28-10.96c0.58-20.25,0.26-29.26,0-45c-0.29-16.66,5.15-38.24,5.15-38.24
			S357.69,350.3,366.38,356.72z"/>
		<g>
			<polygon class="st64" points="439.16,325.18 415.46,342.96 398.56,327.88 398.56,305.15 432.35,278.66 432.94,282.7 
				434.71,294.79 			"/>
			<path class="st64" d="M434.71,294.79c-20.31,16.69-33.94,15.76-36.15,16.15c-0.12,0.02-0.18,0.03-0.18,0.03l0.18-0.17l31.5-27.93
				c0,0,1.25-0.17,2.89-0.18L434.71,294.79z"/>
			<g>
				<path class="st64" d="M435.26,283.42c0,0-6.26,13.97-20.83,21.07c-6.84,3.33-14.59,7.85-22.49,6.3
					c-6.98-1.37-10.66-8.31-13.64-14.06c-2.9-5.61-4.24-11.92-4.25-18.22c-0.01-6.79,0.35-13.38-1.12-20.06
					c-1.16-5.28-2.85-11.88,0.31-16.81c4.09-6.38,36-14.33,36-14.33l18.78,10.36l14.21,9.39L435.26,283.42z"/>
				<path class="st48" d="M392.27,242.6c0,0,0.96,5.18,6.38,7.47c0,0-10.23,1.2-16.38-3.37c0,0,2.89,4.46,5.3,5.18
					c0,0-12.76,0.6-16.86-4.09l1.44,8.07c0,0-7.47-7.47-7.34-16.5c0.09-6.4,2.96-12.29,4.93-18.26c1.29-3.92,3.18-8.35,7.02-10.39
					c10.23-5.44,22.66-4.53,33.53-1.75c8.65,2.21,17.57,5.24,24.54,11.04c18.48,15.38,11.34,49.35-1.06,66.37
					c0,0-1.53-15.57-1.77-20.39c-0.24-4.82-4.58-6.02-4.46-3.73c0.12,2.29-0.25,13.53-2.66,13.41c-2.41-0.12-3.34-19.79-9.12-23.88
					C409.99,247.67,396.97,246.46,392.27,242.6z"/>
			</g>
		</g>
		<path class="st47" d="M511.1,487.01H353.19c-4-49.24-9.31-125.93-4.97-141.84c4.98-18.29,14.77-25.74,29.72-28.94
			c4.51-0.96,15.18-2.1,20.65-2.46c4.6,25.12,39.18,0.5,39.18,0.5s8.28,0.82,14.27,1.2c14.01,0.87,38.11,5.42,42.94,26.19
			c2.34,10.04,5.1,36.25,8.05,65.9c1.64,16.74,3.34,34.6,5.04,51.26C509.1,468.81,510.1,478.36,511.1,487.01z"/>
		<path class="st65" d="M465.33,372.12c0,0,21.64,60.59,24.08,67.9c2.44,7.31,1.08,13.27-9.75,17.87c-10.83,4.6,17.06,13,17.6,11.37
			c0.54-1.62,36.56-33.04,34.39-34.93C529.49,432.45,465.33,372.12,465.33,372.12z"/>
		<path class="st64" d="M474.98,332.2c-19.28,21.59,51.43,161.7,67.48,149.23C574.84,475.01,512.9,303.79,474.98,332.2z"/>
		<path class="st64" d="M538.11,403.74c0,0,23.29,58.49,13.27,71.49c-10.02,13-106.1,20.42-106.1,20.42l-4.11-26.38
			c0,0,66.75-16.38,66.95-17.4s-16.25-29.85-16.25-29.85L538.11,403.74z"/>
		<g>
			<g>
				<path class="st64" d="M553.36,468.63c-0.06,4.62-2.92,8.81-6.93,11.12c-31.35,18.04-170.1,20.32-166.2,10.57
					C380.04,482.86,553.83,433.83,553.36,468.63z"/>
			</g>
		</g>
		<path class="st47" d="M490.87,425.68c0,0,0,0,0-0.03c-9.87-17.98-22.27-41.8-25.55-53.51c0,0-21.66-44.54-5.55-51.87
			c2.16-0.98,6.7-2.56,8.92-2.01c16.49,4,33.69,15.91,45.29,32.68c7.74,11.16,18.04,31.62,26.58,53.02c0,0,0.03,0.03,0.03,0.06
			L490.87,425.68z"/>
		<g>
			<path class="st48" d="M393.44,486.73H282.15v-6.93h106.54c2.63,0,4.76,2.13,4.76,4.76V486.73z"/>
			<path class="st57" d="M193.6,486.73h142.81l-13.7-87.78c-0.4-2.54-2.59-4.42-5.16-4.42H185.32c-3.21,0-5.66,2.86-5.16,6.03
				L193.6,486.73z"/>
		</g>
		<path class="st64" d="M342.78,501.41c0.23-0.69,11.31-23.09,23.78-25.17s29.56,4.16,31.86,4.16s7.62-0.46,7.62-0.46l3.69,14.78
			c0,0-9.81-0.12-11.2,1.5s-1.96,3.93-7.16,3.93s-10.51-4.85-16.86-4.85c-6.35,0-10.97,7.39-16.63,7.39
			C352.25,502.68,342.78,501.41,342.78,501.41z"/>
	</g>
	<g>
		<rect x="48.81" y="485.58" class="st67" width="613.19" height="8.58"/>
		<rect x="60.74" y="494.16" class="st68" width="586.73" height="16.64"/>
		<rect x="475.15" y="494.16" class="st48" width="172.31" height="16.64"/>
		<rect x="464.29" y="485.58" class="st47" width="197.71" height="8.58"/>
	</g>
</g>
</svg>
