<?xml version="1.0" encoding="utf-8"?>
<!-- Generator: Adobe Illustrator 24.3.0, SVG Export Plug-In . SVG Version: 6.00 Build 0)  -->
<svg version="1.1" id="Layer_1" xmlns="http://www.w3.org/2000/svg" xmlns:xlink="http://www.w3.org/1999/xlink" x="0px" y="0px"
	 viewBox="0 0 700 600" style="enable-background:new 0 0 700 600;" xml:space="preserve">
<style type="text/css">
	.st0{opacity:0.2;fill:#92B4D1;}
	.st1{fill:#2672AB;}
	.st2{fill:#D1EBFF;}
	.st3{opacity:0.5;fill:#3F92D1;}
	.st4{fill:#3F92D1;}
	.st5{fill:#FFFFFF;}
	.st6{opacity:0.3;fill:#FFFFFF;}
	.st7{fill:#A8CFF0;}
	.st8{fill:#72B5E8;}
	.st9{fill:#03336E;}
	.st10{fill:#022652;}
	.st11{opacity:0.7;fill:#FFFFFF;}
	.st12{opacity:0.1;fill:#F1F2F2;}
	.st13{opacity:0.1429;fill:#ECEFF0;}
	.st14{opacity:0.1857;fill:#E7EBEE;}
	.st15{opacity:0.2286;fill:#E2E8EC;}
	.st16{opacity:0.2714;fill:#DEE5EA;}
	.st17{opacity:0.3143;fill:#D9E1E8;}
	.st18{opacity:0.3571;fill:#D4DEE6;}
	.st19{opacity:0.4;fill:#CFDBE4;}
	.st20{opacity:0.4429;fill:#CAD7E2;}
	.st21{opacity:0.4857;fill:#C5D4E0;}
	.st22{opacity:0.5286;fill:#C0D1DE;}
	.st23{opacity:0.5714;fill:#BCCDDB;}
	.st24{opacity:0.6143;fill:#B7CAD9;}
	.st25{opacity:0.6571;fill:#B2C7D7;}
	.st26{opacity:0.7;fill:#ADC3D5;}
	.st27{opacity:0.7429;fill:#A8C0D3;}
	.st28{opacity:0.7857;fill:#A3BDD1;}
	.st29{opacity:0.8286;fill:#9EB9CF;}
	.st30{opacity:0.8714;fill:#9AB6CD;}
	.st31{opacity:0.9143;fill:#95B3CB;}
	.st32{opacity:0.9571;fill:#90AFC9;}
	.st33{fill:#8BACC7;}
	.st34{fill:#EB4680;}
	.st35{fill:#FFD70F;}
	.st36{opacity:0.5;fill:#FFFFFF;}
	.st37{fill:#0BA19F;}
	.st38{fill:#3ECFCD;}
	.st39{fill:#0FBAB8;}
	.st40{fill:url(#SVGID_1_);}
	.st41{fill:url(#SVGID_2_);}
	.st42{fill:url(#SVGID_3_);}
	.st43{fill:#FFDE17;}
	.st44{fill:#FFCC00;}
	.st45{fill:#E6EDFC;}
	.st46{fill:#D7E2F4;}
	.st47{fill:#444A7C;}
	.st48{fill:#262A41;}
	.st49{fill:none;stroke:#FFFFFF;stroke-width:0.6671;stroke-miterlimit:10;}
	.st50{fill:#85D2F9;}
	.st51{fill:none;stroke:#FFFFFF;stroke-width:0.3254;stroke-miterlimit:10;}
	.st52{fill:none;stroke:#FFFFFF;stroke-width:0.3254;stroke-miterlimit:10;stroke-dasharray:1.2826,1.2826;}
	.st53{fill:none;stroke:#FFFFFF;stroke-width:0.3254;stroke-miterlimit:10;stroke-dasharray:1.2776,1.2776;}
	.st54{fill:#8391FC;stroke:#FFFFFF;stroke-width:0.3254;stroke-miterlimit:10;}
	.st55{opacity:0.8;fill:#444A7C;}
	.st56{opacity:0.8;fill:#8391FC;}
	.st57{fill:#8391FC;}
	.st58{fill:none;stroke:#FFFFFF;stroke-width:1.0422;stroke-miterlimit:10;}
	.st59{fill:none;stroke:#C8D0FC;stroke-width:0.2605;stroke-miterlimit:10;}
	.st60{fill:none;stroke:#FFFFFF;stroke-width:0.2605;stroke-linecap:round;stroke-miterlimit:10;}
	.st61{fill:none;stroke:#FFFFFF;stroke-width:0.5211;stroke-miterlimit:10;}
	.st62{fill:#E5E1F9;}
	.st63{fill:#7683E1;}
	.st64{fill:#E8A398;}
	.st65{fill:#C3D3EA;}
	.st66{fill:none;stroke:#E8B1C3;stroke-width:1.9735;stroke-miterlimit:10;}
	.st67{fill:#7481B2;}
	.st68{fill:#545C8C;}
	.st69{fill:#ECECEC;}
	.st70{fill:#F0F0F0;}
	.st71{fill:#F5F5F5;}
	.st72{fill:#E7E7E7;}
	.st73{fill:#FAFAFA;}
	.st74{opacity:0.4;fill:#E7E7E7;}
	.st75{fill:#E1E1E1;}
	.st76{fill:#007CFF;}
	.st77{opacity:0.2;fill:#FFFFFF;}
	.st78{opacity:0.2;}
	.st79{opacity:0.6;fill:#FFFFFF;}
	.st80{opacity:0.3;}
	.st81{fill:#1A2E35;}
	.st82{opacity:0.4;fill:#FFFFFF;}
	.st83{fill:#CD5B51;}
	.st84{fill:#BA221F;}
	.st85{opacity:0.4;}
	.st86{fill:#1A4175;}
	.st87{fill:#1674BA;}
	.st88{fill-rule:evenodd;clip-rule:evenodd;fill:#389CCF;}
	.st89{fill:url(#XMLID_6_);}
	.st90{fill-rule:evenodd;clip-rule:evenodd;fill:#1674BA;}
	.st91{fill:#1B75BB;}
	.st92{clip-path:url(#SVGID_6_);}
	.st93{clip-path:url(#SVGID_7_);}
	.st94{filter:url(#Adobe_OpacityMaskFilter);}
	.st95{filter:url(#Adobe_OpacityMaskFilter_1_);}
	.st96{mask:url(#SVGID_8_);fill:url(#SVGID_9_);}
	.st97{opacity:0.3;fill:#ADBCFF;}
	.st98{filter:url(#Adobe_OpacityMaskFilter_2_);}
	.st99{filter:url(#Adobe_OpacityMaskFilter_3_);}
	.st100{mask:url(#SVGID_10_);fill:url(#SVGID_11_);}
	.st101{opacity:0.7;fill:#E6EDFC;}
	.st102{fill:none;stroke:#1A2E35;stroke-width:2;stroke-miterlimit:10;}
	.st103{fill:none;stroke:#1A2E35;stroke-linecap:round;stroke-linejoin:round;stroke-miterlimit:10;}
	.st104{opacity:0.44;fill:#FFFFFF;}
	.st105{fill:none;stroke:#FFFFFF;stroke-miterlimit:10;}
	.st106{fill:none;stroke:#1A2E35;stroke-width:0.5;stroke-miterlimit:10;}
	.st107{fill:#FFFFFF;stroke:#1A2E35;stroke-width:0.5;stroke-miterlimit:10;}
	.st108{fill:#1A2E35;stroke:#1A2E35;stroke-linecap:round;stroke-linejoin:round;stroke-miterlimit:10;}
	.st109{fill:#FFFFFF;stroke:#1A2E35;stroke-linecap:round;stroke-linejoin:round;stroke-miterlimit:10;}
	.st110{fill:#808080;stroke:#1A2E35;stroke-linecap:round;stroke-linejoin:round;stroke-miterlimit:10;}
	.st111{fill:#B0B0D9;}
	.st112{fill:#B0B0D9;stroke:#1A2E35;stroke-linecap:round;stroke-linejoin:round;stroke-miterlimit:10;}
	.st113{opacity:0.2;clip-path:url(#XMLID_7_);fill:#404773;}
	.st114{fill:#AAFF00;}
	.st115{opacity:0.2;clip-path:url(#XMLID_8_);fill:#8383C9;}
	.st116{opacity:0.2;clip-path:url(#XMLID_9_);}
	.st117{clip-path:url(#XMLID_10_);fill:none;stroke:#1A2E35;stroke-linecap:round;stroke-linejoin:round;stroke-miterlimit:10;}
	.st118{clip-path:url(#XMLID_11_);}
	.st119{fill:#575757;}
	.st120{fill:none;stroke:#575757;stroke-miterlimit:10;}
	.st121{filter:url(#Adobe_OpacityMaskFilter_4_);}
	.st122{filter:url(#Adobe_OpacityMaskFilter_5_);}
	.st123{mask:url(#SVGID_12_);fill:url(#SVGID_13_);}
	.st124{fill:#939AA3;}
	.st125{fill:#404773;}
	.st126{fill:#EEA886;}
	.st127{fill:#C5CDDB;}
	.st128{fill:#E55353;}
	.st129{fill:#434343;}
	.st130{fill:#282C47;}
	.st131{fill:#525252;}
	.st132{fill:#EDDAD3;}
	.st133{fill:#A77860;}
	.st134{fill:url(#SVGID_14_);}
	.st135{fill:#7A7AB5;}
	.st136{fill:url(#SVGID_15_);}
	.st137{fill:url(#SVGID_16_);}
	.st138{fill:#2A2E4A;}
	.st139{fill:url(#SVGID_17_);}
	.st140{fill:#626EB0;}
	.st141{opacity:0.72;fill:#D9D9D9;}
	.st142{fill:#8383C9;}
	.st143{enable-background:new    ;}
	.st144{fill:url(#SVGID_18_);}
	.st145{fill:url(#SVGID_19_);}
	.st146{fill:url(#SVGID_20_);}
	.st147{opacity:0.8;}
	.st148{opacity:0;fill:#D7C8FF;}
	.st149{opacity:6.369427e-03;fill:#D6C7FE;}
	.st150{opacity:0.0127;fill:#D5C6FE;}
	.st151{opacity:0.0191;fill:#D4C6FD;}
	.st152{opacity:0.0255;fill:#D3C5FC;}
	.st153{opacity:0.0318;fill:#D2C4FB;}
	.st154{opacity:0.0382;fill:#D1C3FB;}
	.st155{opacity:0.0446;fill:#D0C3FA;}
	.st156{opacity:0.051;fill:#CFC2F9;}
	.st157{opacity:0.0573;fill:#CEC1F9;}
	.st158{opacity:0.0637;fill:#CDC0F8;}
	.st159{opacity:0.0701;fill:#CCC0F7;}
	.st160{opacity:0.0764;fill:#CBBFF6;}
	.st161{opacity:0.0828;fill:#CABEF6;}
	.st162{opacity:0.0892;fill:#C9BDF5;}
	.st163{opacity:0.0955;fill:#C8BDF4;}
	.st164{opacity:0.1019;fill:#C7BCF3;}
	.st165{opacity:0.1083;fill:#C6BBF3;}
	.st166{opacity:0.1146;fill:#C5BAF2;}
	.st167{opacity:0.121;fill:#C4B9F1;}
	.st168{opacity:0.1274;fill:#C3B9F1;}
	.st169{opacity:0.1338;fill:#C2B8F0;}
	.st170{opacity:0.1401;fill:#C1B7EF;}
	.st171{opacity:0.1465;fill:#C0B6EE;}
	.st172{opacity:0.1529;fill:#BFB6EE;}
	.st173{opacity:0.1592;fill:#BEB5ED;}
	.st174{opacity:0.1656;fill:#BDB4EC;}
	.st175{opacity:0.172;fill:#BCB3EC;}
	.st176{opacity:0.1783;fill:#BBB3EB;}
	.st177{opacity:0.1847;fill:#BAB2EA;}
	.st178{opacity:0.1911;fill:#B9B1E9;}
	.st179{opacity:0.1975;fill:#B8B0E9;}
	.st180{opacity:0.2038;fill:#B7B0E8;}
	.st181{opacity:0.2102;fill:#B6AFE7;}
	.st182{opacity:0.2166;fill:#B5AEE7;}
	.st183{opacity:0.2229;fill:#B4ADE6;}
	.st184{opacity:0.2293;fill:#B3ACE5;}
	.st185{opacity:0.2357;fill:#B2ACE4;}
	.st186{opacity:0.242;fill:#B1ABE4;}
	.st187{opacity:0.2484;fill:#B0AAE3;}
	.st188{opacity:0.2548;fill:#AFA9E2;}
	.st189{opacity:0.2611;fill:#AEA9E1;}
	.st190{opacity:0.2675;fill:#ADA8E1;}
	.st191{opacity:0.2739;fill:#ACA7E0;}
	.st192{opacity:0.2803;fill:#ABA6DF;}
	.st193{opacity:0.2866;fill:#AAA6DF;}
	.st194{opacity:0.293;fill:#A9A5DE;}
	.st195{opacity:0.2994;fill:#A8A4DD;}
	.st196{opacity:0.3057;fill:#A7A3DC;}
	.st197{opacity:0.3121;fill:#A6A3DC;}
	.st198{opacity:0.3185;fill:#A5A2DB;}
	.st199{opacity:0.3248;fill:#A4A1DA;}
	.st200{opacity:0.3312;fill:#A3A0DA;}
	.st201{opacity:0.3376;fill:#A29FD9;}
	.st202{opacity:0.3439;fill:#A19FD8;}
	.st203{opacity:0.3503;fill:#A09ED7;}
	.st204{opacity:0.3567;fill:#9F9DD7;}
	.st205{opacity:0.3631;fill:#9E9CD6;}
	.st206{opacity:0.3694;fill:#9D9CD5;}
	.st207{opacity:0.3758;fill:#9C9BD5;}
	.st208{opacity:0.3822;fill:#9B9AD4;}
	.st209{opacity:0.3885;fill:#9A99D3;}
	.st210{opacity:0.3949;fill:#9999D2;}
	.st211{opacity:0.4013;fill:#9898D2;}
	.st212{opacity:0.4076;fill:#9797D1;}
	.st213{opacity:0.414;fill:#9696D0;}
	.st214{opacity:0.4204;fill:#9596CF;}
	.st215{opacity:0.4268;fill:#9495CF;}
	.st216{opacity:0.4331;fill:#9394CE;}
	.st217{opacity:0.4395;fill:#9293CD;}
	.st218{opacity:0.4459;fill:#9192CD;}
	.st219{opacity:0.4522;fill:#9092CC;}
	.st220{opacity:0.4586;fill:#8F91CB;}
	.st221{opacity:0.465;fill:#8E90CA;}
	.st222{opacity:0.4713;fill:#8D8FCA;}
	.st223{opacity:0.4777;fill:#8C8FC9;}
	.st224{opacity:0.4841;fill:#8B8EC8;}
	.st225{opacity:0.4904;fill:#8A8DC8;}
	.st226{opacity:0.4968;fill:#898CC7;}
	.st227{opacity:0.5032;fill:#888CC6;}
	.st228{opacity:0.5096;fill:#878BC5;}
	.st229{opacity:0.5159;fill:#868AC5;}
	.st230{opacity:0.5223;fill:#8589C4;}
	.st231{opacity:0.5287;fill:#8489C3;}
	.st232{opacity:0.535;fill:#8388C3;}
	.st233{opacity:0.5414;fill:#8287C2;}
	.st234{opacity:0.5478;fill:#8186C1;}
	.st235{opacity:0.5541;fill:#8086C0;}
	.st236{opacity:0.5605;fill:#7F85C0;}
	.st237{opacity:0.5669;fill:#7E84BF;}
	.st238{opacity:0.5732;fill:#7D83BE;}
	.st239{opacity:0.5796;fill:#7C82BE;}
	.st240{opacity:0.586;fill:#7B82BD;}
	.st241{opacity:0.5924;fill:#7A81BC;}
	.st242{opacity:0.5987;fill:#7980BB;}
	.st243{opacity:0.6051;fill:#787FBB;}
	.st244{opacity:0.6115;fill:#777FBA;}
	.st245{opacity:0.6178;fill:#767EB9;}
	.st246{opacity:0.6242;fill:#757DB8;}
	.st247{opacity:0.6306;fill:#747CB8;}
	.st248{opacity:0.6369;fill:#737CB7;}
	.st249{opacity:0.6433;fill:#727BB6;}
	.st250{opacity:0.6497;fill:#717AB6;}
	.st251{opacity:0.6561;fill:#7079B5;}
	.st252{opacity:0.6624;fill:#6F79B4;}
	.st253{opacity:0.6688;fill:#6E78B3;}
	.st254{opacity:0.6752;fill:#6D77B3;}
	.st255{opacity:0.6815;fill:#6C76B2;}
	.st256{opacity:0.6879;fill:#6B75B1;}
	.st257{opacity:0.6943;fill:#6A75B1;}
	.st258{opacity:0.7006;fill:#6974B0;}
	.st259{opacity:0.707;fill:#6873AF;}
	.st260{opacity:0.7134;fill:#6772AE;}
	.st261{opacity:0.7197;fill:#6672AE;}
	.st262{opacity:0.7261;fill:#6571AD;}
	.st263{opacity:0.7325;fill:#6470AC;}
	.st264{opacity:0.7389;fill:#636FAC;}
	.st265{opacity:0.7452;fill:#626FAB;}
	.st266{opacity:0.7516;fill:#616EAA;}
	.st267{opacity:0.758;fill:#606DA9;}
	.st268{opacity:0.7643;fill:#5F6CA9;}
	.st269{opacity:0.7707;fill:#5E6CA8;}
	.st270{opacity:0.7771;fill:#5D6BA7;}
	.st271{opacity:0.7834;fill:#5C6AA6;}
	.st272{opacity:0.7898;fill:#5B69A6;}
	.st273{opacity:0.7962;fill:#5A68A5;}
	.st274{opacity:0.8025;fill:#5968A4;}
	.st275{opacity:0.8089;fill:#5867A4;}
	.st276{opacity:0.8153;fill:#5766A3;}
	.st277{opacity:0.8217;fill:#5665A2;}
	.st278{opacity:0.828;fill:#5565A1;}
	.st279{opacity:0.8344;fill:#5464A1;}
	.st280{opacity:0.8408;fill:#5363A0;}
	.st281{opacity:0.8471;fill:#52629F;}
	.st282{opacity:0.8535;fill:#51629F;}
	.st283{opacity:0.8599;fill:#50619E;}
	.st284{opacity:0.8662;fill:#4F609D;}
	.st285{opacity:0.8726;fill:#4E5F9C;}
	.st286{opacity:0.879;fill:#4D5F9C;}
	.st287{opacity:0.8854;fill:#4C5E9B;}
	.st288{opacity:0.8917;fill:#4B5D9A;}
	.st289{opacity:0.8981;fill:#4A5C9A;}
	.st290{opacity:0.9045;fill:#495B99;}
	.st291{opacity:0.9108;fill:#485B98;}
	.st292{opacity:0.9172;fill:#475A97;}
	.st293{opacity:0.9236;fill:#465997;}
	.st294{opacity:0.9299;fill:#455896;}
	.st295{opacity:0.9363;fill:#445895;}
	.st296{opacity:0.9427;fill:#435794;}
	.st297{opacity:0.949;fill:#425694;}
	.st298{opacity:0.9554;fill:#415593;}
	.st299{opacity:0.9618;fill:#405592;}
	.st300{opacity:0.9682;fill:#3F5492;}
	.st301{opacity:0.9745;fill:#3E5391;}
	.st302{opacity:0.9809;fill:#3D5290;}
	.st303{opacity:0.9873;fill:#3C528F;}
	.st304{opacity:0.9936;fill:#3B518F;}
	.st305{fill:#3A508E;}
	.st306{clip-path:url(#SVGID_22_);enable-background:new    ;}
	.st307{fill:#70166B;}
	.st308{fill:#74176F;}
	.st309{fill:#781873;}
	.st310{fill:#7D1977;}
	.st311{fill:#811A7B;}
	.st312{fill:#851B7F;}
	.st313{fill:#8A1C83;}
	.st314{fill:#8E1C87;}
	.st315{fill:#921D8B;}
	.st316{clip-path:url(#SVGID_24_);enable-background:new    ;}
	.st317{fill:#616B85;}
	.st318{fill:#656F8A;}
	.st319{fill:#69738F;}
	.st320{fill:#6C7794;}
	.st321{fill:#707B99;}
	.st322{fill:#747F9E;}
	.st323{fill:#7883A3;}
	.st324{fill:#7B87A8;}
	.st325{fill:#7F8BAD;}
	.st326{clip-path:url(#SVGID_26_);enable-background:new    ;}
	.st327{fill:#9D1F95;}
	.st328{clip-path:url(#SVGID_28_);enable-background:new    ;}
	.st329{clip-path:url(#SVGID_30_);enable-background:new    ;}
	.st330{fill:#767385;}
	.st331{fill:#6C1667;}
	.st332{clip-path:url(#SVGID_32_);enable-background:new    ;}
	.st333{fill:#7C798C;}
	.st334{clip-path:url(#SVGID_34_);enable-background:new    ;}
	.st335{fill:#918DA3;}
	.st336{fill:#9592A8;}
	.st337{fill:#9A96AD;}
	.st338{fill:#8C899E;}
	.st339{fill:#888599;}
	.st340{fill:#838094;}
	.st341{fill:#7F7C8F;}
	.st342{fill:#7A778A;}
	.st343{fill:url(#SVGID_35_);}
	.st344{fill:url(#SVGID_36_);}
	.st345{fill:url(#SVGID_37_);}
	.st346{fill:url(#SVGID_38_);}
	.st347{fill:url(#SVGID_39_);}
	.st348{opacity:0;fill:#012B7E;}
	.st349{opacity:0.0278;fill:#012B7E;}
	.st350{opacity:0.0556;fill:#012B7E;}
	.st351{opacity:0.0833;fill:#012B7E;}
	.st352{opacity:0.1111;fill:#012B7E;}
	.st353{opacity:0.1389;fill:#012B7E;}
	.st354{opacity:0.1667;fill:#012B7E;}
	.st355{opacity:0.1944;fill:#012B7E;}
	.st356{opacity:0.2222;fill:#012B7E;}
	.st357{opacity:0.25;fill:#012B7E;}
	.st358{opacity:0.2778;fill:#012B7E;}
	.st359{opacity:0.3056;fill:#012B7E;}
	.st360{opacity:0.3333;fill:#012B7E;}
	.st361{opacity:0.3611;fill:#012B7E;}
	.st362{opacity:0.3889;fill:#012B7E;}
	.st363{opacity:0.4167;fill:#012B7E;}
	.st364{opacity:0.4444;fill:#012B7E;}
	.st365{opacity:0.4722;fill:#012B7E;}
	.st366{opacity:0.5;fill:#012B7E;}
	.st367{opacity:0.5278;fill:#012B7E;}
	.st368{opacity:0.5556;fill:#012B7E;}
	.st369{opacity:0.5833;fill:#012B7E;}
	.st370{opacity:0.6111;fill:#012B7E;}
	.st371{opacity:0.6389;fill:#012B7E;}
	.st372{opacity:0.6667;fill:#012B7E;}
	.st373{opacity:0.6944;fill:#012B7E;}
	.st374{opacity:0.7222;fill:#012B7E;}
	.st375{opacity:0.75;fill:#012B7E;}
	.st376{opacity:0.7778;fill:#012B7E;}
	.st377{opacity:0.8056;fill:#012B7E;}
	.st378{opacity:0.8333;fill:#012B7E;}
	.st379{opacity:0.8611;fill:#012B7E;}
	.st380{opacity:0.8889;fill:#012B7E;}
	.st381{opacity:0.9167;fill:#012B7E;}
	.st382{opacity:0.9444;fill:#012B7E;}
	.st383{opacity:0.9722;fill:#012B7E;}
	.st384{fill:#012B7E;}
	.st385{fill:url(#SVGID_40_);}
	.st386{fill:url(#SVGID_41_);}
	.st387{fill:url(#SVGID_42_);}
	.st388{fill:url(#SVGID_43_);}
	.st389{fill:url(#SVGID_44_);}
	.st390{fill:url(#SVGID_45_);}
	.st391{fill:url(#SVGID_46_);}
	.st392{fill:url(#SVGID_47_);}
	.st393{clip-path:url(#SVGID_49_);}
	.st394{fill:#412121;}
	.st395{fill:#87A8DC;}
	.st396{opacity:0.8;clip-path:url(#SVGID_49_);}
	.st397{opacity:0.7;}
	.st398{fill:url(#SVGID_50_);}
	.st399{fill:url(#SVGID_51_);}
	.st400{fill:url(#SVGID_52_);}
	.st401{fill:url(#SVGID_53_);}
	.st402{fill:url(#SVGID_54_);}
	.st403{fill:url(#SVGID_55_);}
	.st404{opacity:0;fill:#BECBF7;}
	.st405{opacity:0.0108;fill:#BDCAF6;}
	.st406{opacity:0.0215;fill:#BBC8F5;}
	.st407{opacity:0.0323;fill:#BAC7F4;}
	.st408{opacity:0.043;fill:#B8C6F2;}
	.st409{opacity:0.0538;fill:#B7C4F1;}
	.st410{opacity:0.0645;fill:#B5C3F0;}
	.st411{opacity:0.0753;fill:#B4C2EF;}
	.st412{opacity:0.086;fill:#B3C0EE;}
	.st413{opacity:0.0968;fill:#B1BFED;}
	.st414{opacity:0.1075;fill:#B0BEEC;}
	.st415{opacity:0.1183;fill:#AEBCEB;}
	.st416{opacity:0.129;fill:#ADBBE9;}
	.st417{opacity:0.1398;fill:#ACBAE8;}
	.st418{opacity:0.1505;fill:#AAB8E7;}
	.st419{opacity:0.1613;fill:#A9B7E6;}
	.st420{opacity:0.172;fill:#A7B6E5;}
	.st421{opacity:0.1828;fill:#A6B5E4;}
	.st422{opacity:0.1935;fill:#A4B3E3;}
	.st423{opacity:0.2043;fill:#A3B2E2;}
	.st424{opacity:0.2151;fill:#A2B1E0;}
	.st425{opacity:0.2258;fill:#A0AFDF;}
	.st426{opacity:0.2366;fill:#9FAEDE;}
	.st427{opacity:0.2473;fill:#9DADDD;}
	.st428{opacity:0.2581;fill:#9CABDC;}
	.st429{opacity:0.2688;fill:#9BAADB;}
	.st430{opacity:0.2796;fill:#99A9DA;}
	.st431{opacity:0.2903;fill:#98A7D9;}
	.st432{opacity:0.3011;fill:#96A6D7;}
	.st433{opacity:0.3118;fill:#95A5D6;}
	.st434{opacity:0.3226;fill:#93A3D5;}
	.st435{opacity:0.3333;fill:#92A2D4;}
	.st436{opacity:0.3441;fill:#91A1D3;}
	.st437{opacity:0.3548;fill:#8F9FD2;}
	.st438{opacity:0.3656;fill:#8E9ED1;}
	.st439{opacity:0.3763;fill:#8C9DCF;}
	.st440{opacity:0.3871;fill:#8B9BCE;}
	.st441{opacity:0.3978;fill:#899ACD;}
	.st442{opacity:0.4086;fill:#8899CC;}
	.st443{opacity:0.4194;fill:#8797CB;}
	.st444{opacity:0.4301;fill:#8596CA;}
	.st445{opacity:0.4409;fill:#8495C9;}
	.st446{opacity:0.4516;fill:#8293C8;}
	.st447{opacity:0.4624;fill:#8192C6;}
	.st448{opacity:0.4731;fill:#8091C5;}
	.st449{opacity:0.4839;fill:#7E8FC4;}
	.st450{opacity:0.4946;fill:#7D8EC3;}
	.st451{opacity:0.5054;fill:#7B8DC2;}
	.st452{opacity:0.5161;fill:#7A8CC1;}
	.st453{opacity:0.5269;fill:#788AC0;}
	.st454{opacity:0.5376;fill:#7789BF;}
	.st455{opacity:0.5484;fill:#7688BD;}
	.st456{opacity:0.5591;fill:#7486BC;}
	.st457{opacity:0.5699;fill:#7385BB;}
	.st458{opacity:0.5806;fill:#7184BA;}
	.st459{opacity:0.5914;fill:#7082B9;}
	.st460{opacity:0.6022;fill:#6F81B8;}
	.st461{opacity:0.6129;fill:#6D80B7;}
	.st462{opacity:0.6237;fill:#6C7EB6;}
	.st463{opacity:0.6344;fill:#6A7DB4;}
	.st464{opacity:0.6452;fill:#697CB3;}
	.st465{opacity:0.6559;fill:#677AB2;}
	.st466{opacity:0.6667;fill:#6679B1;}
	.st467{opacity:0.6774;fill:#6578B0;}
	.st468{opacity:0.6882;fill:#6376AF;}
	.st469{opacity:0.6989;fill:#6275AE;}
	.st470{opacity:0.7097;fill:#6074AC;}
	.st471{opacity:0.7204;fill:#5F72AB;}
	.st472{opacity:0.7312;fill:#5D71AA;}
	.st473{opacity:0.7419;fill:#5C70A9;}
	.st474{opacity:0.7527;fill:#5B6EA8;}
	.st475{opacity:0.7634;fill:#596DA7;}
	.st476{opacity:0.7742;fill:#586CA6;}
	.st477{opacity:0.7849;fill:#566AA5;}
	.st478{opacity:0.7957;fill:#5569A3;}
	.st479{opacity:0.8065;fill:#5468A2;}
	.st480{opacity:0.8172;fill:#5266A1;}
	.st481{opacity:0.828;fill:#5165A0;}
	.st482{opacity:0.8387;fill:#4F649F;}
	.st483{opacity:0.8495;fill:#4E639E;}
	.st484{opacity:0.8602;fill:#4C619D;}
	.st485{opacity:0.871;fill:#4B609C;}
	.st486{opacity:0.8817;fill:#4A5F9A;}
	.st487{opacity:0.8925;fill:#485D99;}
	.st488{opacity:0.9032;fill:#475C98;}
	.st489{opacity:0.914;fill:#455B97;}
	.st490{opacity:0.9247;fill:#445996;}
	.st491{opacity:0.9355;fill:#435895;}
	.st492{opacity:0.9462;fill:#415794;}
	.st493{opacity:0.957;fill:#405593;}
	.st494{opacity:0.9677;fill:#3E5491;}
	.st495{opacity:0.9785;fill:#3D5390;}
	.st496{opacity:0.9892;fill:#3B518F;}
	.st497{fill:url(#SVGID_56_);}
	.st498{fill:url(#SVGID_57_);}
	.st499{fill:url(#SVGID_58_);}
	.st500{fill:url(#SVGID_59_);}
	.st501{fill:url(#SVGID_60_);}
	.st502{clip-path:url(#SVGID_62_);}
	.st503{fill:#FA4542;}
	.st504{opacity:0.8;clip-path:url(#SVGID_62_);}
	.st505{fill:url(#SVGID_63_);}
	.st506{fill:url(#SVGID_64_);}
	.st507{opacity:0.7;fill:url(#SVGID_65_);}
	.st508{fill:url(#SVGID_66_);}
	.st509{fill:url(#SVGID_67_);}
	.st510{clip-path:url(#SVGID_69_);}
	.st511{fill:#1479DA;}
	.st512{opacity:0.8;clip-path:url(#SVGID_69_);}
	.st513{fill:url(#SVGID_70_);}
	.st514{clip-path:url(#SVGID_72_);}
	.st515{fill:#1278DA;}
	.st516{opacity:0.8;clip-path:url(#SVGID_72_);}
	.st517{fill:url(#SVGID_73_);}
	.st518{clip-path:url(#SVGID_75_);}
	.st519{fill:#127ADB;}
	.st520{opacity:0.8;clip-path:url(#SVGID_75_);}
	.st521{fill:url(#SVGID_76_);}
	.st522{clip-path:url(#SVGID_78_);}
	.st523{opacity:0.8;clip-path:url(#SVGID_78_);}
	.st524{fill:url(#SVGID_79_);}
	.st525{clip-path:url(#SVGID_81_);}
	.st526{fill:url(#SVGID_82_);}
	.st527{fill:url(#SVGID_83_);}
	.st528{opacity:0.8;clip-path:url(#SVGID_81_);}
	.st529{fill:url(#SVGID_84_);}
	.st530{clip-path:url(#SVGID_86_);}
	.st531{fill:#187FDF;}
	.st532{opacity:0.8;clip-path:url(#SVGID_86_);}
	.st533{fill:url(#SVGID_87_);}
	.st534{clip-path:url(#SVGID_89_);}
	.st535{fill:#0E70D3;}
	.st536{opacity:0.8;clip-path:url(#SVGID_89_);}
	.st537{fill:url(#SVGID_90_);}
	.st538{clip-path:url(#SVGID_92_);fill:#FFFFFF;}
	.st539{clip-path:url(#SVGID_92_);fill:#0071C1;}
	.st540{opacity:0.8;clip-path:url(#SVGID_92_);}
	.st541{clip-path:url(#SVGID_92_);}
	.st542{opacity:0.7;fill:#8B7BC8;}
	.st543{fill:url(#SVGID_93_);}
	.st544{fill:url(#SVGID_94_);}
	.st545{fill:#003B64;}
	.st546{fill:#003D68;}
	.st547{fill:url(#SVGID_95_);}
	.st548{opacity:0.7;fill:url(#SVGID_96_);}
	.st549{fill:url(#SVGID_97_);}
	.st550{fill:url(#SVGID_98_);}
	.st551{clip-path:url(#SVGID_100_);}
	.st552{opacity:0.8;clip-path:url(#SVGID_100_);}
	.st553{fill:url(#SVGID_101_);}
	.st554{fill:url(#SVGID_102_);}
	.st555{fill:url(#SVGID_103_);}
	.st556{fill:url(#SVGID_104_);}
	.st557{fill:url(#SVGID_105_);}
	.st558{opacity:0.7;fill:url(#SVGID_106_);}
	.st559{fill:url(#SVGID_107_);}
	.st560{fill:url(#SVGID_108_);}
	.st561{fill:url(#SVGID_109_);}
	.st562{fill:url(#SVGID_110_);}
	.st563{fill:url(#SVGID_111_);}
	.st564{fill:url(#SVGID_112_);}
	.st565{opacity:0.7;fill:url(#SVGID_113_);}
	.st566{fill:url(#SVGID_114_);}
	.st567{clip-path:url(#SVGID_116_);fill:#FF3B62;}
	.st568{clip-path:url(#SVGID_116_);fill:#412121;}
	.st569{clip-path:url(#SVGID_116_);fill:#FFFFFF;}
	.st570{opacity:0.8;clip-path:url(#SVGID_116_);}
	.st571{clip-path:url(#SVGID_116_);}
	.st572{fill:url(#SVGID_117_);}
	.st573{fill:url(#SVGID_118_);}
	.st574{opacity:0;fill:#3A508E;}
	.st575{opacity:0.02;fill:#3A508E;}
	.st576{opacity:0.04;fill:#3A508E;}
	.st577{opacity:0.06;fill:#3A508E;}
	.st578{opacity:0.08;fill:#3A508E;}
	.st579{opacity:0.1;fill:#3A508E;}
	.st580{opacity:0.12;fill:#3A508E;}
	.st581{opacity:0.14;fill:#3A508E;}
	.st582{opacity:0.16;fill:#3A508E;}
	.st583{opacity:0.18;fill:#3A508E;}
	.st584{opacity:0.2;fill:#3A508E;}
	.st585{opacity:0.22;fill:#3A508E;}
	.st586{opacity:0.24;fill:#3A508E;}
	.st587{opacity:0.26;fill:#3A508E;}
	.st588{opacity:0.28;fill:#3A508E;}
	.st589{opacity:0.3;fill:#3A508E;}
	.st590{opacity:0.32;fill:#3A508E;}
	.st591{opacity:0.34;fill:#3A508E;}
	.st592{opacity:0.36;fill:#3A508E;}
	.st593{opacity:0.38;fill:#3A508E;}
	.st594{opacity:0.4;fill:#3A508E;}
	.st595{opacity:0.42;fill:#3A508E;}
	.st596{opacity:0.44;fill:#3A508E;}
	.st597{opacity:0.46;fill:#3A508E;}
	.st598{opacity:0.48;fill:#3A508E;}
	.st599{opacity:0.5;fill:#3A508E;}
	.st600{opacity:0.52;fill:#3A508E;}
	.st601{opacity:0.54;fill:#3A508E;}
	.st602{opacity:0.56;fill:#3A508E;}
	.st603{opacity:0.58;fill:#3A508E;}
	.st604{opacity:0.6;fill:#3A508E;}
	.st605{opacity:0.62;fill:#3A508E;}
	.st606{opacity:0.64;fill:#3A508E;}
	.st607{opacity:0.66;fill:#3A508E;}
	.st608{opacity:0.68;fill:#3A508E;}
	.st609{opacity:0.7;fill:#3A508E;}
	.st610{opacity:0.72;fill:#3A508E;}
	.st611{opacity:0.74;fill:#3A508E;}
	.st612{opacity:0.76;fill:#3A508E;}
	.st613{opacity:0.78;fill:#3A508E;}
	.st614{opacity:0.8;fill:#3A508E;}
	.st615{opacity:0.82;fill:#3A508E;}
	.st616{opacity:0.84;fill:#3A508E;}
	.st617{opacity:0.86;fill:#3A508E;}
	.st618{opacity:0.88;fill:#3A508E;}
	.st619{opacity:0.9;fill:#3A508E;}
	.st620{opacity:0.92;fill:#3A508E;}
	.st621{opacity:0.94;fill:#3A508E;}
	.st622{opacity:0.96;fill:#3A508E;}
	.st623{opacity:0.98;fill:#3A508E;}
	.st624{fill:url(#SVGID_119_);}
	.st625{fill:url(#SVGID_120_);}
	.st626{clip-path:url(#SVGID_122_);}
	.st627{fill:url(#SVGID_123_);}
	.st628{fill:url(#SVGID_124_);}
	.st629{clip-path:url(#SVGID_126_);}
	.st630{fill:url(#SVGID_127_);}
	.st631{fill:url(#SVGID_128_);}
	.st632{fill:url(#SVGID_129_);}
</style>
<g>
	<g>
		<rect x="30.24" y="499.82" class="st69" width="639.52" height="0.32"/>
		<rect x="198.4" y="519.55" class="st69" width="42.36" height="0.32"/>
		<rect x="350.19" y="516.08" class="st69" width="11.12" height="0.32"/>
		<rect x="97.34" y="510.68" class="st69" width="24.55" height="0.32"/>
		<rect x="528.68" y="508.53" class="st69" width="33.36" height="0.32"/>
		<rect x="487.3" y="508.53" class="st69" width="29.99" height="0.32"/>
		<rect x="485.87" y="523.88" class="st69" width="119.82" height="0.32"/>
		<path class="st69" d="M333.39,442.78H86.41c-4.03,0-7.3-3.27-7.3-7.3V88.3c0-4.03,3.28-7.3,7.3-7.3h246.98
			c4.02,0,7.3,3.28,7.3,7.3v347.17C340.69,439.5,337.41,442.78,333.39,442.78z M86.41,81.32c-3.85,0-6.98,3.13-6.98,6.98v347.17
			c0,3.85,3.13,6.98,6.98,6.98h246.98c3.85,0,6.98-3.13,6.98-6.98V88.3c0-3.85-3.13-6.98-6.98-6.98H86.41z"/>
		<path class="st69" d="M610.04,442.78H363.06c-4.02,0-7.3-3.27-7.3-7.3V88.3c0-4.03,3.27-7.3,7.3-7.3h246.98
			c4.03,0,7.3,3.28,7.3,7.3v347.17C617.34,439.5,614.07,442.78,610.04,442.78z M363.06,81.32c-3.85,0-6.98,3.13-6.98,6.98v347.17
			c0,3.85,3.13,6.98,6.98,6.98h246.98c3.85,0,6.98-3.13,6.98-6.98V88.3c0-3.85-3.13-6.98-6.98-6.98H363.06z"/>
	</g>
	<g>
		<g>
			<g>
				
					<rect x="437.75" y="364.22" transform="matrix(-1 -1.224647e-16 1.224647e-16 -1 905.6246 860.2307)" class="st70" width="30.13" height="131.79"/>
				
					<rect x="329.46" y="496.01" transform="matrix(-1 -1.224647e-16 1.224647e-16 -1 791.5547 995.8298)" class="st70" width="132.63" height="3.81"/>
				<rect x="323.68" y="364.22" class="st71" width="114.07" height="131.79"/>
				<rect x="335.52" y="371.62" class="st70" width="90.38" height="55.56"/>
				<rect x="335.52" y="433.06" class="st70" width="90.38" height="55.56"/>
				<path class="st71" d="M404.14,381.29h-46.86c-6.14,0-11.11-4.97-11.11-11.11l0,0h69.08l0,0
					C415.25,376.32,410.28,381.29,404.14,381.29z"/>
				<path class="st71" d="M404.14,442.73h-46.86c-6.14,0-11.11-4.97-11.11-11.11l0,0h69.08l0,0
					C415.25,437.76,410.28,442.73,404.14,442.73z"/>
			</g>
		</g>
		<g>
			<g>
				
					<rect x="560.76" y="364.22" transform="matrix(-1 -1.224647e-16 1.224647e-16 -1 1151.6494 860.2307)" class="st70" width="30.13" height="131.79"/>
				
					<rect x="452.48" y="496.01" transform="matrix(-1 -1.224647e-16 1.224647e-16 -1 1037.5796 995.8298)" class="st70" width="132.63" height="3.81"/>
				<rect x="446.69" y="364.22" class="st71" width="114.07" height="131.79"/>
				<rect x="458.54" y="371.62" class="st70" width="90.38" height="55.56"/>
				<rect x="458.54" y="433.06" class="st70" width="90.38" height="55.56"/>
				<path class="st71" d="M527.15,381.29H480.3c-6.14,0-11.11-4.97-11.11-11.11l0,0h69.08l0,0
					C538.27,376.32,533.29,381.29,527.15,381.29z"/>
				<path class="st71" d="M527.15,442.73H480.3c-6.14,0-11.11-4.97-11.11-11.11l0,0h69.08l0,0
					C538.27,437.76,533.29,442.73,527.15,442.73z"/>
			</g>
		</g>
	</g>
	<g>
		
			<rect x="172.75" y="127.51" transform="matrix(-1 -1.224647e-16 1.224647e-16 -1 397.0908 314.6641)" class="st72" width="51.59" height="59.64"/>
		
			<rect x="166.87" y="127.51" transform="matrix(-1 -1.224647e-16 1.224647e-16 -1 389.8336 314.6641)" class="st71" width="56.1" height="59.64"/>
		
			<rect x="169.8" y="133.98" transform="matrix(-1.836970e-16 1 -1 -1.836970e-16 352.2489 -37.5849)" class="st5" width="50.24" height="46.7"/>
		<path class="st71" d="M206.95,170.27v-1.82c0-13.29-10.77-24.06-24.06-24.06l0,0v1.82C182.89,159.5,193.66,170.27,206.95,170.27
			L206.95,170.27z"/>
	</g>
	<g>
		
			<rect x="396.86" y="118.23" transform="matrix(-1 -1.224647e-16 1.224647e-16 -1 987.7437 417.9468)" class="st72" width="194.03" height="181.49"/>
		
			<rect x="390.84" y="118.23" transform="matrix(-1 -1.224647e-16 1.224647e-16 -1 978.9189 417.9468)" class="st70" width="197.23" height="181.49"/>
		
			<rect x="396.86" y="299.72" transform="matrix(-1 -1.224647e-16 1.224647e-16 -1 987.7437 605.9054)" class="st72" width="194.03" height="6.47"/>
		
			<rect x="380.82" y="299.72" transform="matrix(-1 -1.224647e-16 1.224647e-16 -1 958.8796 605.9054)" class="st70" width="197.23" height="6.47"/>
		
			<rect x="408.46" y="118.78" transform="matrix(-1.836970e-16 1 -1 -1.836970e-16 698.4329 -280.4862)" class="st73" width="162.01" height="180.39"/>
		<polygon class="st5" points="528.5,289.98 498.46,127.97 448.96,127.97 479,289.98 		"/>
		<path class="st70" d="M575.76,235.01c0.33,0,0.6-0.31,0.6-0.7V134.31c0-0.38-0.27-0.7-0.6-0.7c-0.33,0-0.6,0.31-0.6,0.7v100.01
			C575.16,234.7,575.43,235.01,575.76,235.01z"/>
		<polygon class="st5" points="468.37,289.98 438.32,127.97 419.03,127.97 449.07,289.98 		"/>
		
			<rect x="318.79" y="208.44" transform="matrix(-1.836970e-16 1 -1 -1.836970e-16 608.7702 -190.8235)" class="st72" width="162.01" height="1.07"/>
		<polygon class="st74" points="388.85,140.44 582.88,140.44 583.66,131.76 389.63,131.76 		"/>
		<polygon class="st74" points="388.85,150.42 582.88,150.42 583.66,141.74 389.63,141.74 		"/>
		<polygon class="st74" points="388.85,160.4 582.88,160.4 583.66,151.72 389.63,151.72 		"/>
		<polygon class="st74" points="388.85,170.38 582.88,170.38 583.66,161.71 389.63,161.71 		"/>
		<polygon class="st74" points="388.85,180.37 582.88,180.37 583.66,171.69 389.63,171.69 		"/>
		<polygon class="st74" points="388.85,190.35 582.88,190.35 583.66,181.67 389.63,181.67 		"/>
		<polygon class="st74" points="388.85,200.33 582.88,200.33 583.66,191.66 389.63,191.66 		"/>
		<polygon class="st74" points="388.85,210.32 582.88,210.32 583.66,201.64 389.63,201.64 		"/>
		<polygon class="st74" points="388.85,220.3 582.88,220.3 583.66,211.62 389.63,211.62 		"/>
	</g>
	<g>
		
			<rect x="136.17" y="238.25" transform="matrix(-1 -1.224647e-16 1.224647e-16 -1 312.5919 522.693)" class="st72" width="40.25" height="46.19"/>
		
			<rect x="131.61" y="238.25" transform="matrix(-1 -1.224647e-16 1.224647e-16 -1 306.6776 522.693)" class="st71" width="43.45" height="46.19"/>
		
			<rect x="133.88" y="243.26" transform="matrix(-1.836970e-16 1 -1 -1.836970e-16 414.6854 108.0076)" class="st5" width="38.91" height="36.17"/>
		<path class="st71" d="M162.66,262.05v-1.41c0-5.15-4.17-9.32-9.32-9.32l0,0c-5.15,0-9.32,4.17-9.32,9.32v1.41
			c0,5.15,4.17,9.32,9.32,9.32l0,0C158.49,271.37,162.66,267.2,162.66,262.05z"/>
	</g>
	<g>
		
			<rect x="236.57" y="204.23" transform="matrix(-1 -1.224647e-16 1.224647e-16 -1 528.409 472.1292)" class="st72" width="55.26" height="63.67"/>
		
			<rect x="230.29" y="204.23" transform="matrix(-1 -1.224647e-16 1.224647e-16 -1 520.4776 472.1292)" class="st71" width="59.89" height="63.67"/>
		
			<rect x="233.42" y="211.14" transform="matrix(-1.836970e-16 1 -1 -1.836970e-16 496.3034 -24.1742)" class="st5" width="53.63" height="49.86"/>
		<path class="st71" d="M261.87,225.33l10.37,17.97c0.72,1.26-0.18,2.82-1.63,2.82h-20.75c-1.45,0-2.36-1.57-1.63-2.82l10.37-17.97
			C259.33,224.08,261.14,224.08,261.87,225.33z"/>
	</g>
	<g>
		<g>
			
				<rect x="145.38" y="404.04" transform="matrix(-1 -1.224647e-16 1.224647e-16 -1 321.1365 903.8602)" class="st72" width="30.37" height="95.78"/>
			<polygon class="st70" points="151.15,499.82 145.38,499.82 145.38,483.41 157.2,483.41 			"/>
			
				<rect x="258.89" y="404.04" transform="matrix(-1 -1.224647e-16 1.224647e-16 -1 548.1611 903.8602)" class="st72" width="30.37" height="95.78"/>
			
				<rect x="145.38" y="404.04" transform="matrix(-1 -1.224647e-16 1.224647e-16 -1 409.3115 893.7913)" class="st70" width="118.55" height="85.71"/>
			
				<rect x="146.38" y="412.89" transform="matrix(6.123234e-17 -1 1 6.123234e-17 -263.0366 615.6137)" class="st72" width="59.82" height="52.86"/>
			
				<rect x="203.11" y="412.89" transform="matrix(6.123234e-17 -1 1 6.123234e-17 -206.3022 672.348)" class="st72" width="59.82" height="52.86"/>
			<path class="st70" d="M227.79,414h10.46c4.54,0,8.89-1.87,12.01-5.17l0,0h-34.48h0C218.91,412.14,223.25,414,227.79,414z"/>
			<path class="st70" d="M170.53,414h10.46c4.54,0,8.89-1.87,12.01-5.17l0,0h-34.48l0,0C161.64,412.14,165.98,414,170.53,414z"/>
			<polygon class="st70" points="258.16,499.82 263.93,499.82 263.93,483.41 252.11,483.41 			"/>
		</g>
		<g>
			<path class="st75" d="M226.9,391.21c0,3.63,2.94,6.58,6.58,6.58c3.63,0,6.58-2.94,6.58-6.58s-2.94-6.58-6.58-6.58
				C229.84,384.63,226.9,387.58,226.9,391.21z"/>
			<circle class="st75" cx="236.46" cy="386.94" r="6.58"/>
			<path class="st75" d="M193.89,392.26c0,3.63,2.94,6.58,6.58,6.58c3.63,0,6.58-2.94,6.58-6.58c0-3.63-2.94-6.58-6.58-6.58
				C196.83,385.69,193.89,388.63,193.89,392.26z"/>
			<circle class="st75" cx="245.26" cy="388.01" r="8.07"/>
			<path class="st75" d="M221.2,380.58c0,4.45,3.61,8.07,8.06,8.07c4.45,0,8.07-3.61,8.07-8.07s-3.61-8.07-8.07-8.07
				C224.82,372.51,221.2,376.12,221.2,380.58z"/>
			<path class="st75" d="M208.41,382.64c0,4.45,3.61,8.07,8.06,8.07c4.45,0,8.07-3.61,8.07-8.07s-3.61-8.07-8.07-8.07
				C212.02,374.57,208.41,378.18,208.41,382.64z"/>
			<path class="st75" d="M213.82,389.15c0,4.27,3.46,7.72,7.72,7.72s7.72-3.46,7.72-7.72c0-4.27-3.46-7.72-7.72-7.72
				S213.82,384.88,213.82,389.15z"/>
			<path class="st75" d="M200.47,388.64c0,4.58,3.71,8.28,8.28,8.28c4.58,0,8.28-3.71,8.28-8.28c0-4.58-3.71-8.28-8.28-8.28
				C204.17,380.36,200.47,384.07,200.47,388.64z"/>
			<path class="st70" d="M258.13,391.21c0,0-0.9,12.83-35.53,12.83c-34.62,0-35.53-12.83-35.53-12.83H258.13z"/>
		</g>
	</g>
	<ellipse id="_x3C_Path_x3E__1_" class="st71" cx="350" cy="543.1" rx="247.99" ry="14.48"/>
	<g>
		<g>
			<g>
				<path class="st76" d="M423.89,164.07c-1.05-3.47-2.43-6.78-4.11-9.92l2.56-8.38l-16.55-16.55l-8.38,2.56
					c-3.14-1.68-6.46-3.06-9.92-4.11l-4.11-7.74h-23.41l-4.11,7.74c-3.47,1.05-6.79,2.43-9.92,4.11l-8.38-2.56L321,145.77l2.56,8.38
					c-1.68,3.14-3.06,6.46-4.11,9.92l-7.74,4.11v23.41l7.74,4.11c1.05,3.47,2.43,6.78,4.11,9.92l-2.56,8.38l16.55,16.55l8.38-2.56
					c3.14,1.68,6.46,3.06,9.92,4.11l4.11,7.74h23.41l4.11-7.74c3.47-1.05,6.79-2.43,9.92-4.11l8.38,2.56l16.55-16.55l-2.56-8.38
					c1.68-3.14,3.06-6.46,4.11-9.92l7.74-4.11v-23.41L423.89,164.07z M371.67,213.13c-18.36,0-33.25-14.88-33.25-33.25
					s14.88-33.25,33.25-33.25c18.36,0,33.25,14.88,33.25,33.25S390.03,213.13,371.67,213.13z"/>
				<path class="st77" d="M423.89,164.07c-1.05-3.47-2.43-6.78-4.11-9.92l2.56-8.38l-16.55-16.55l-8.38,2.56
					c-3.14-1.68-6.46-3.06-9.92-4.11l-4.11-7.74h-23.41l-4.11,7.74c-3.47,1.05-6.79,2.43-9.92,4.11l-8.38-2.56L321,145.77l2.56,8.38
					c-1.68,3.14-3.06,6.46-4.11,9.92l-7.74,4.11v23.41l7.74,4.11c1.05,3.47,2.43,6.78,4.11,9.92l-2.56,8.38l16.55,16.55l8.38-2.56
					c3.14,1.68,6.46,3.06,9.92,4.11l4.11,7.74h23.41l4.11-7.74c3.47-1.05,6.79-2.43,9.92-4.11l8.38,2.56l16.55-16.55l-2.56-8.38
					c1.68-3.14,3.06-6.46,4.11-9.92l7.74-4.11v-23.41L423.89,164.07z M371.67,213.13c-18.36,0-33.25-14.88-33.25-33.25
					s14.88-33.25,33.25-33.25c18.36,0,33.25,14.88,33.25,33.25S390.03,213.13,371.67,213.13z"/>
			</g>
			<path class="st76" d="M371.67,168.87c-6.08,0-11.01,4.93-11.01,11.01s4.93,11.01,11.01,11.01c6.08,0,11.02-4.93,11.02-11.01
				S377.76,168.87,371.67,168.87z"/>
		</g>
		<g>
			<path class="st76" d="M590.48,201.2c-1.49-4.95-3.47-9.7-5.87-14.19c0,0,0,0,0,0l3.66-11.97l-23.65-23.65l-11.98,3.66
				c0,0,0,0,0,0c-4.48-2.42-9.23-4.39-14.18-5.88c0,0,0,0,0,0l-5.87-11.05h-33.45l-5.87,11.05c-4.95,1.48-9.7,3.46-14.19,5.88
				c0,0,0,0,0,0l-11.97-3.66l-23.65,23.65L447.1,187c0,0,0,0,0,0c-2.4,4.49-4.38,9.24-5.87,14.19l-11.06,5.88v33.45l11.06,5.88
				c0,0,0,0,0,0c1.49,4.96,3.47,9.7,5.87,14.18c0,0,0,0,0,0.01l-3.66,11.97l23.65,23.65l11.98-3.66c4.49,2.42,9.23,4.4,14.18,5.88
				l5.88,11.06h33.45l5.87-11.05c0,0,0,0,0,0c4.95-1.49,9.7-3.46,14.18-5.88l11.98,3.66l23.65-23.65l-3.66-11.97c0,0,0,0,0,0
				c2.4-4.48,4.38-9.23,5.87-14.18c0,0,0,0,0,0l11.06-5.88v-33.45L590.48,201.2z M515.85,284.44c-33.48,0-60.63-27.15-60.63-60.63
				c0-33.5,27.15-60.64,60.63-60.64c33.49,0,60.65,27.15,60.65,60.64C576.5,257.29,549.34,284.44,515.85,284.44z"/>
			<g>
				<path class="st76" d="M515.86,171.65c-28.76,0-52.15,23.39-52.15,52.15s23.39,52.15,52.15,52.15c28.76,0,52.15-23.4,52.15-52.15
					S544.61,171.65,515.86,171.65z M515.86,269c-24.92,0-45.2-20.28-45.2-45.2c0-24.93,20.28-45.2,45.2-45.2
					c24.93,0,45.2,20.28,45.2,45.2C561.06,248.73,540.78,269,515.86,269z"/>
				<path class="st78" d="M515.86,171.65c-28.76,0-52.15,23.39-52.15,52.15s23.39,52.15,52.15,52.15c28.76,0,52.15-23.4,52.15-52.15
					S544.61,171.65,515.86,171.65z M515.86,269c-24.92,0-45.2-20.28-45.2-45.2c0-24.93,20.28-45.2,45.2-45.2
					c24.93,0,45.2,20.28,45.2,45.2C561.06,248.73,540.78,269,515.86,269z"/>
			</g>
		</g>
		<g>
			<path class="st76" d="M396.05,312.78c-0.71,0-1.28-0.57-1.28-1.28v-2.56c0-0.71,0.57-1.28,1.28-1.28s1.28,0.57,1.28,1.28v2.56
				C397.32,312.2,396.75,312.78,396.05,312.78z"/>
			<path class="st76" d="M376.13,279.72c-1.17-0.76-2.08-1.85-2.63-3.13c-0.28-0.65-1.03-0.95-1.68-0.68
				c-0.65,0.28-0.95,1.03-0.68,1.68c0.75,1.75,1.99,3.23,3.59,4.27c0.22,0.14,0.46,0.21,0.7,0.21c0.42,0,0.83-0.2,1.07-0.58
				C376.89,280.9,376.72,280.11,376.13,279.72z"/>
			<path class="st76" d="M371.67,263.75c0.71,0,1.28-0.57,1.28-1.28v-4.9c0-0.71-0.57-1.28-1.28-1.28c-0.71,0-1.28,0.57-1.28,1.28
				v4.9C370.39,263.18,370.96,263.75,371.67,263.75z"/>
			<path class="st76" d="M384.98,280.85h-4.91c-0.71,0-1.28,0.57-1.28,1.28c0,0.71,0.57,1.28,1.28,1.28h4.91
				c0.71,0,1.28-0.57,1.28-1.28C386.26,281.42,385.69,280.85,384.98,280.85z"/>
			<path class="st76" d="M372.95,272.28v-4.9c0-0.71-0.57-1.28-1.28-1.28c-0.71,0-1.28,0.57-1.28,1.28v4.9
				c0,0.71,0.57,1.28,1.28,1.28C372.38,273.56,372.95,272.99,372.95,272.28z"/>
			<path class="st76" d="M397.25,289.16c-0.09-0.7-0.73-1.2-1.43-1.11c-0.7,0.09-1.2,0.73-1.11,1.43c0.04,0.3,0.06,0.6,0.06,0.91
				v3.83c0,0.71,0.57,1.28,1.28,1.28s1.28-0.57,1.28-1.28v-3.83C397.32,289.98,397.3,289.57,397.25,289.16z"/>
			<path class="st76" d="M396.05,297.85c-0.71,0-1.28,0.57-1.28,1.28v4.9c0,0.71,0.57,1.28,1.28,1.28s1.28-0.57,1.28-1.28v-4.9
				C397.32,298.42,396.75,297.85,396.05,297.85z"/>
			<path class="st76" d="M394.94,284.08c-1.27-1.43-2.91-2.45-4.75-2.92c-0.68-0.18-1.38,0.23-1.56,0.92
				c-0.18,0.68,0.23,1.38,0.92,1.56c1.35,0.35,2.55,1.09,3.48,2.14c0.25,0.29,0.61,0.43,0.96,0.43c0.3,0,0.6-0.11,0.85-0.32
				C395.36,285.42,395.4,284.61,394.94,284.08z"/>
			<path class="st76" d="M371.67,253.89c-0.71,0-1.28-0.57-1.28-1.28v-2.56c0-0.71,0.57-1.28,1.28-1.28c0.71,0,1.28,0.57,1.28,1.28
				v2.56C372.95,253.32,372.38,253.89,371.67,253.89z"/>
		</g>
	</g>
	<g>
		<g>
			<g>
				<rect x="160.49" y="377.17" class="st76" width="296.14" height="4.74"/>
				<g>
					
						<rect x="456.63" y="377.17" transform="matrix(-1 -1.224647e-16 1.224647e-16 -1 977.5234 759.0894)" class="st76" width="64.26" height="4.74"/>
					
						<rect x="456.63" y="377.17" transform="matrix(-1 -1.224647e-16 1.224647e-16 -1 977.5234 759.0894)" class="st78" width="64.26" height="4.74"/>
				</g>
			</g>
			<g>
				<polygon class="st76" points="499.44,387 181.94,387 171.33,381.92 510.05,381.92 				"/>
				<polygon class="st79" points="499.44,387 181.94,387 171.33,381.92 510.05,381.92 				"/>
			</g>
			<polygon class="st76" points="191.54,387 191.54,538.35 195.61,538.35 200.73,387 			"/>
			<polygon class="st76" points="239.55,387 239.55,538.35 243.62,538.35 248.74,387 			"/>
			<polygon class="st76" points="499.44,387 499.44,538.35 495.37,538.35 490.25,387 			"/>
			<polygon class="st76" points="451.43,387 451.43,538.35 447.36,538.35 442.25,387 			"/>
		</g>
		<g>
			<g>
				<polygon class="st76" points="354.79,319.72 341.42,374.16 341.42,374.16 341.05,377.17 433.25,377.17 433.62,374.16 
					446.98,319.72 				"/>
				<polygon class="st80" points="354.79,319.72 341.42,374.16 341.42,374.16 341.05,377.17 433.25,377.17 433.62,374.16 
					446.98,319.72 				"/>
			</g>
			<polygon class="st76" points="444.14,319.72 351.95,319.72 338.59,374.16 430.78,374.16 			"/>
			<polygon class="st5" points="428.83,371.68 440.97,322.21 353.9,322.21 341.76,371.68 			"/>
			<g>
				<polygon class="st76" points="406.76,374.16 406.39,377.17 304.86,377.17 305.23,374.16 				"/>
				<polygon class="st79" points="406.76,374.16 406.39,377.17 304.86,377.17 305.23,374.16 				"/>
			</g>
		</g>
		<path class="st76" d="M214.98,367.28c0-3.95-3.13-7.22-7.2-7.8V358c0-0.35-0.3-0.62-0.67-0.62H193.3c-0.37,0-0.67,0.28-0.67,0.62
			v19.17h15.16v-2.1C211.86,374.49,214.98,371.22,214.98,367.28z M207.79,372.6v-10.65c2.62,0.55,4.58,2.72,4.58,5.33
			C212.37,369.88,210.41,372.05,207.79,372.6z"/>
		<g>
			<polygon class="st81" points="473.51,377.17 486.35,377.17 482.54,349.05 473.51,349.05 			"/>
			<g>
				<polygon class="st76" points="454.68,377.17 479,377.17 483.53,344.25 459.2,344.25 				"/>
				<polygon class="st80" points="454.68,377.17 479,377.17 483.53,344.25 459.2,344.25 				"/>
			</g>
			<polygon class="st76" points="451.43,377.17 476.74,377.17 481.27,344.25 455.96,344.25 			"/>
			<polygon class="st82" points="474.5,374.58 478.31,346.85 458.19,346.85 454.38,374.58 			"/>
		</g>
	</g>
	<g>
		<g>
			<path class="st83" d="M282.9,328.57l-1.04,1.14l-1.13,1.28c-0.76,0.86-1.5,1.75-2.22,2.66c-1.43,1.82-2.82,3.67-4.11,5.57
				c-2.58,3.8-4.79,7.77-6.37,11.82c-0.77,2.03-1.41,4.07-1.81,6.11c-0.21,1.18-0.34,1.69-0.4,2.19c-0.07,0.49-0.08,0.83,0,1.2
				c0.07,0.73,0.97,1.91,2.6,2.89c0.79,0.51,1.73,0.95,2.72,1.36c0.5,0.2,1.01,0.39,1.53,0.58c0.49,0.17,1.11,0.36,1.48,0.51
				l0.01,7.05c-0.89,0.13-1.54,0.23-2.31,0.27c-0.74,0.05-1.48,0.07-2.23,0.05c-1.5-0.02-3.03-0.22-4.62-0.58
				c-1.57-0.39-3.21-0.97-4.83-1.94c-1.6-0.97-3.23-2.33-4.45-4.14c-1.23-1.8-2-3.93-2.32-5.96c-0.1-0.52-0.13-1.01-0.17-1.5
				c-0.04-0.51-0.04-0.98-0.03-1.46l0.02-0.72c0.01-0.24,0.03-0.39,0.05-0.58l0.11-1.12c0.33-2.97,0.96-5.86,1.84-8.61
				c1.73-5.53,4.27-10.59,7.25-15.25c1.49-2.34,3.09-4.57,4.82-6.71c0.86-1.07,1.74-2.13,2.66-3.16c0.46-0.52,0.92-1.03,1.41-1.54
				c0.51-0.53,0.94-0.97,1.59-1.6L282.9,328.57z"/>
			<path class="st83" d="M271.53,365.71l5.96-4.37l3.4,12.25c0,0-5.28,1.96-9.32-0.67L271.53,365.71z"/>
			<polygon class="st83" points="285.76,358.4 288.09,368.66 280.88,373.59 277.48,361.34 			"/>
			<path class="st81" d="M323.46,281.55c-0.26,0.76-0.08,1.51,0.42,1.69c0.5,0.17,1.11-0.3,1.38-1.06c0.26-0.76,0.08-1.51-0.42-1.69
				C324.34,280.31,323.72,280.79,323.46,281.55z"/>
			<path class="st84" d="M323.32,283.04c0,0,0.2,4.97,1.37,7.75c-1.78,0.79-3.86-0.58-3.86-0.58L323.32,283.04z"/>
			<path class="st81" d="M322.24,276.41c0.09,0.03,0.19,0.04,0.29,0.01c1.99-0.59,3.31,0.47,3.37,0.52c0.2,0.17,0.5,0.14,0.66-0.06
				c0.17-0.2,0.14-0.49-0.05-0.66c-0.07-0.06-1.75-1.45-4.25-0.7c-0.25,0.07-0.39,0.34-0.32,0.59
				C321.98,276.25,322.1,276.36,322.24,276.41z"/>
			<path class="st83" d="M295.42,284.33c1.43,7.28,2.85,20.62-2.24,25.48c0,0,1.99,7.39,15.52,7.39c14.88,0,7.11-7.39,7.11-7.39
				c-8.12-1.94-7.91-7.96-6.5-13.62L295.42,284.33z"/>
			<path class="st81" d="M291.22,312.35c-1.07-2.34-2.24-5.01,0.19-5.85c2.67-0.92,17.3-1.86,22.34-0.13
				c5.04,1.73,3.61,6.47,3.61,6.47L291.22,312.35z"/>
			<path class="st83" d="M342.3,324.83c3.12,5.65,6.49,11.45,9.9,17.03c3.42,5.6,6.97,11.12,10.78,16.19
				c0.95,1.29,1.92,2.49,2.9,3.7c0.48,0.63,0.99,1.15,1.49,1.72l0.75,0.85l0.19,0.21l0.09,0.11l0.03,0.03
				c0.04,0.04,0.07,0.08,0.1,0.13c0.27,0.36,1.05,0.86,2.09,1.26c1.04,0.41,2.35,0.68,3.73,0.91c5.62,0.8,12.36,0.4,18.69-0.22
				l1.94,6.78c-1.73,0.76-3.34,1.34-5.05,1.91c-1.69,0.58-3.41,1.07-5.16,1.5c-3.51,0.84-7.15,1.45-11.1,1.48
				c-1.98,0.03-4.04-0.14-6.25-0.62c-2.2-0.5-4.62-1.3-6.96-3.1l-0.86-0.71l-0.21-0.18l-0.12-0.12l-0.25-0.24l-1-0.98
				c-0.65-0.66-1.36-1.31-1.95-1.98c-1.23-1.34-2.48-2.67-3.59-4.06c-4.59-5.48-8.59-11.18-12.34-17c-1.88-2.91-3.68-5.85-5.4-8.84
				c-1.74-3-3.41-5.94-5.04-9.12L342.3,324.83z"/>
			<path class="st76" d="M275.35,312.07c-9.33,2.14-20.03,27.57-20.03,27.57l18.74,12.84c0,0,7.1-9.93,12.38-21.04
				C291.97,319.8,284.89,309.88,275.35,312.07z"/>
			<path class="st78" d="M282.04,328.29l-8.86,23.59l0.88,0.61c0,0,3.83-5.38,7.98-12.64V328.29z"/>
			<path class="st76" d="M331.12,312.58c0,0,10.59,11.97,0.59,86.03c-16.04,0-45.43,0-53.24,0c-0.37-8.17,4.77-48.04-3.11-86.55
				c0,0,9.13-1.83,17.82-2.25c6.8-0.33,16.65-0.54,22.63,0C323.69,310.54,331.12,312.58,331.12,312.58z"/>
			<path class="st78" d="M325.2,333.99c0.18,0.22,1.34,12.23,10.51,22.79c0.22-4.77,0.3-9.05,0.28-12.88L325.2,333.99z"/>
			<path class="st76" d="M320.61,320.65c-1.31,9.43,17.26,33.5,17.26,33.5l18.66-12.84c0,0-5.17-13.27-13.89-21.96
				C332.69,309.42,322.04,310.39,320.61,320.65z"/>
			<path class="st83" d="M390.89,366.78l7.6-3.11l7.82,5.9c0,0-7.46,6.6-14.24,4.04L390.89,366.78z"/>
			<polygon class="st83" points="403.54,363.36 409.27,367.45 406.31,369.57 398.49,363.67 			"/>
			<path class="st83" d="M298.73,271.14c-2.67,9.51-4.71,14.94-1.67,21.36c4.57,9.65,17.55,9.38,23.01,0.86
				c4.91-7.67,8.45-21.94,0.62-28.81C312.98,257.77,301.4,261.63,298.73,271.14z"/>
			<path class="st81" d="M318.98,271.24c-3.88,10.93-8.34,22.93-19.37,20.65c-7.11-1.47-7.66-12.92-10.23-18.12
				c-2.26-4.58-2.12-13.76,2.51-13.87c-2.09-3.05,8.51-14.19,15.75-8.3c1.85-2.56,15.22-10.09,25.12,1.86
				C342.12,264.77,337.55,274.23,318.98,271.24z"/>
			<path class="st83" d="M310.35,278.22c-0.31,2.57,0.43,5.18,1.56,7c1.7,2.74,4.2,1.69,5.1-1.11c0.81-2.52,0.91-6.97-1.46-8.75
				C313.22,273.62,310.71,275.29,310.35,278.22z"/>
			<g>
				<path class="st76" d="M392.06,531.13c1.28,0,2.51-0.18,2.92-0.75c0.14-0.2,0.26-0.54-0.02-1.03c-0.16-0.27-0.41-0.46-0.75-0.55
					c-1.66-0.45-5.13,1.53-5.28,1.62c-0.09,0.05-0.13,0.15-0.12,0.24c0.02,0.1,0.09,0.17,0.19,0.19
					C389.64,530.97,390.87,531.13,392.06,531.13z M393.64,529.2c0.17,0,0.32,0.02,0.46,0.05c0.22,0.06,0.37,0.17,0.46,0.33
					c0.17,0.29,0.11,0.44,0.05,0.52c-0.46,0.64-2.98,0.66-4.83,0.4C390.69,530.02,392.47,529.2,393.64,529.2z"/>
				<path class="st76" d="M389.05,530.85c0.03,0,0.07-0.01,0.1-0.02c1.2-0.54,3.58-2.69,3.4-3.82c-0.04-0.26-0.23-0.59-0.88-0.66
					c-0.48-0.04-0.92,0.09-1.31,0.4c-1.27,1.04-1.53,3.72-1.54,3.83c-0.01,0.08,0.03,0.17,0.1,0.21
					C388.95,530.84,389,530.85,389.05,530.85z M391.48,526.82c0.05,0,0.09,0,0.14,0.01c0.42,0.04,0.45,0.21,0.46,0.26
					c0.11,0.68-1.51,2.37-2.73,3.1c0.13-0.78,0.48-2.39,1.31-3.07C390.91,526.92,391.18,526.82,391.48,526.82z"/>
				<polygon class="st83" points="377.47,530.62 387.42,530.62 389.68,507.56 379.73,507.56 				"/>
				<path class="st81" d="M387.99,529.46l-10.87,0c-0.41,0-0.76,0.28-0.85,0.68l-1.97,8.85c-0.2,0.92,0.49,1.79,1.43,1.77
					c3.92-0.07,9.59-0.3,14.52-0.3c5.76,0,10.74,0.31,17.5,0.31c4.09,0,5.22-4.13,3.51-4.51c-7.79-1.7-14.14-1.89-20.87-6.03
					C389.66,529.79,388.85,529.46,387.99,529.46z"/>
				<polygon class="st78" points="389.68,507.57 388.52,519.45 378.56,519.45 379.72,507.57 				"/>
			</g>
			<path class="st76" d="M352.16,531.13c1.02,0,2.01-0.16,2.39-0.66c0.16-0.21,0.29-0.58-0.01-1.12c-0.16-0.29-0.41-0.47-0.74-0.55
				c-1.45-0.34-4.2,1.54-4.32,1.62c-0.08,0.05-0.11,0.15-0.1,0.24c0.02,0.09,0.09,0.16,0.18,0.19
				C350.08,530.97,351.14,531.13,352.16,531.13z M353.41,529.23c0.1,0,0.2,0.01,0.29,0.03c0.2,0.05,0.34,0.15,0.43,0.32
				c0.21,0.39,0.09,0.55,0.05,0.61c-0.43,0.56-2.46,0.57-3.95,0.32C351.09,529.97,352.5,529.23,353.41,529.23z"/>
			<path class="st76" d="M349.62,530.85c0.04,0,0.08-0.01,0.11-0.03c1.03-0.56,3.02-2.74,2.81-3.85c-0.04-0.2-0.19-0.55-0.75-0.62
				c-0.36-0.04-0.7,0.06-1,0.3c-1.16,0.94-1.39,3.82-1.4,3.94c-0.01,0.09,0.03,0.17,0.11,0.22
				C349.53,530.84,349.58,530.85,349.62,530.85z M351.63,526.82c0.04,0,0.07,0,0.11,0.01c0.31,0.04,0.33,0.18,0.34,0.24
				c0.12,0.66-1.14,2.3-2.17,3.08c0.12-0.84,0.43-2.51,1.18-3.12C351.26,526.88,351.44,526.82,351.63,526.82z"/>
			<polygon class="st83" points="338.22,530.62 348.17,530.62 353.18,507.56 343.22,507.56 			"/>
			<path class="st81" d="M348.88,529.46l-11.18,0c-0.41,0-0.76,0.28-0.85,0.68l-1.97,8.85c-0.2,0.92,0.52,1.79,1.46,1.77
				c3.9-0.07,5.8-0.3,10.72-0.3c3.03,0,6.91,0.31,11.09,0.31c4.09,0,4.72-4.13,3.01-4.51c-7.67-1.68-8.21-3.99-10.66-6.2
				C350.05,529.68,349.48,529.46,348.88,529.46z"/>
			<g class="st78">
				<polygon points="343.22,507.57 353.18,507.57 350.59,519.45 340.64,519.45 				"/>
			</g>
			<path class="st81" d="M331.7,398.61c0,0,74.57,7.89,73.76,45.93c-0.85,39.57-13.58,69.85-13.58,69.85h-14.79
				c0,0,0.75-24.12,0.26-63.08c-0.15-11.67-23.73-15.53-46.76-16.89c-19.89-1.18-37.34-13.69-45.07-32.06l-1.58-3.76H331.7z"/>
			<path class="st76" d="M395.49,510.44c0.08,0-0.95,7-0.95,7h-20.51l-0.55-6.25L395.49,510.44z"/>
			<path class="st81" d="M315.75,398.61c0,0,54.05,17.93,55.42,40.11c2.51,40.85-17.53,75.67-17.53,75.67h-14.93
				c0,0,5.67-17.26,7.7-54.27c2.56-46.5-84.2-0.08-67.94-61.51H315.75z"/>
			<path class="st76" d="M358.14,510.44c0.08,0-1.88,7-1.88,7h-20.51l0.38-6.25L358.14,510.44z"/>
		</g>
		<g>
			<path class="st76" d="M354.73,437.77H271.6l0,0c0-5.24,4.25-9.48,9.48-9.48h64.16C350.48,428.28,354.73,432.53,354.73,437.77
				L354.73,437.77z"/>
			<g>
				<polygon class="st76" points="275.44,437.77 262.91,542.85 265.59,542.85 281.49,437.77 				"/>
				<polygon class="st85" points="275.44,437.77 262.91,542.85 265.59,542.85 281.49,437.77 				"/>
			</g>
			<g>
				<polygon class="st76" points="292.21,437.77 291.97,542.85 294.65,542.85 298.26,437.77 				"/>
				<polygon class="st85" points="292.21,437.77 291.97,542.85 294.65,542.85 298.26,437.77 				"/>
			</g>
			<g>
				<polygon class="st76" points="350.89,437.77 363.41,542.85 360.73,542.85 344.84,437.77 				"/>
				<polygon class="st85" points="350.89,437.77 363.41,542.85 360.73,542.85 344.84,437.77 				"/>
			</g>
			<g>
				<polygon class="st76" points="334.12,437.77 334.35,542.85 331.68,542.85 328.07,437.77 				"/>
				<polygon class="st85" points="334.12,437.77 334.35,542.85 331.68,542.85 328.07,437.77 				"/>
			</g>
		</g>
	</g>
</g>
</svg>
