<?xml version="1.0" encoding="utf-8"?>
<!-- Generator: Adobe Illustrator 24.3.0, SVG Export Plug-In . SVG Version: 6.00 Build 0)  -->
<svg version="1.1" id="Layer_1" xmlns="http://www.w3.org/2000/svg" xmlns:xlink="http://www.w3.org/1999/xlink" x="0px" y="0px"
	 viewBox="0 0 700 600" style="enable-background:new 0 0 700 600;" xml:space="preserve">
<style type="text/css">
	.st0{opacity:0.2;fill:#92B4D1;}
	.st1{fill:#2672AB;}
	.st2{fill:#D1EBFF;}
	.st3{opacity:0.5;fill:#3F92D1;}
	.st4{fill:#3F92D1;}
	.st5{fill:#FFFFFF;}
	.st6{opacity:0.3;fill:#FFFFFF;}
	.st7{fill:#A8CFF0;}
	.st8{fill:#72B5E8;}
	.st9{fill:#03336E;}
	.st10{fill:#022652;}
	.st11{opacity:0.7;fill:#FFFFFF;}
	.st12{opacity:0.1;fill:#F1F2F2;}
	.st13{opacity:0.1429;fill:#ECEFF0;}
	.st14{opacity:0.1857;fill:#E7EBEE;}
	.st15{opacity:0.2286;fill:#E2E8EC;}
	.st16{opacity:0.2714;fill:#DEE5EA;}
	.st17{opacity:0.3143;fill:#D9E1E8;}
	.st18{opacity:0.3571;fill:#D4DEE6;}
	.st19{opacity:0.4;fill:#CFDBE4;}
	.st20{opacity:0.4429;fill:#CAD7E2;}
	.st21{opacity:0.4857;fill:#C5D4E0;}
	.st22{opacity:0.5286;fill:#C0D1DE;}
	.st23{opacity:0.5714;fill:#BCCDDB;}
	.st24{opacity:0.6143;fill:#B7CAD9;}
	.st25{opacity:0.6571;fill:#B2C7D7;}
	.st26{opacity:0.7;fill:#ADC3D5;}
	.st27{opacity:0.7429;fill:#A8C0D3;}
	.st28{opacity:0.7857;fill:#A3BDD1;}
	.st29{opacity:0.8286;fill:#9EB9CF;}
	.st30{opacity:0.8714;fill:#9AB6CD;}
	.st31{opacity:0.9143;fill:#95B3CB;}
	.st32{opacity:0.9571;fill:#90AFC9;}
	.st33{fill:#8BACC7;}
	.st34{fill:#EB4680;}
	.st35{fill:#FFD70F;}
	.st36{opacity:0.5;fill:#FFFFFF;}
	.st37{fill:#0BA19F;}
	.st38{fill:#3ECFCD;}
	.st39{fill:#0FBAB8;}
	.st40{fill:url(#SVGID_1_);}
	.st41{fill:url(#SVGID_2_);}
	.st42{fill:url(#SVGID_3_);}
	.st43{fill:#FFDE17;}
	.st44{fill:#FFCC00;}
	.st45{fill:#E6EDFC;}
	.st46{fill:#D7E2F4;}
	.st47{fill:#444A7C;}
	.st48{fill:#262A41;}
	.st49{fill:none;stroke:#FFFFFF;stroke-width:0.6671;stroke-miterlimit:10;}
	.st50{fill:#85D2F9;}
	.st51{fill:none;stroke:#FFFFFF;stroke-width:0.3254;stroke-miterlimit:10;}
	.st52{fill:none;stroke:#FFFFFF;stroke-width:0.3254;stroke-miterlimit:10;stroke-dasharray:1.2826,1.2826;}
	.st53{fill:none;stroke:#FFFFFF;stroke-width:0.3254;stroke-miterlimit:10;stroke-dasharray:1.2776,1.2776;}
	.st54{fill:#8391FC;stroke:#FFFFFF;stroke-width:0.3254;stroke-miterlimit:10;}
	.st55{opacity:0.8;fill:#444A7C;}
	.st56{opacity:0.8;fill:#8391FC;}
	.st57{fill:#8391FC;}
	.st58{fill:none;stroke:#FFFFFF;stroke-width:1.0422;stroke-miterlimit:10;}
	.st59{fill:none;stroke:#C8D0FC;stroke-width:0.2605;stroke-miterlimit:10;}
	.st60{fill:none;stroke:#FFFFFF;stroke-width:0.2605;stroke-linecap:round;stroke-miterlimit:10;}
	.st61{fill:none;stroke:#FFFFFF;stroke-width:0.5211;stroke-miterlimit:10;}
	.st62{fill:#E5E1F9;}
	.st63{fill:#7683E1;}
	.st64{fill:#E8A398;}
	.st65{fill:#C3D3EA;}
	.st66{fill:none;stroke:#E8B1C3;stroke-width:1.9735;stroke-miterlimit:10;}
	.st67{fill:#7481B2;}
	.st68{fill:#545C8C;}
	.st69{fill:#ECECEC;}
	.st70{fill:#F0F0F0;}
	.st71{fill:#F5F5F5;}
	.st72{fill:#E7E7E7;}
	.st73{fill:#FAFAFA;}
	.st74{opacity:0.4;fill:#E7E7E7;}
	.st75{fill:#E1E1E1;}
	.st76{fill:#007CFF;}
	.st77{opacity:0.2;fill:#FFFFFF;}
	.st78{opacity:0.2;}
	.st79{opacity:0.6;fill:#FFFFFF;}
	.st80{opacity:0.3;}
	.st81{fill:#1A2E35;}
	.st82{opacity:0.4;fill:#FFFFFF;}
	.st83{fill:#CD5B51;}
	.st84{fill:#BA221F;}
	.st85{opacity:0.4;}
	.st86{fill:#1A4175;}
	.st87{fill:#1674BA;}
	.st88{fill-rule:evenodd;clip-rule:evenodd;fill:#389CCF;}
	.st89{fill:url(#XMLID_6_);}
	.st90{fill-rule:evenodd;clip-rule:evenodd;fill:#1674BA;}
	.st91{fill:#1B75BB;}
	.st92{clip-path:url(#SVGID_6_);}
	.st93{clip-path:url(#SVGID_7_);}
	.st94{filter:url(#Adobe_OpacityMaskFilter);}
	.st95{filter:url(#Adobe_OpacityMaskFilter_1_);}
	.st96{mask:url(#SVGID_8_);fill:url(#SVGID_9_);}
	.st97{opacity:0.3;fill:#ADBCFF;}
	.st98{filter:url(#Adobe_OpacityMaskFilter_2_);}
	.st99{filter:url(#Adobe_OpacityMaskFilter_3_);}
	.st100{mask:url(#SVGID_10_);fill:url(#SVGID_11_);}
	.st101{opacity:0.7;fill:#E6EDFC;}
	.st102{fill:none;stroke:#1A2E35;stroke-width:2;stroke-miterlimit:10;}
	.st103{fill:none;stroke:#1A2E35;stroke-linecap:round;stroke-linejoin:round;stroke-miterlimit:10;}
	.st104{opacity:0.44;fill:#FFFFFF;}
	.st105{fill:none;stroke:#FFFFFF;stroke-miterlimit:10;}
	.st106{fill:none;stroke:#1A2E35;stroke-width:0.5;stroke-miterlimit:10;}
	.st107{fill:#FFFFFF;stroke:#1A2E35;stroke-width:0.5;stroke-miterlimit:10;}
	.st108{fill:#1A2E35;stroke:#1A2E35;stroke-linecap:round;stroke-linejoin:round;stroke-miterlimit:10;}
	.st109{fill:#FFFFFF;stroke:#1A2E35;stroke-linecap:round;stroke-linejoin:round;stroke-miterlimit:10;}
	.st110{fill:#808080;stroke:#1A2E35;stroke-linecap:round;stroke-linejoin:round;stroke-miterlimit:10;}
	.st111{fill:#B0B0D9;}
	.st112{fill:#B0B0D9;stroke:#1A2E35;stroke-linecap:round;stroke-linejoin:round;stroke-miterlimit:10;}
	.st113{opacity:0.2;clip-path:url(#XMLID_7_);fill:#404773;}
	.st114{fill:#AAFF00;}
	.st115{opacity:0.2;clip-path:url(#XMLID_8_);fill:#8383C9;}
	.st116{opacity:0.2;clip-path:url(#XMLID_9_);}
	.st117{clip-path:url(#XMLID_10_);fill:none;stroke:#1A2E35;stroke-linecap:round;stroke-linejoin:round;stroke-miterlimit:10;}
	.st118{clip-path:url(#XMLID_11_);}
	.st119{fill:#575757;}
	.st120{fill:none;stroke:#575757;stroke-miterlimit:10;}
	.st121{filter:url(#Adobe_OpacityMaskFilter_4_);}
	.st122{filter:url(#Adobe_OpacityMaskFilter_5_);}
	.st123{mask:url(#SVGID_12_);fill:url(#SVGID_13_);}
	.st124{fill:#939AA3;}
	.st125{fill:#404773;}
	.st126{fill:#EEA886;}
	.st127{fill:#C5CDDB;}
	.st128{fill:#E55353;}
	.st129{fill:#434343;}
	.st130{fill:#282C47;}
	.st131{fill:#525252;}
	.st132{fill:#EDDAD3;}
	.st133{fill:#A77860;}
	.st134{fill:url(#SVGID_14_);}
	.st135{fill:#7A7AB5;}
	.st136{fill:url(#SVGID_15_);}
	.st137{fill:url(#SVGID_16_);}
	.st138{fill:#2A2E4A;}
	.st139{fill:url(#SVGID_17_);}
	.st140{fill:#626EB0;}
	.st141{opacity:0.72;fill:#D9D9D9;}
	.st142{fill:#8383C9;}
	.st143{enable-background:new    ;}
	.st144{fill:url(#SVGID_18_);}
	.st145{fill:url(#SVGID_19_);}
	.st146{fill:url(#SVGID_20_);}
	.st147{opacity:0.8;}
	.st148{opacity:0;fill:#D7C8FF;}
	.st149{opacity:6.369427e-03;fill:#D6C7FE;}
	.st150{opacity:0.0127;fill:#D5C6FE;}
	.st151{opacity:0.0191;fill:#D4C6FD;}
	.st152{opacity:0.0255;fill:#D3C5FC;}
	.st153{opacity:0.0318;fill:#D2C4FB;}
	.st154{opacity:0.0382;fill:#D1C3FB;}
	.st155{opacity:0.0446;fill:#D0C3FA;}
	.st156{opacity:0.051;fill:#CFC2F9;}
	.st157{opacity:0.0573;fill:#CEC1F9;}
	.st158{opacity:0.0637;fill:#CDC0F8;}
	.st159{opacity:0.0701;fill:#CCC0F7;}
	.st160{opacity:0.0764;fill:#CBBFF6;}
	.st161{opacity:0.0828;fill:#CABEF6;}
	.st162{opacity:0.0892;fill:#C9BDF5;}
	.st163{opacity:0.0955;fill:#C8BDF4;}
	.st164{opacity:0.1019;fill:#C7BCF3;}
	.st165{opacity:0.1083;fill:#C6BBF3;}
	.st166{opacity:0.1146;fill:#C5BAF2;}
	.st167{opacity:0.121;fill:#C4B9F1;}
	.st168{opacity:0.1274;fill:#C3B9F1;}
	.st169{opacity:0.1338;fill:#C2B8F0;}
	.st170{opacity:0.1401;fill:#C1B7EF;}
	.st171{opacity:0.1465;fill:#C0B6EE;}
	.st172{opacity:0.1529;fill:#BFB6EE;}
	.st173{opacity:0.1592;fill:#BEB5ED;}
	.st174{opacity:0.1656;fill:#BDB4EC;}
	.st175{opacity:0.172;fill:#BCB3EC;}
	.st176{opacity:0.1783;fill:#BBB3EB;}
	.st177{opacity:0.1847;fill:#BAB2EA;}
	.st178{opacity:0.1911;fill:#B9B1E9;}
	.st179{opacity:0.1975;fill:#B8B0E9;}
	.st180{opacity:0.2038;fill:#B7B0E8;}
	.st181{opacity:0.2102;fill:#B6AFE7;}
	.st182{opacity:0.2166;fill:#B5AEE7;}
	.st183{opacity:0.2229;fill:#B4ADE6;}
	.st184{opacity:0.2293;fill:#B3ACE5;}
	.st185{opacity:0.2357;fill:#B2ACE4;}
	.st186{opacity:0.242;fill:#B1ABE4;}
	.st187{opacity:0.2484;fill:#B0AAE3;}
	.st188{opacity:0.2548;fill:#AFA9E2;}
	.st189{opacity:0.2611;fill:#AEA9E1;}
	.st190{opacity:0.2675;fill:#ADA8E1;}
	.st191{opacity:0.2739;fill:#ACA7E0;}
	.st192{opacity:0.2803;fill:#ABA6DF;}
	.st193{opacity:0.2866;fill:#AAA6DF;}
	.st194{opacity:0.293;fill:#A9A5DE;}
	.st195{opacity:0.2994;fill:#A8A4DD;}
	.st196{opacity:0.3057;fill:#A7A3DC;}
	.st197{opacity:0.3121;fill:#A6A3DC;}
	.st198{opacity:0.3185;fill:#A5A2DB;}
	.st199{opacity:0.3248;fill:#A4A1DA;}
	.st200{opacity:0.3312;fill:#A3A0DA;}
	.st201{opacity:0.3376;fill:#A29FD9;}
	.st202{opacity:0.3439;fill:#A19FD8;}
	.st203{opacity:0.3503;fill:#A09ED7;}
	.st204{opacity:0.3567;fill:#9F9DD7;}
	.st205{opacity:0.3631;fill:#9E9CD6;}
	.st206{opacity:0.3694;fill:#9D9CD5;}
	.st207{opacity:0.3758;fill:#9C9BD5;}
	.st208{opacity:0.3822;fill:#9B9AD4;}
	.st209{opacity:0.3885;fill:#9A99D3;}
	.st210{opacity:0.3949;fill:#9999D2;}
	.st211{opacity:0.4013;fill:#9898D2;}
	.st212{opacity:0.4076;fill:#9797D1;}
	.st213{opacity:0.414;fill:#9696D0;}
	.st214{opacity:0.4204;fill:#9596CF;}
	.st215{opacity:0.4268;fill:#9495CF;}
	.st216{opacity:0.4331;fill:#9394CE;}
	.st217{opacity:0.4395;fill:#9293CD;}
	.st218{opacity:0.4459;fill:#9192CD;}
	.st219{opacity:0.4522;fill:#9092CC;}
	.st220{opacity:0.4586;fill:#8F91CB;}
	.st221{opacity:0.465;fill:#8E90CA;}
	.st222{opacity:0.4713;fill:#8D8FCA;}
	.st223{opacity:0.4777;fill:#8C8FC9;}
	.st224{opacity:0.4841;fill:#8B8EC8;}
	.st225{opacity:0.4904;fill:#8A8DC8;}
	.st226{opacity:0.4968;fill:#898CC7;}
	.st227{opacity:0.5032;fill:#888CC6;}
	.st228{opacity:0.5096;fill:#878BC5;}
	.st229{opacity:0.5159;fill:#868AC5;}
	.st230{opacity:0.5223;fill:#8589C4;}
	.st231{opacity:0.5287;fill:#8489C3;}
	.st232{opacity:0.535;fill:#8388C3;}
	.st233{opacity:0.5414;fill:#8287C2;}
	.st234{opacity:0.5478;fill:#8186C1;}
	.st235{opacity:0.5541;fill:#8086C0;}
	.st236{opacity:0.5605;fill:#7F85C0;}
	.st237{opacity:0.5669;fill:#7E84BF;}
	.st238{opacity:0.5732;fill:#7D83BE;}
	.st239{opacity:0.5796;fill:#7C82BE;}
	.st240{opacity:0.586;fill:#7B82BD;}
	.st241{opacity:0.5924;fill:#7A81BC;}
	.st242{opacity:0.5987;fill:#7980BB;}
	.st243{opacity:0.6051;fill:#787FBB;}
	.st244{opacity:0.6115;fill:#777FBA;}
	.st245{opacity:0.6178;fill:#767EB9;}
	.st246{opacity:0.6242;fill:#757DB8;}
	.st247{opacity:0.6306;fill:#747CB8;}
	.st248{opacity:0.6369;fill:#737CB7;}
	.st249{opacity:0.6433;fill:#727BB6;}
	.st250{opacity:0.6497;fill:#717AB6;}
	.st251{opacity:0.6561;fill:#7079B5;}
	.st252{opacity:0.6624;fill:#6F79B4;}
	.st253{opacity:0.6688;fill:#6E78B3;}
	.st254{opacity:0.6752;fill:#6D77B3;}
	.st255{opacity:0.6815;fill:#6C76B2;}
	.st256{opacity:0.6879;fill:#6B75B1;}
	.st257{opacity:0.6943;fill:#6A75B1;}
	.st258{opacity:0.7006;fill:#6974B0;}
	.st259{opacity:0.707;fill:#6873AF;}
	.st260{opacity:0.7134;fill:#6772AE;}
	.st261{opacity:0.7197;fill:#6672AE;}
	.st262{opacity:0.7261;fill:#6571AD;}
	.st263{opacity:0.7325;fill:#6470AC;}
	.st264{opacity:0.7389;fill:#636FAC;}
	.st265{opacity:0.7452;fill:#626FAB;}
	.st266{opacity:0.7516;fill:#616EAA;}
	.st267{opacity:0.758;fill:#606DA9;}
	.st268{opacity:0.7643;fill:#5F6CA9;}
	.st269{opacity:0.7707;fill:#5E6CA8;}
	.st270{opacity:0.7771;fill:#5D6BA7;}
	.st271{opacity:0.7834;fill:#5C6AA6;}
	.st272{opacity:0.7898;fill:#5B69A6;}
	.st273{opacity:0.7962;fill:#5A68A5;}
	.st274{opacity:0.8025;fill:#5968A4;}
	.st275{opacity:0.8089;fill:#5867A4;}
	.st276{opacity:0.8153;fill:#5766A3;}
	.st277{opacity:0.8217;fill:#5665A2;}
	.st278{opacity:0.828;fill:#5565A1;}
	.st279{opacity:0.8344;fill:#5464A1;}
	.st280{opacity:0.8408;fill:#5363A0;}
	.st281{opacity:0.8471;fill:#52629F;}
	.st282{opacity:0.8535;fill:#51629F;}
	.st283{opacity:0.8599;fill:#50619E;}
	.st284{opacity:0.8662;fill:#4F609D;}
	.st285{opacity:0.8726;fill:#4E5F9C;}
	.st286{opacity:0.879;fill:#4D5F9C;}
	.st287{opacity:0.8854;fill:#4C5E9B;}
	.st288{opacity:0.8917;fill:#4B5D9A;}
	.st289{opacity:0.8981;fill:#4A5C9A;}
	.st290{opacity:0.9045;fill:#495B99;}
	.st291{opacity:0.9108;fill:#485B98;}
	.st292{opacity:0.9172;fill:#475A97;}
	.st293{opacity:0.9236;fill:#465997;}
	.st294{opacity:0.9299;fill:#455896;}
	.st295{opacity:0.9363;fill:#445895;}
	.st296{opacity:0.9427;fill:#435794;}
	.st297{opacity:0.949;fill:#425694;}
	.st298{opacity:0.9554;fill:#415593;}
	.st299{opacity:0.9618;fill:#405592;}
	.st300{opacity:0.9682;fill:#3F5492;}
	.st301{opacity:0.9745;fill:#3E5391;}
	.st302{opacity:0.9809;fill:#3D5290;}
	.st303{opacity:0.9873;fill:#3C528F;}
	.st304{opacity:0.9936;fill:#3B518F;}
	.st305{fill:#3A508E;}
	.st306{clip-path:url(#SVGID_22_);enable-background:new    ;}
	.st307{fill:#70166B;}
	.st308{fill:#74176F;}
	.st309{fill:#781873;}
	.st310{fill:#7D1977;}
	.st311{fill:#811A7B;}
	.st312{fill:#851B7F;}
	.st313{fill:#8A1C83;}
	.st314{fill:#8E1C87;}
	.st315{fill:#921D8B;}
	.st316{clip-path:url(#SVGID_24_);enable-background:new    ;}
	.st317{fill:#616B85;}
	.st318{fill:#656F8A;}
	.st319{fill:#69738F;}
	.st320{fill:#6C7794;}
	.st321{fill:#707B99;}
	.st322{fill:#747F9E;}
	.st323{fill:#7883A3;}
	.st324{fill:#7B87A8;}
	.st325{fill:#7F8BAD;}
	.st326{clip-path:url(#SVGID_26_);enable-background:new    ;}
	.st327{fill:#9D1F95;}
	.st328{clip-path:url(#SVGID_28_);enable-background:new    ;}
	.st329{clip-path:url(#SVGID_30_);enable-background:new    ;}
	.st330{fill:#767385;}
	.st331{fill:#6C1667;}
	.st332{clip-path:url(#SVGID_32_);enable-background:new    ;}
	.st333{fill:#7C798C;}
	.st334{clip-path:url(#SVGID_34_);enable-background:new    ;}
	.st335{fill:#918DA3;}
	.st336{fill:#9592A8;}
	.st337{fill:#9A96AD;}
	.st338{fill:#8C899E;}
	.st339{fill:#888599;}
	.st340{fill:#838094;}
	.st341{fill:#7F7C8F;}
	.st342{fill:#7A778A;}
	.st343{fill:url(#SVGID_35_);}
	.st344{fill:url(#SVGID_36_);}
	.st345{fill:url(#SVGID_37_);}
	.st346{fill:url(#SVGID_38_);}
	.st347{fill:url(#SVGID_39_);}
	.st348{opacity:0;fill:#012B7E;}
	.st349{opacity:0.0278;fill:#012B7E;}
	.st350{opacity:0.0556;fill:#012B7E;}
	.st351{opacity:0.0833;fill:#012B7E;}
	.st352{opacity:0.1111;fill:#012B7E;}
	.st353{opacity:0.1389;fill:#012B7E;}
	.st354{opacity:0.1667;fill:#012B7E;}
	.st355{opacity:0.1944;fill:#012B7E;}
	.st356{opacity:0.2222;fill:#012B7E;}
	.st357{opacity:0.25;fill:#012B7E;}
	.st358{opacity:0.2778;fill:#012B7E;}
	.st359{opacity:0.3056;fill:#012B7E;}
	.st360{opacity:0.3333;fill:#012B7E;}
	.st361{opacity:0.3611;fill:#012B7E;}
	.st362{opacity:0.3889;fill:#012B7E;}
	.st363{opacity:0.4167;fill:#012B7E;}
	.st364{opacity:0.4444;fill:#012B7E;}
	.st365{opacity:0.4722;fill:#012B7E;}
	.st366{opacity:0.5;fill:#012B7E;}
	.st367{opacity:0.5278;fill:#012B7E;}
	.st368{opacity:0.5556;fill:#012B7E;}
	.st369{opacity:0.5833;fill:#012B7E;}
	.st370{opacity:0.6111;fill:#012B7E;}
	.st371{opacity:0.6389;fill:#012B7E;}
	.st372{opacity:0.6667;fill:#012B7E;}
	.st373{opacity:0.6944;fill:#012B7E;}
	.st374{opacity:0.7222;fill:#012B7E;}
	.st375{opacity:0.75;fill:#012B7E;}
	.st376{opacity:0.7778;fill:#012B7E;}
	.st377{opacity:0.8056;fill:#012B7E;}
	.st378{opacity:0.8333;fill:#012B7E;}
	.st379{opacity:0.8611;fill:#012B7E;}
	.st380{opacity:0.8889;fill:#012B7E;}
	.st381{opacity:0.9167;fill:#012B7E;}
	.st382{opacity:0.9444;fill:#012B7E;}
	.st383{opacity:0.9722;fill:#012B7E;}
	.st384{fill:#012B7E;}
	.st385{fill:url(#SVGID_40_);}
	.st386{fill:url(#SVGID_41_);}
	.st387{fill:url(#SVGID_42_);}
	.st388{fill:url(#SVGID_43_);}
	.st389{fill:url(#SVGID_44_);}
	.st390{fill:url(#SVGID_45_);}
	.st391{fill:url(#SVGID_46_);}
	.st392{fill:url(#SVGID_47_);}
	.st393{clip-path:url(#SVGID_49_);}
	.st394{fill:#412121;}
	.st395{fill:#87A8DC;}
	.st396{opacity:0.8;clip-path:url(#SVGID_49_);}
	.st397{opacity:0.7;}
	.st398{fill:url(#SVGID_50_);}
	.st399{fill:url(#SVGID_51_);}
	.st400{fill:url(#SVGID_52_);}
	.st401{fill:url(#SVGID_53_);}
	.st402{fill:url(#SVGID_54_);}
	.st403{fill:url(#SVGID_55_);}
	.st404{opacity:0;fill:#BECBF7;}
	.st405{opacity:0.0108;fill:#BDCAF6;}
	.st406{opacity:0.0215;fill:#BBC8F5;}
	.st407{opacity:0.0323;fill:#BAC7F4;}
	.st408{opacity:0.043;fill:#B8C6F2;}
	.st409{opacity:0.0538;fill:#B7C4F1;}
	.st410{opacity:0.0645;fill:#B5C3F0;}
	.st411{opacity:0.0753;fill:#B4C2EF;}
	.st412{opacity:0.086;fill:#B3C0EE;}
	.st413{opacity:0.0968;fill:#B1BFED;}
	.st414{opacity:0.1075;fill:#B0BEEC;}
	.st415{opacity:0.1183;fill:#AEBCEB;}
	.st416{opacity:0.129;fill:#ADBBE9;}
	.st417{opacity:0.1398;fill:#ACBAE8;}
	.st418{opacity:0.1505;fill:#AAB8E7;}
	.st419{opacity:0.1613;fill:#A9B7E6;}
	.st420{opacity:0.172;fill:#A7B6E5;}
	.st421{opacity:0.1828;fill:#A6B5E4;}
	.st422{opacity:0.1935;fill:#A4B3E3;}
	.st423{opacity:0.2043;fill:#A3B2E2;}
	.st424{opacity:0.2151;fill:#A2B1E0;}
	.st425{opacity:0.2258;fill:#A0AFDF;}
	.st426{opacity:0.2366;fill:#9FAEDE;}
	.st427{opacity:0.2473;fill:#9DADDD;}
	.st428{opacity:0.2581;fill:#9CABDC;}
	.st429{opacity:0.2688;fill:#9BAADB;}
	.st430{opacity:0.2796;fill:#99A9DA;}
	.st431{opacity:0.2903;fill:#98A7D9;}
	.st432{opacity:0.3011;fill:#96A6D7;}
	.st433{opacity:0.3118;fill:#95A5D6;}
	.st434{opacity:0.3226;fill:#93A3D5;}
	.st435{opacity:0.3333;fill:#92A2D4;}
	.st436{opacity:0.3441;fill:#91A1D3;}
	.st437{opacity:0.3548;fill:#8F9FD2;}
	.st438{opacity:0.3656;fill:#8E9ED1;}
	.st439{opacity:0.3763;fill:#8C9DCF;}
	.st440{opacity:0.3871;fill:#8B9BCE;}
	.st441{opacity:0.3978;fill:#899ACD;}
	.st442{opacity:0.4086;fill:#8899CC;}
	.st443{opacity:0.4194;fill:#8797CB;}
	.st444{opacity:0.4301;fill:#8596CA;}
	.st445{opacity:0.4409;fill:#8495C9;}
	.st446{opacity:0.4516;fill:#8293C8;}
	.st447{opacity:0.4624;fill:#8192C6;}
	.st448{opacity:0.4731;fill:#8091C5;}
	.st449{opacity:0.4839;fill:#7E8FC4;}
	.st450{opacity:0.4946;fill:#7D8EC3;}
	.st451{opacity:0.5054;fill:#7B8DC2;}
	.st452{opacity:0.5161;fill:#7A8CC1;}
	.st453{opacity:0.5269;fill:#788AC0;}
	.st454{opacity:0.5376;fill:#7789BF;}
	.st455{opacity:0.5484;fill:#7688BD;}
	.st456{opacity:0.5591;fill:#7486BC;}
	.st457{opacity:0.5699;fill:#7385BB;}
	.st458{opacity:0.5806;fill:#7184BA;}
	.st459{opacity:0.5914;fill:#7082B9;}
	.st460{opacity:0.6022;fill:#6F81B8;}
	.st461{opacity:0.6129;fill:#6D80B7;}
	.st462{opacity:0.6237;fill:#6C7EB6;}
	.st463{opacity:0.6344;fill:#6A7DB4;}
	.st464{opacity:0.6452;fill:#697CB3;}
	.st465{opacity:0.6559;fill:#677AB2;}
	.st466{opacity:0.6667;fill:#6679B1;}
	.st467{opacity:0.6774;fill:#6578B0;}
	.st468{opacity:0.6882;fill:#6376AF;}
	.st469{opacity:0.6989;fill:#6275AE;}
	.st470{opacity:0.7097;fill:#6074AC;}
	.st471{opacity:0.7204;fill:#5F72AB;}
	.st472{opacity:0.7312;fill:#5D71AA;}
	.st473{opacity:0.7419;fill:#5C70A9;}
	.st474{opacity:0.7527;fill:#5B6EA8;}
	.st475{opacity:0.7634;fill:#596DA7;}
	.st476{opacity:0.7742;fill:#586CA6;}
	.st477{opacity:0.7849;fill:#566AA5;}
	.st478{opacity:0.7957;fill:#5569A3;}
	.st479{opacity:0.8065;fill:#5468A2;}
	.st480{opacity:0.8172;fill:#5266A1;}
	.st481{opacity:0.828;fill:#5165A0;}
	.st482{opacity:0.8387;fill:#4F649F;}
	.st483{opacity:0.8495;fill:#4E639E;}
	.st484{opacity:0.8602;fill:#4C619D;}
	.st485{opacity:0.871;fill:#4B609C;}
	.st486{opacity:0.8817;fill:#4A5F9A;}
	.st487{opacity:0.8925;fill:#485D99;}
	.st488{opacity:0.9032;fill:#475C98;}
	.st489{opacity:0.914;fill:#455B97;}
	.st490{opacity:0.9247;fill:#445996;}
	.st491{opacity:0.9355;fill:#435895;}
	.st492{opacity:0.9462;fill:#415794;}
	.st493{opacity:0.957;fill:#405593;}
	.st494{opacity:0.9677;fill:#3E5491;}
	.st495{opacity:0.9785;fill:#3D5390;}
	.st496{opacity:0.9892;fill:#3B518F;}
	.st497{fill:url(#SVGID_56_);}
	.st498{fill:url(#SVGID_57_);}
	.st499{fill:url(#SVGID_58_);}
	.st500{fill:url(#SVGID_59_);}
	.st501{fill:url(#SVGID_60_);}
	.st502{clip-path:url(#SVGID_62_);}
	.st503{fill:#FA4542;}
	.st504{opacity:0.8;clip-path:url(#SVGID_62_);}
	.st505{fill:url(#SVGID_63_);}
	.st506{fill:url(#SVGID_64_);}
	.st507{opacity:0.7;fill:url(#SVGID_65_);}
	.st508{fill:url(#SVGID_66_);}
	.st509{fill:url(#SVGID_67_);}
	.st510{clip-path:url(#SVGID_69_);}
	.st511{fill:#1479DA;}
	.st512{opacity:0.8;clip-path:url(#SVGID_69_);}
	.st513{fill:url(#SVGID_70_);}
	.st514{clip-path:url(#SVGID_72_);}
	.st515{fill:#1278DA;}
	.st516{opacity:0.8;clip-path:url(#SVGID_72_);}
	.st517{fill:url(#SVGID_73_);}
	.st518{clip-path:url(#SVGID_75_);}
	.st519{fill:#127ADB;}
	.st520{opacity:0.8;clip-path:url(#SVGID_75_);}
	.st521{fill:url(#SVGID_76_);}
	.st522{clip-path:url(#SVGID_78_);}
	.st523{opacity:0.8;clip-path:url(#SVGID_78_);}
	.st524{fill:url(#SVGID_79_);}
	.st525{clip-path:url(#SVGID_81_);}
	.st526{fill:url(#SVGID_82_);}
	.st527{fill:url(#SVGID_83_);}
	.st528{opacity:0.8;clip-path:url(#SVGID_81_);}
	.st529{fill:url(#SVGID_84_);}
	.st530{clip-path:url(#SVGID_86_);}
	.st531{fill:#187FDF;}
	.st532{opacity:0.8;clip-path:url(#SVGID_86_);}
	.st533{fill:url(#SVGID_87_);}
	.st534{clip-path:url(#SVGID_89_);}
	.st535{fill:#0E70D3;}
	.st536{opacity:0.8;clip-path:url(#SVGID_89_);}
	.st537{fill:url(#SVGID_90_);}
	.st538{clip-path:url(#SVGID_92_);fill:#FFFFFF;}
	.st539{clip-path:url(#SVGID_92_);fill:#0071C1;}
	.st540{opacity:0.8;clip-path:url(#SVGID_92_);}
	.st541{clip-path:url(#SVGID_92_);}
	.st542{opacity:0.7;fill:#8B7BC8;}
	.st543{fill:url(#SVGID_93_);}
	.st544{fill:url(#SVGID_94_);}
	.st545{fill:#003B64;}
	.st546{fill:#003D68;}
	.st547{fill:url(#SVGID_95_);}
	.st548{opacity:0.7;fill:url(#SVGID_96_);}
	.st549{fill:url(#SVGID_97_);}
	.st550{fill:url(#SVGID_98_);}
	.st551{clip-path:url(#SVGID_100_);}
	.st552{opacity:0.8;clip-path:url(#SVGID_100_);}
	.st553{fill:url(#SVGID_101_);}
	.st554{fill:url(#SVGID_102_);}
	.st555{fill:url(#SVGID_103_);}
	.st556{fill:url(#SVGID_104_);}
	.st557{fill:url(#SVGID_105_);}
	.st558{opacity:0.7;fill:url(#SVGID_106_);}
	.st559{fill:url(#SVGID_107_);}
	.st560{fill:url(#SVGID_108_);}
	.st561{fill:url(#SVGID_109_);}
	.st562{fill:url(#SVGID_110_);}
	.st563{fill:url(#SVGID_111_);}
	.st564{fill:url(#SVGID_112_);}
	.st565{opacity:0.7;fill:url(#SVGID_113_);}
	.st566{fill:url(#SVGID_114_);}
	.st567{clip-path:url(#SVGID_116_);fill:#FF3B62;}
	.st568{clip-path:url(#SVGID_116_);fill:#412121;}
	.st569{clip-path:url(#SVGID_116_);fill:#FFFFFF;}
	.st570{opacity:0.8;clip-path:url(#SVGID_116_);}
	.st571{clip-path:url(#SVGID_116_);}
	.st572{fill:url(#SVGID_117_);}
	.st573{fill:url(#SVGID_118_);}
	.st574{opacity:0;fill:#3A508E;}
	.st575{opacity:0.02;fill:#3A508E;}
	.st576{opacity:0.04;fill:#3A508E;}
	.st577{opacity:0.06;fill:#3A508E;}
	.st578{opacity:0.08;fill:#3A508E;}
	.st579{opacity:0.1;fill:#3A508E;}
	.st580{opacity:0.12;fill:#3A508E;}
	.st581{opacity:0.14;fill:#3A508E;}
	.st582{opacity:0.16;fill:#3A508E;}
	.st583{opacity:0.18;fill:#3A508E;}
	.st584{opacity:0.2;fill:#3A508E;}
	.st585{opacity:0.22;fill:#3A508E;}
	.st586{opacity:0.24;fill:#3A508E;}
	.st587{opacity:0.26;fill:#3A508E;}
	.st588{opacity:0.28;fill:#3A508E;}
	.st589{opacity:0.3;fill:#3A508E;}
	.st590{opacity:0.32;fill:#3A508E;}
	.st591{opacity:0.34;fill:#3A508E;}
	.st592{opacity:0.36;fill:#3A508E;}
	.st593{opacity:0.38;fill:#3A508E;}
	.st594{opacity:0.4;fill:#3A508E;}
	.st595{opacity:0.42;fill:#3A508E;}
	.st596{opacity:0.44;fill:#3A508E;}
	.st597{opacity:0.46;fill:#3A508E;}
	.st598{opacity:0.48;fill:#3A508E;}
	.st599{opacity:0.5;fill:#3A508E;}
	.st600{opacity:0.52;fill:#3A508E;}
	.st601{opacity:0.54;fill:#3A508E;}
	.st602{opacity:0.56;fill:#3A508E;}
	.st603{opacity:0.58;fill:#3A508E;}
	.st604{opacity:0.6;fill:#3A508E;}
	.st605{opacity:0.62;fill:#3A508E;}
	.st606{opacity:0.64;fill:#3A508E;}
	.st607{opacity:0.66;fill:#3A508E;}
	.st608{opacity:0.68;fill:#3A508E;}
	.st609{opacity:0.7;fill:#3A508E;}
	.st610{opacity:0.72;fill:#3A508E;}
	.st611{opacity:0.74;fill:#3A508E;}
	.st612{opacity:0.76;fill:#3A508E;}
	.st613{opacity:0.78;fill:#3A508E;}
	.st614{opacity:0.8;fill:#3A508E;}
	.st615{opacity:0.82;fill:#3A508E;}
	.st616{opacity:0.84;fill:#3A508E;}
	.st617{opacity:0.86;fill:#3A508E;}
	.st618{opacity:0.88;fill:#3A508E;}
	.st619{opacity:0.9;fill:#3A508E;}
	.st620{opacity:0.92;fill:#3A508E;}
	.st621{opacity:0.94;fill:#3A508E;}
	.st622{opacity:0.96;fill:#3A508E;}
	.st623{opacity:0.98;fill:#3A508E;}
	.st624{fill:url(#SVGID_119_);}
	.st625{fill:url(#SVGID_120_);}
	.st626{clip-path:url(#SVGID_122_);}
	.st627{fill:url(#SVGID_123_);}
	.st628{fill:url(#SVGID_124_);}
	.st629{clip-path:url(#SVGID_126_);}
	.st630{fill:url(#SVGID_127_);}
	.st631{fill:url(#SVGID_128_);}
	.st632{fill:url(#SVGID_129_);}
</style>
<g>
	<g>
		<path class="st45" d="M81.6,241.06c0,0-23.9,102.13,42.67,191.11s182.62,123.56,275.9,154.05c93.28,30.49,180.65-4.71,213.42-83.1
			s-33.42-120.62-48.02-223c-14.6-102.39-2.94-131.87-71.03-209.83S286.72-5.8,192.25,74.24C97.79,154.28,81.6,241.06,81.6,241.06z"
			/>
		<path class="st101" d="M81.6,241.06c0,0-23.9,102.13,42.67,191.11s182.62,123.56,275.9,154.05
			c93.28,30.49,180.65-4.71,213.42-83.1s-33.42-120.62-48.02-223c-14.6-102.39-2.94-131.87-71.03-209.83S286.72-5.8,192.25,74.24
			C97.79,154.28,81.6,241.06,81.6,241.06z"/>
	</g>
	<g>
		<circle class="st81" cx="502.47" cy="76.28" r="54.23"/>
		
			<ellipse transform="matrix(0.9267 -0.3759 0.3759 0.9267 8.1755 194.4697)" class="st5" cx="502.47" cy="76.28" rx="47.04" ry="47.04"/>
		<polyline class="st102" points="471.96,84.93 502.47,76.28 502.47,33.6 		"/>
	</g>
	<g>
		<polygon class="st81" points="239.33,318.75 179.79,318.75 101.84,109.54 161.38,109.54 		"/>
		<polygon class="st77" points="239.33,318.75 179.79,318.75 101.84,109.54 161.38,109.54 		"/>
		<path class="st81" d="M145.47,160.63h-15.31c-1.91,0-4.03-1.55-4.74-3.46l-5.91-15.87c-0.71-1.91,0.26-3.46,2.17-3.46h15.31
			c1.91,0,4.03,1.55,4.74,3.46l5.91,15.87C148.35,159.08,147.38,160.63,145.47,160.63z"/>
		<polygon class="st81" points="165.32,120.11 105.78,120.11 101.84,109.54 161.38,109.54 		"/>
		<g>
			<line class="st103" x1="126.12" y1="121.84" x2="127.83" y2="126.43"/>
			<line class="st103" x1="128.42" y1="121.84" x2="130.13" y2="126.43"/>
			<line class="st103" x1="130.71" y1="121.84" x2="132.42" y2="126.43"/>
			<line class="st103" x1="133" y1="121.84" x2="134.71" y2="126.43"/>
			<line class="st103" x1="135.3" y1="121.84" x2="137.01" y2="126.43"/>
			<line class="st103" x1="137.59" y1="121.84" x2="139.3" y2="126.43"/>
			<line class="st103" x1="139.89" y1="121.84" x2="141.6" y2="126.43"/>
			<line class="st103" x1="142.18" y1="121.84" x2="143.89" y2="126.43"/>
			<line class="st103" x1="144.48" y1="121.84" x2="146.19" y2="126.43"/>
			<line class="st103" x1="146.77" y1="121.84" x2="148.48" y2="126.43"/>
		</g>
		<g>
			<path class="st5" d="M140.52,150.68l-14.42-9.14c-0.34-0.22-0.72-0.25-0.96-0.1c-0.24,0.16-0.29,0.48-0.14,0.81l6.6,14.25
				c0.16,0.35,0.52,0.64,0.89,0.73c0.08,0.02,0.15,0.03,0.22,0.03c0.27,0,0.48-0.13,0.55-0.36l1.52-4.69l5.75-0.07
				c0.35,0,0.58-0.23,0.57-0.55C141.11,151.27,140.87,150.91,140.52,150.68z"/>
			<g>
				<polygon class="st81" points="140.23,151.32 125.81,142.18 132.42,156.43 134.05,151.39 				"/>
			</g>
		</g>
		<polygon class="st5" points="167.17,151.32 152.76,142.18 159.36,156.43 161,151.39 		"/>
		<polygon class="st5" points="174.56,159.43 173.26,156.49 171.56,158.96 		"/>
		<polygon class="st5" points="209.4,252.93 208.1,249.99 206.4,252.46 		"/>
		<polygon class="st5" points="220.09,281.62 218.79,278.69 217.09,281.15 		"/>
		<polygon class="st5" points="231.05,311.05 229.75,308.11 228.06,310.58 		"/>
		<polygon class="st5" points="169.66,219.8 168.36,216.86 166.66,219.33 		"/>
		<polygon class="st5" points="182,252.93 180.7,249.99 179,252.46 		"/>
		<polygon class="st5" points="192.69,281.62 191.39,278.69 189.69,281.15 		"/>
		<polygon class="st5" points="203.66,311.05 202.36,308.11 200.66,310.58 		"/>
		<g>
			<polygon class="st5" points="140.51,190.91 143.02,192.53 149.91,178.15 147.4,176.53 			"/>
			<path class="st5" d="M143.6,176.83c-3.64-2.85-3.9-3.42-3.01-6.64c-1.89,2.58-2.44,2.63-6.44,0.53c3.64,2.85,3.9,3.42,3.01,6.64
				C139.05,174.78,139.6,174.74,143.6,176.83z"/>
			<path class="st5" d="M155.63,178.38c-2.25-1.76-2.41-2.11-1.86-4.1c-1.17,1.6-1.51,1.62-3.98,0.33c2.25,1.76,2.41,2.11,1.86,4.1
				C152.82,177.11,153.16,177.09,155.63,178.38z"/>
			<path class="st5" d="M154.95,185.14c-1.61-1.26-1.72-1.51-1.33-2.93c-0.83,1.14-1.07,1.16-2.84,0.24
				c1.61,1.26,1.72,1.51,1.33,2.93C152.94,184.24,153.18,184.22,154.95,185.14z"/>
		</g>
		<polygon class="st5" points="191.1,248.9 192.65,249.99 199.53,235.61 197.98,234.51 		"/>
		<g>
			<g>
				<polygon class="st5" points="185.32,187.2 172.6,179.14 178.43,191.71 179.87,187.26 				"/>
			</g>
			<g>
				<path class="st5" d="M175.75,187.94c-4.66,0-9.48-2.75-10.74-6.13c-1.26-3.38,1.51-6.13,6.17-6.13s9.48,2.75,10.74,6.13
					C183.19,185.19,180.42,187.94,175.75,187.94z M171.46,176.42c-4.26,0-6.82,2.42-5.71,5.39c1.11,2.97,5.47,5.39,9.73,5.39
					s6.82-2.42,5.71-5.39C180.08,178.84,175.72,176.42,171.46,176.42z"/>
			</g>
			<g>
				<path class="st5" d="M170.15,186.71c-1.15,0-2.43-0.93-2.86-2.08c-0.43-1.15,0.16-2.08,1.31-2.08c1.15,0,2.43,0.93,2.86,2.08
					C171.89,185.78,171.3,186.71,170.15,186.71z M168.87,183.28c-0.74,0-1.12,0.6-0.85,1.35c0.28,0.74,1.11,1.35,1.85,1.35
					c0.74,0,1.12-0.6,0.85-1.35C170.45,183.89,169.62,183.28,168.87,183.28z"/>
			</g>
			<g>
				<path class="st5" d="M170.35,188.9l-0.51-0.69c0.92-0.38,1.42-0.94,1.49-1.66c0.09-0.92-0.54-1.78-0.55-1.79l0.6-0.25
					c0.03,0.05,0.85,1.17,0.73,2.35C172.03,187.77,171.44,188.45,170.35,188.9z"/>
			</g>
		</g>
		<g>
			<polygon class="st5" points="162.38,209.64 153.5,203.17 151.62,206.17 160.49,212.64 			"/>
			<path class="st5" d="M148.16,218.01l1.45,1.06l3.25-5.18c-0.37-0.39-0.5-0.89-0.29-1.22c0.25-0.4,0.9-0.4,1.44,0
				c0.55,0.4,0.79,1.04,0.54,1.44c-0.21,0.33-0.69,0.38-1.16,0.16l-3.25,5.18l1.35,0.98l8.03-2.25l0.5-4.74l-8.76-6.39l-4.03,2.16
				L148.16,218.01z"/>
		</g>
		<line class="st103" x1="139.76" y1="197.71" x2="191.01" y2="197.71"/>
		<g>
			<polygon class="st5" points="184.34,203.17 182.45,206.17 191.33,212.64 193.21,209.64 			"/>
			<path class="st5" d="M178.05,209.22l0.95,8.79l1.45,1.06l3.25-5.18c-0.37-0.39-0.5-0.89-0.29-1.22c0.25-0.4,0.9-0.4,1.44,0
				c0.55,0.4,0.79,1.04,0.54,1.44c-0.21,0.33-0.69,0.38-1.16,0.16l-3.25,5.18l1.35,0.98l8.03-2.25l0.5-4.74l-8.76-6.39
				L178.05,209.22z"/>
			<path class="st5" d="M175.85,211.8c0.08-0.62,0.17-1.29,0.23-2.04c0.12-1.51-0.3-2.86-1.26-4c-1.52-1.8-3.8-2.38-3.9-2.41
				c-0.24-0.06-0.43,0.07-0.4,0.29c0.02,0.22,0.24,0.45,0.48,0.51c0.02,0,1.97,0.5,3.2,1.96c0.76,0.91,1.1,2.02,0.99,3.3
				c-0.06,0.74-0.15,1.4-0.23,2.01c-0.43,3.19-0.69,5.11,4.61,8.28c0.1,0.06,0.2,0.09,0.29,0.09c0.12,0,0.23-0.06,0.27-0.16
				c0.07-0.18-0.06-0.44-0.29-0.58C175.25,216.3,175.43,214.98,175.85,211.8z"/>
		</g>
		<path class="st5" d="M153.17,233.13l0.31,0.83c0.11,0.29,1.08,2.87,1.6,3.75l1.49-0.36c-0.24-0.4-0.72-1.57-1.11-2.56h6.33
			l5.3,14.22h-2.37l0.62,1.67h6.41l-0.62-1.67h-2.37l-5.3-14.22h6.16c0.34,0.9,0.86,2.3,1.11,2.99l1.67,0
			c-0.4-1.07-1.42-3.83-1.42-3.83l-0.31-0.83H153.17z"/>
		<g>
			<path class="st104" d="M186.47,272.57c1.36,3.66-1.64,6.62-6.7,6.62c-5.06,0-10.27-2.96-11.63-6.62
				c-1.36-3.66,1.64-6.62,6.7-6.62S185.11,268.92,186.47,272.57z"/>
			<path class="st105" d="M186.47,272.57c1.36,3.66-1.64,6.62-6.7,6.62c-5.06,0-10.27-2.96-11.63-6.62
				c-1.36-3.66,1.64-6.62,6.7-6.62S185.11,268.92,186.47,272.57z"/>
		</g>
		<g>
			<path class="st5" d="M205.34,272.76l6.01-10.92c0.25-0.45,0.89-0.55,1.54-0.23l0,0c0.77,0.38,1.26,1.2,1.1,1.81l-3.24,12.07
				L205.34,272.76z"/>
			<path class="st5" d="M204.35,273.68c2.37-0.31,6.99,1.7,7.12,4.76c0.03,0.77-0.48,1.29-1.07,1.65c-1.78,1.09-4.3,1.14-6.73,1.16
				c0.58-0.41,0.83-1.18,0.64-2.01c-0.19-0.86-0.78-1.72-1.09-2.59C202.78,275.43,203.01,273.77,204.35,273.68"/>
		</g>
		<g>
			<path class="st5" d="M191.83,297.66c-0.7-1.53-1.58-2.47-2.18-2.99l-1.81,2.89c0.7,0.59,1.72,1.66,2.51,3.38
				c0.7,1.54,1.34,2.63,1.81,3.33l1.78-2.83C193.36,300.63,192.59,299.31,191.83,297.66z"/>
			<path class="st5" d="M189.74,301c-0.7-1.53-1.58-2.47-2.18-2.99l-1.81,2.89c0.7,0.59,1.72,1.66,2.51,3.38
				c0.7,1.54,1.34,2.63,1.81,3.33l1.78-2.83C191.26,303.97,190.5,302.66,189.74,301z"/>
			<path class="st5" d="M192.45,297.6c0.7,1.54,1.34,2.63,1.81,3.33l2.62-4.18l-5.86-4.27l-1.08,1.73
				C190.64,294.81,191.66,295.88,192.45,297.6z"/>
			<path class="st5" d="M187.64,304.34c-0.7-1.53-1.58-2.47-2.18-2.99l-1.52,2.42l0.26,5.52c0.02,0.38,0.52,0.74,0.85,0.61
				l4.66-1.83C189.13,307.26,188.38,305.96,187.64,304.34z M185.58,308.03l-0.14-2.93l2.67,1.94L185.58,308.03z"/>
		</g>
		<path class="st5" d="M210.62,300.26l-2,3.19l10.31,7.51l2-3.19l0.62,0.46l4.71-7.51l-11.56-8.42l-4.71,7.51L210.62,300.26z
			 M218.25,309.14l-7.81-5.69l1.43-2.28l7.81,5.69L218.25,309.14z"/>
		<g>
			<polygon class="st5" points="113.33,112.33 113.71,113.34 112.28,115.1 115.02,116.86 115.4,117.87 111.08,115.1 			"/>
			<polygon class="st5" points="109.73,112.33 110.11,113.34 108.68,115.1 111.42,116.86 111.8,117.87 107.48,115.1 			"/>
		</g>
	</g>
	<g>
		<polygon class="st81" points="354.66,235 231.5,235 193.85,129.98 317.01,129.98 		"/>
		<polygon class="st57" points="345.92,229.27 236.13,229.27 202.59,135.71 312.38,135.71 		"/>
		<polygon class="st5" points="325.04,171.04 306.89,157.67 292.55,194.91 255.37,184.4 236.13,229.27 345.92,229.27 		"/>
		<path class="st5" d="M249.4,155.76c-2.55-7.12-10.39-12.89-17.51-12.89c-7.12,0-10.82,5.77-8.27,12.89
			c2.55,7.12,10.39,12.89,17.51,12.89C248.25,168.65,251.95,162.88,249.4,155.76z"/>
	</g>
	<polygon class="st81" points="367.42,216.93 244.26,216.93 206.61,111.91 329.77,111.91 	"/>
	<polygon class="st57" points="358.68,211.2 248.89,211.2 215.35,117.64 325.14,117.64 	"/>
	<polygon class="st5" points="337.8,152.96 319.65,139.59 305.31,176.83 268.13,166.33 248.89,211.2 358.68,211.2 	"/>
	<path class="st5" d="M262.16,137.68c-2.55-7.12-10.39-12.89-17.51-12.89c-7.12,0-10.82,5.77-8.27,12.89
		c2.55,7.12,10.39,12.89,17.51,12.89S264.71,144.8,262.16,137.68z"/>
	<g>
		<g>
			<path d="M367.97,95.43l2.97,7.18h-0.86c-0.63-1.26-1.18-2.17-1.67-2.71c-0.79-0.87-1.64-1.52-2.57-1.93
				c-0.93-0.41-2.02-0.62-3.29-0.62h-4.31l8.56,23.4c0.69,1.88,1.32,3.06,1.9,3.52c0.8,0.63,1.8,0.95,2.99,0.95h1.06l0.31,0.84
				h-12.99l-0.31-0.84h1.08c1.3,0,2.07-0.39,2.33-1.17c0.15-0.48-0.08-1.58-0.71-3.3l-8.56-23.4h-3.68c-1.43,0-2.41,0.11-2.93,0.32
				c-0.68,0.29-1.15,0.84-1.41,1.65c-0.26,0.81-0.19,1.91,0.21,3.3h-0.86l-2.27-7.18H367.97z"/>
		</g>
		<line class="st106" x1="386.62" y1="109.86" x2="395.99" y2="109.86"/>
		<polygon class="st106" points="395.69,134.69 348.53,134.69 331.07,86.93 378.22,86.93 		"/>
		<polygon class="st107" points="341.82,111.62 338.28,111.62 336.99,108.09 340.52,108.09 		"/>
		<polygon class="st107" points="389.03,111.62 385.5,111.62 384.2,108.09 387.74,108.09 		"/>
		<polygon class="st107" points="333.53,88.96 329.99,88.96 328.7,85.43 332.24,85.43 		"/>
		<polygon class="st107" points="380.74,88.96 377.21,88.96 375.92,85.43 379.45,85.43 		"/>
		<polygon class="st107" points="357.15,88.96 353.62,88.96 352.33,85.43 355.86,85.43 		"/>
		<polygon class="st107" points="350.79,136.17 347.26,136.17 345.97,132.64 349.5,132.64 		"/>
		<polygon class="st107" points="398.01,136.17 394.47,136.17 393.18,132.64 396.72,132.64 		"/>
		<line class="st106" x1="372.38" y1="135.53" x2="375.81" y2="144.91"/>
		<polygon class="st107" points="374.42,136.17 370.88,136.17 369.59,132.64 373.13,132.64 		"/>
		<polygon class="st81" points="378.26,146.67 374.72,146.67 373.43,143.14 376.97,143.14 		"/>
		<line class="st106" x1="345.7" y1="125.73" x2="385.32" y2="125.73"/>
		<path class="st81" d="M397.85,109.86c-0.38-1.03-1.51-1.86-2.54-1.86c-1.03,0-1.56,0.83-1.18,1.86c0.38,1.03,1.51,1.86,2.54,1.86
			C397.7,111.72,398.23,110.89,397.85,109.86z"/>
	</g>
	<g>
		<polygon class="st78" points="179.25,363.12 221.98,399.74 181.26,598.99 184.01,598.99 229.31,403.41 270.82,438.2 
			212.21,598.75 215.88,598.14 277.53,441.86 449.07,598.14 553.46,598.14 431.37,358.84 		"/>
		<g>
			<polygon id="XMLID_50_" class="st108" points="184.01,598.99 181.26,598.99 177.12,359.71 188.15,359.71 			"/>
			<polygon id="XMLID_84_" class="st108" points="421.46,598.99 418.7,598.99 414.57,359.71 425.59,359.71 			"/>
			<rect id="XMLID_62_" x="172.91" y="356.01" class="st109" width="265.36" height="6.21"/>
		</g>
	</g>
	<g>
		<g>
			<path class="st109" d="M112.99,484.48l-4.82,10.18c0,0,5.9,6.43,8.58,6.43c2.68,0,3.75-2.68,6.97-3.75
				c3.22-1.07,8.58-11.26,8.58-11.26s-3.22-5.36-6.43-5.9s-8.04-2.14-10.72-2.68C112.45,476.97,112.99,484.48,112.99,484.48z"/>
			<path class="st103" d="M112.99,484.48l3.22,5.36v4.82c0,0,3.22,1.61,4.29,0c1.07-1.61,5.9-6.97,5.9-6.97l-2.14-4.82"/>
			<line class="st103" x1="116.21" y1="494.66" x2="110.31" y2="493.59"/>
		</g>
		<g>
			<path class="st109" d="M205.36,580.91l-10.83,3.1c0,0-0.94,8.68,0.83,10.69c1.77,2.01,4.49,1.05,7.42,2.76
				c2.93,1.71,14.12-0.99,14.12-0.99s1.9-5.95,0.18-8.72s-3.7-7.45-5.07-9.82C210.64,575.55,205.36,580.91,205.36,580.91z"/>
			<path class="st103" d="M205.36,580.91l-1.9,5.95l-3.62,3.19c0,0,0.92,3.48,2.83,3.22c1.92-0.26,9.13-0.17,9.13-0.17l2.21-4.8"/>
			<line class="st103" x1="199.83" y1="590.05" x2="196.75" y2="584.91"/>
		</g>
		<g>
			<path class="st109" d="M95.84,482.33c0,0-9.11,5.9-7.5,9.11c1.61,3.22,2.68,5.36,4.29,6.43c1.61,1.07,6.43,2.68,8.04,1.61
				c1.61-1.07,5.36-3.75,5.9-8.04s2.14-4.82,0.54-6.97C105.49,482.33,95.84,482.33,95.84,482.33z"/>
			<path class="st103" d="M88.33,491.44l6.43,4.29l5.36-0.54l2.14-5.9c0,0,0-3.22-3.22-3.22s-4.82,1.61-4.82,1.61l1.07,3.22"/>
		</g>
		<g>
			<path class="st109" d="M135.5,474.83c0,0-8.04,7.5-6.97,12.86c1.07,5.36,11.26,9.65,11.26,9.65l12.33-6.97l-3.75-9.65l-8.04-4.29
				L135.5,474.83z"/>
			<polyline class="st103" points="128.54,487.69 137.11,490.91 146.76,487.69 143.01,479.12 			"/>
			<polyline class="st103" points="135.5,474.83 134.97,486.08 141.4,488.23 			"/>
		</g>
		<g>
			<path class="st109" d="M159.62,575.6c0,0-8.04,7.5-6.97,12.86c1.07,5.36,11.26,9.65,11.26,9.65l12.33-6.97l-3.75-9.65l-8.04-4.29
				L159.62,575.6z"/>
			<polyline class="st103" points="152.66,588.46 161.23,591.68 170.88,588.46 167.13,579.89 			"/>
			<polyline class="st103" points="159.62,575.6 159.09,586.85 165.52,589 			"/>
		</g>
		<g>
			<path class="st109" d="M106.02,466.79c0,0-8.04,7.5-6.97,12.86c1.07,5.36,11.26,9.65,11.26,9.65l12.33-6.97l-3.75-9.65
				l-8.04-4.29L106.02,466.79z"/>
			<polyline class="st103" points="99.05,479.65 107.63,482.87 117.28,479.65 113.53,471.08 			"/>
			<polyline class="st103" points="106.02,466.79 105.49,478.04 111.92,480.19 			"/>
		</g>
		<g>
			<polygon id="XMLID_37_" class="st108" points="151,598.99 87.39,598.99 77.84,493.54 160.54,493.54 			"/>
		</g>
		<g>
			<path class="st109" d="M108.7,581.49c0,0-9.11,5.9-7.5,9.11c1.61,3.22,2.68,5.36,4.29,6.43c1.61,1.07,6.43,2.68,8.04,1.61
				c1.61-1.07,5.36-3.75,5.9-8.04c0.54-4.29,2.14-4.82,0.54-6.97C118.35,581.49,108.7,581.49,108.7,581.49z"/>
			<path class="st103" d="M101.2,590.61l6.43,4.29l5.36-0.54l2.14-5.9c0,0,0-3.22-3.22-3.22s-4.82,1.61-4.82,1.61l1.07,3.22"/>
		</g>
	</g>
	<g id="XMLID_66_">
		<path id="XMLID_65_" class="st110" d="M277.37,283.09c0,1.66-1.58,3.01-3.53,3.01c-1.95,0-3.53-1.35-3.53-3.01
			c0-1.67,1.58-3.01,3.53-3.01C275.79,280.07,277.37,281.42,277.37,283.09z"/>
		<path id="XMLID_67_" class="st110" d="M280.75,292.28c0,1.66-1.58,3.01-3.53,3.01s-3.53-1.35-3.53-3.01
			c0-1.67,1.58-3.01,3.53-3.01S280.75,290.61,280.75,292.28z"/>
		<path id="XMLID_68_" class="st110" d="M284.14,301.46c0,1.66-1.58,3.01-3.53,3.01s-3.53-1.35-3.53-3.01s1.58-3.01,3.53-3.01
			S284.14,299.8,284.14,301.46z"/>
		<path id="XMLID_69_" class="st110" d="M287.53,310.65c0,1.66-1.58,3.01-3.53,3.01c-1.95,0-3.53-1.35-3.53-3.01
			s1.58-3.01,3.53-3.01C285.95,307.64,287.53,308.99,287.53,310.65z"/>
	</g>
	<polygon id="XMLID_112_" class="st108" points="239.75,355.42 215.59,355.42 211.97,315.37 243.38,315.37 	"/>
	<polygon class="st111" points="242.19,328.54 214.44,342.67 215.59,355.42 228.52,355.42 241.06,341.01 	"/>
	<rect id="XMLID_114_" x="209.17" y="310.58" class="st112" width="37.01" height="8.71"/>
	<g id="XMLID_71_">
		<path id="XMLID_72_" class="st108" d="M311.24,355.88h-43.47c-3.04,0-5.51-2.47-5.51-5.51s2.47-5.51,5.51-5.51h43.47
			c3.04,0,5.51,2.47,5.51,5.51S314.29,355.88,311.24,355.88z"/>
	</g>
	<polygon id="XMLID_63_" class="st108" points="426.85,356.01 293.04,356.01 261.13,269.14 394.94,269.14 	"/>
	<polygon id="XMLID_64_" class="st110" points="418.36,346.98 304.1,346.98 276.85,272.8 391.11,272.8 	"/>
	<g>
		<path id="XMLID_75_" class="st108" d="M440.82,387.04c0,0-5.78,8.48-10.51,12.78c-4.73,4.29-19.23,17.72-31.24,38.06
			c-12.01,20.33-20.36,41.13-28.3,59.11c-7.94,17.99-22.26,51.21-29.53,61.31c-7.27,10.11-12.06,15.53-12.06,15.53
			s-11.88,0.27-25.96-0.97c-14.07-1.25-19.88-3.79-20.06-0.12c-0.18,3.67,9.51,13.74,16.49,15.49c6.98,1.75,15.9,4.44,18.06,6.53
			c2.16,2.08,4.87,4.48,8.34,2.95c3.47-1.53,14.07-16.28,25.87-26.45c11.8-10.17,25.85-20.23,38.58-43.92
			c12.73-23.69,13.39-37.22,22.3-46.12c8.91-8.9,18.35-22.85,29.73-30.22c11.38-7.36,45.39-20.98,56.25-35.15
			c10.86-14.17,5.19-31.4-5.25-37.56C483.09,372.12,448.99,369.91,440.82,387.04z"/>
		<g>
			<path id="XMLID_82_" class="st109" d="M349.64,543.36c-3.21,6.44-6.15,11.8-8.4,14.94c-7.27,10.11-12.06,15.53-12.06,15.53
				s-11.88,0.27-25.96-0.97c-14.07-1.25-19.88-3.79-20.06-0.12c-0.18,3.67,9.51,13.74,16.49,15.49c6.98,1.75,15.89,4.44,18.06,6.53
				c2.16,2.08,4.87,4.48,8.34,2.95c3.47-1.53,14.07-16.28,25.87-26.45c5.49-4.73,11.47-9.46,17.57-15.53
				C359.86,553.4,353.35,547.65,349.64,543.36z"/>
			<path id="XMLID_81_" class="st57" d="M326.05,597.7c1.06-0.47,2.8-2.18,5.02-4.62c-9.53-1.9-14.46-6.71-18.83-7.92
				c-6.14-1.71-11.34-5.07-11.34-5.07l4.75-7.04c-0.8-0.06-1.61-0.13-2.42-0.2c-14.07-1.25-19.88-3.79-20.06-0.12
				c-0.18,3.67,9.51,13.74,16.49,15.49c6.98,1.75,15.89,4.44,18.06,6.53C319.87,596.83,322.58,599.22,326.05,597.7z"/>
		</g>
	</g>
	<g>
		<path id="XMLID_70_" class="st108" d="M342.58,431.95c0,0,2.54,11.86,8.19,23.15c5.65,11.29,18.07,23.15,27.1,29.92
			c9.03,6.78,38.11,32.75,52.51,53.35c1.81,2.59-5.08,11.29-13.55,18.91c-8.47,7.62-12.14,10.45-7.62,11.86
			c4.52,1.41,15.24,0.85,25.97-8.19c10.73-9.03,17.79-14.96,21.17-22.3c1.69-3.67-7.62-8.19-13.27-12.99
			c-5.65-4.8-26.54-36.42-33.03-51.1c-6.49-14.68-22.87-35.57-35.01-42.91"/>
		<g>
			<path id="XMLID_80_" class="st109" d="M456.34,538.66c1.69-3.67-7.62-8.19-13.27-12.99c-4.75-4.04-20.27-27.03-28.95-42.97
				l-19.22,16.99c11.94,11.05,26.53,25.9,35.46,38.69c1.81,2.59-5.08,11.29-13.55,18.91c-8.47,7.62-12.14,10.45-7.62,11.86
				c4.52,1.41,15.24,0.85,25.97-8.19C445.9,551.93,452.96,546,456.34,538.66z"/>
			<path id="XMLID_79_" class="st57" d="M450.54,531.17c-1.52,2.27-3.49,5.34-5.77,9.18c-5.36,9.03-20.04,20.61-22.02,18.63
				c-1.11-1.11-2.21-3.01-2.97-4.47c-0.96,0.93-1.95,1.86-2.96,2.77c-8.47,7.62-12.14,10.45-7.62,11.86
				c4.52,1.41,15.24,0.85,25.97-8.19c10.73-9.03,17.79-14.96,21.17-22.3C457.37,536.43,454.34,533.89,450.54,531.17z"/>
		</g>
	</g>
	<rect id="XMLID_77_" x="431.22" y="557.01" class="st109" width="95.98" height="4.52"/>
	<path id="XMLID_76_" class="st109" d="M439.97,435.9l-16.8,160.57c-0.08,0.76,0.52,1.42,1.28,1.42l0,0c0.64,0,1.18-0.47,1.28-1.1
		L450.7,435.9H439.97z"/>
	<path id="XMLID_78_" class="st109" d="M516.76,435.9l16.8,160.57c0.08,0.76-0.52,1.42-1.28,1.42l0,0c-0.64,0-1.18-0.47-1.28-1.1
		L506.03,435.9H516.76z"/>
	<path id="XMLID_83_" class="st109" d="M486.27,435.9l0.84,160.69c0,0.72-0.58,1.3-1.29,1.3h-0.02c-0.69,0-1.25-0.54-1.29-1.22
		l-8.97-160.76H486.27z"/>
	<g>
		<defs>
			<path id="XMLID_74_" d="M525.06,437.6h-94.8c-2.74,0-4.97-2.22-4.97-4.97v-16.03c0-2.74,2.22-4.97,4.97-4.97h94.8
				c2.74,0,4.97,2.22,4.97,4.97v16.03C530.03,435.37,527.8,437.6,525.06,437.6z"/>
		</defs>
		<use xlink:href="#XMLID_74_"  style="overflow:visible;fill:#404773;"/>
		<clipPath id="XMLID_6_">
			<use xlink:href="#XMLID_74_"  style="overflow:visible;"/>
		</clipPath>
		<path style="opacity:0.2;clip-path:url(#XMLID_6_);fill:#404773;" d="M522.1,411.62h-86.85l-2.59,5.43c0,0,80.2,1.39,80.2,6.03
			c0,4.64,1.39,10.66-14.37,10.66c-12.76,0-55.59,0.61-71.44,0.84c0.63,0.79,1.41,1.46,2.3,1.96l4.65,1.05h88.1
			c4.38,0,7.93-3.55,7.93-7.93v-10.12C530.03,415.17,526.48,411.62,522.1,411.62z"/>
	</g>
	<path id="XMLID_73_" class="st108" d="M344.84,442.11c-1.98-6.49-10.16-19.48,29.08-46.58c20.8-14.37,65.78-25.41,65.78-25.41
		l4.23-4.8c0,0,12.14,12.7,35.85,11.86c23.71-0.85,38.39-11.29,41.22-10.45c2.82,0.85,3.11,8.19,1.98,22.02
		c-1.13,13.83-2.54,20.89-13.55,24.28c-11.01,3.39-35.29,4.52-52.79,4.23c-17.5-0.28-25.97-1.41-25.97-1.41
		s-37.55,23.71-60.98,25.41"/>
	<g id="XMLID_51_">
		<path id="XMLID_60_" class="st109" d="M431.78,286.57c-1.7,0.54-53.35,10.73-57.87,9.88c-4.52-0.85-16.37-11.01-20.61-10.73
			c-4.23,0.28-12.7,1.69-13.55,3.95c-0.85,2.26,1.98,9.88,1.98,9.88s-2.82,4.23-1.41,6.21c1.41,1.98,9.6-2.82,9.6-2.82
			s9.32,6.78,13.55,5.36c4.23-1.41,8.75-3.11,8.75-3.11s66.34,3.95,67.19,4.23c0.85,0.28,9.03,1.98,9.88-9.88
			C450.13,287.69,441.66,283.46,431.78,286.57z"/>
		<line id="XMLID_61_" class="st103" x1="341.73" y1="299.55" x2="353.3" y2="289.95"/>
		<polygon id="XMLID_58_" class="st81" points="345.97,295.32 352.18,275.84 354.72,276.4 351.61,290.52 		"/>
	</g>
	<path class="st114" d="M308.46,338.34c-11.78,0-9.17-11.78-13.09-9.82c-3.43,1.71-16.82,3.43-20.61,7.75
		c0.56,1.38,1.83,2.45,3.46,2.81c2.54,0.56,3.67,1.69,3.67,1.69s1.13,4.23,2.82,6.21c1.69,1.98,6.78,2.82,12.42,1.69
		c5.65-1.13,15.53-6.21,17.78-7.62c2.26-1.41,70.86-7.62,75.94-8.75c4.11-0.91,8.95-1.09,11.7-2.91c0.97-0.98,1.57-1.61,1.57-1.61
		l-7.28-7.12C396.84,320.66,320.24,338.34,308.46,338.34z"/>
	<path class="st36" d="M308.46,338.34c-11.78,0-9.17-11.78-13.09-9.82c-3.43,1.71-16.82,3.43-20.61,7.75
		c0.56,1.38,1.83,2.45,3.46,2.81c2.54,0.56,3.67,1.69,3.67,1.69s1.13,4.23,2.82,6.21c1.69,1.98,6.78,2.82,12.42,1.69
		c5.65-1.13,15.53-6.21,17.78-7.62c2.26-1.41,70.86-7.62,75.94-8.75c4.11-0.91,8.95-1.09,11.7-2.91c0.97-0.98,1.57-1.61,1.57-1.61
		l-7.28-7.12C396.84,320.66,320.24,338.34,308.46,338.34z"/>
	<path id="XMLID_59_" class="st109" d="M391.42,307.17c0,0-68.6,18.91-79.61,17.5c-11.01-1.41-14.4-6.21-16.94-6.21
		c-2.54,0-9.6,3.39-12.7,3.11c-3.11-0.28-6.78-1.13-6.78,0.85c0,1.98,2.82,5.08,4.52,5.08c1.69,0,8.47-0.28,8.47-0.28
		s-13.27,3.95-13.83,6.49c-0.56,2.54,1.13,4.8,3.67,5.36c2.54,0.56,3.67,1.69,3.67,1.69s1.13,4.23,2.82,6.21
		c1.69,1.98,6.78,2.82,12.42,1.69c5.65-1.13,15.53-6.21,17.78-7.62c2.26-1.41,70.86-7.62,75.94-8.75
		c5.08-1.13,11.29-1.13,13.27-4.52C406.1,324.39,391.42,307.17,391.42,307.17z"/>
	<g>
		<defs>
			<path id="XMLID_56_" d="M449.29,238.01c0,0-6.21,16.94-14.12,28.23c-7.9,11.29-11.29,23.15-6.21,35.85
				c5.08,12.7,16.09,15.53,16.09,15.53s-3.95,37.26-2.82,47.14c1.13,9.88,16.37,21.45,39.24,22.3c22.87,0.85,42.63-7.34,42.63-15.24
				c0-7.9-16.09-49.97-16.09-58.72s1.41-36.13-6.21-60.69C494.17,227.85,467.35,219.94,449.29,238.01z"/>
		</defs>
		<use xlink:href="#XMLID_56_"  style="overflow:visible;fill:#8383C9;"/>
		<clipPath id="XMLID_7_">
			<use xlink:href="#XMLID_56_"  style="overflow:visible;"/>
		</clipPath>
		<path style="opacity:0.2;clip-path:url(#XMLID_7_);fill:#8383C9;" d="M501.8,252.41c-4.11-13.23-13.79-21.62-24.67-23.72
			c-5.25,1.16-19.58,4.52-23.16,5.37c-1.61,1.15-3.18,2.46-4.68,3.96c0,0-6.21,16.94-14.12,28.23c-5.3,7.57-8.55,15.4-8.6,23.56
			c20.83,4.92,52.63,12.94,49.48,13.84c-4.58,1.31-24.22-9.17-18.33-2.62c5.89,6.55,37.32,36.66,28.15,34.04
			c-9.17-2.62-29.46-24.22-24.22-13.75c5.24,10.47,19.64,27.5,15.06,27.5s-28.81-24.22-20.29-9.82c8.51,14.4,47.14,37.32,34.7,40.59
			c-7.18,1.89-22.41,1.38-31.26,2.88c5.99,2.55,13.29,4.29,21.61,4.6c22.87,0.85,42.63-7.34,42.63-15.24
			c0-7.9-16.09-49.97-16.09-58.72S509.42,276.97,501.8,252.41z"/>
	</g>
	<path class="st103" d="M452.76,306.51c0,0,20.74,33.5,51.04,43.07"/>
	<path class="st103" d="M450.37,312.09c0,0,7.98,26.32,28.71,39.08"/>
	<path class="st103" d="M454.64,291.01c0,0,18.74-8.17,26.42-13.45"/>
	<path class="st103" d="M446.96,292.93c0,0,6.73,1.44,24.02,0"/>
	<g>
		<defs>
			<path id="XMLID_57_" d="M447.59,242.24c0,0-5.36,3.11-11.86,9.88c-6.49,6.78-37.83,54.2-37.83,54.2s9.32,19.48,12.14,20.04
				c2.82,0.56,51.94-41.5,56.46-46.58c4.52-5.08,7.34-14.4,5.93-18.35"/>
		</defs>
		<use xlink:href="#XMLID_57_"  style="overflow:visible;fill:#8383C9;"/>
		<clipPath id="XMLID_8_">
			<use xlink:href="#XMLID_57_"  style="overflow:visible;"/>
		</clipPath>
		<path style="opacity:0.2;clip-path:url(#XMLID_8_);" d="M466.51,279.79c4.52-5.08,7.34-14.4,5.93-18.35l-11.15-8.62l-3.56,3.68
			c0,0-0.25,14.45-13.09,22.26c-12.85,7.8-18.33,7.86-20.29,17.68c-1.96,9.82,4.58,12.44-3.27,13.75s-13.09,1.96-13.09,7.2
			c0,1.55,0.17,4.5,0.59,7.77c0.59,0.69,1.1,1.13,1.49,1.21C412.87,326.93,461.99,284.87,466.51,279.79z"/>
		
			<use xlink:href="#XMLID_57_"  style="overflow:visible;fill:none;stroke:#1A2E35;stroke-linecap:round;stroke-linejoin:round;stroke-miterlimit:10;"/>
	</g>
	<path id="XMLID_54_" class="st109" d="M387.18,309.15c0,0,8.75,20.89,10.73,23.15c1.98,2.26,12.42,0.85,15.81-1.69
		c3.39-2.54,2.82-7.62,2.82-7.62s-12.99-22.87-14.4-24c-1.41-1.13-1.98,1.41-7.9,3.39C388.31,304.35,386.05,305.2,387.18,309.15z"/>
	<g>
		<g>
			<defs>
				<path id="XMLID_52_" d="M401.3,184.65c0,0-0.56,8.19,0.85,10.73s5.36,5.08,5.36,8.47c0,3.39-2.82,7.9-1.98,10.45
					c0.85,2.54,5.36,2.82,5.36,2.82s8.47,10.45,11.01,14.12s3.67,2.26,7.62,1.13s12.42-8.47,17.22-14.12
					c4.8-5.65-3.11-22.87-13.55-34.44c-10.45-11.57-25.97-11.29-29.36-7.9C400.45,179.29,401.3,184.65,401.3,184.65z"/>
			</defs>
			<use xlink:href="#XMLID_52_"  style="overflow:visible;fill:#FFFFFF;"/>
			<clipPath id="XMLID_9_">
				<use xlink:href="#XMLID_52_"  style="overflow:visible;"/>
			</clipPath>
			
				<path id="XMLID_55_" style="clip-path:url(#XMLID_9_);fill:none;stroke:#1A2E35;stroke-linecap:round;stroke-linejoin:round;stroke-miterlimit:10;" d="
				M407.51,196.79c0,0,0-4.23,5.08-1.41"/>
			
				<path id="XMLID_48_" style="clip-path:url(#XMLID_9_);fill:none;stroke:#1A2E35;stroke-linecap:round;stroke-linejoin:round;stroke-miterlimit:10;" d="
				M411.13,200.73l0.67,3.9c0,0,3.09,1.08,5.38-2.96"/>
			
				<use xlink:href="#XMLID_52_"  style="overflow:visible;fill:none;stroke:#1A2E35;stroke-linecap:round;stroke-linejoin:round;stroke-miterlimit:10;"/>
		</g>
		<g>
			<defs>
				<path id="XMLID_53_" d="M392.54,172.23l-0.04,1.13l-0.52,13.83l15.24,1.98l3.39-5.93v6.49c0,0,6.49-0.85,13.83,1.98
					c7.34,2.82,16.66,22.87,16.09,31.05c-0.56,8.19-7.62,9.88-6.78,22.3c0.85,12.42,19.76,24.84,34.16,16.94
					c14.4-7.9,16.66-18.07,22.58-16.09c5.93,1.98,14.96,14.12,20.61-3.11c5.65-17.22,3.11-28.23-10.16-42.35
					c-13.27-14.12-23.71-12.99-25.41-24.28c-1.69-11.29-5.36-26.54-17.5-35.01c-12.14-8.47-29.64-9.03-44.6-2.54
					C398.47,145.13,392.54,164.89,392.54,172.23z"/>
			</defs>
			<use xlink:href="#XMLID_53_"  style="overflow:visible;fill:#1A2E35;"/>
			<clipPath id="XMLID_10_">
				<use xlink:href="#XMLID_53_"  style="overflow:visible;"/>
			</clipPath>
			<g style="clip-path:url(#XMLID_10_);">
				<path class="st119" d="M401.03,178.72c-0.1,0-0.2-0.01-0.3-0.03c-1.63-0.37-1.86-3.2-2.01-10.06c-0.04-1.78-0.08-3.61-0.19-5.08
					c-0.01-0.14-0.03-0.27-0.04-0.37c-1.34,1.62-4.23,8.37-6.39,14.4l-1.5-0.54c5.77-16.08,7.65-15.84,8.27-15.75
					c1.1,0.15,1.21,1.59,1.25,2.14c0.12,1.51,0.16,3.37,0.2,5.17c0.06,2.83,0.17,7.48,0.77,8.46c0.23-0.18,0.79-0.78,1.78-2.76
					c1.66-3.32,3.13-4.85,4.66-4.77c1.89,0.09,2.87,2.59,3.58,4.42c0.21,0.55,0.43,1.11,0.58,1.33c0.7,0.19,3.19-2.35,4.52-3.72
					c0.39-0.4,0.78-0.81,1.16-1.19c0.6-0.6,1.39-1.27,2.27-1.14c0.88,0.13,1.32,0.96,1.79,1.84c0.43,0.81,0.91,1.73,1.79,2.43
					c0.5,0.4,0.77,0.34,0.87,0.32c1.15-0.28,2.54-3.37,4.15-6.96c0.38-0.84,0.77-1.72,1.2-2.64c0.53-1.14,1.25-2.47,2.42-2.36
					c1.5,0.11,2.17,2.44,3.2,5.97c0.83,2.87,1.78,6.13,3.18,7.93c0.35,0.45,0.86,0.97,1.31,0.91c1.25-0.19,2.62-3.88,3.44-6.09
					c0.5-1.35,0.94-2.52,1.37-3.25c0.45-0.75,1.02-0.89,1.36-0.87c1.18,0.04,1.98,1.6,3.09,3.77c0.83,1.62,1.97,3.84,2.91,4.22
					c0.19,0.07,0.26,0.04,0.3,0.02c0.62-0.31,1.16-2.37,1.59-4.02c0.5-1.92,1.02-3.9,1.94-5.28c0.56-0.84,1.29-1.34,2.17-1.48
					c2.08-0.33,4.41,1.47,5.96,2.67c-0.08-0.81-0.25-1.93-0.4-2.91c-0.8-5.3-1.03-7.88,0.3-8.6c0.62-0.34,1.36-0.14,2.19,0.59
					c1.11,0.97,2.55,2.59,4.08,4.3c2.92,3.28,7.35,8.23,9.14,7.75c0.5-0.13,0.76-0.89,0.89-1.51l1.56,0.33
					c-0.33,1.53-1.02,2.45-2.04,2.72c-2.56,0.68-6.06-2.99-10.74-8.23c-1.5-1.67-2.91-3.26-3.94-4.16c-0.17-0.15-0.3-0.24-0.39-0.29
					c-0.36,1.01,0.23,4.93,0.52,6.87c0.57,3.75,0.68,4.75-0.05,5.22c-0.32,0.2-0.72,0.19-1.07-0.04c-0.27-0.18-0.62-0.45-1.01-0.76
					c-1.25-0.98-3.36-2.59-4.76-2.38c-0.44,0.07-0.79,0.32-1.1,0.79c-0.77,1.16-1.26,3.01-1.73,4.8c-0.62,2.36-1.15,4.4-2.41,5.04
					c-0.34,0.17-0.9,0.32-1.61,0.04c-1.5-0.6-2.63-2.82-3.73-4.97c-0.5-0.97-1.22-2.39-1.66-2.81c0,0,0,0.01-0.01,0.01
					c-0.36,0.6-0.79,1.76-1.24,2.98c-1.18,3.18-2.52,6.78-4.7,7.11c-0.97,0.15-1.92-0.36-2.81-1.5c-1.59-2.04-2.58-5.46-3.45-8.47
					c-0.55-1.88-1.29-4.45-1.82-4.82c0,0.06-0.31,0.34-0.82,1.43c-0.42,0.92-0.82,1.8-1.19,2.63c-2,4.45-3.32,7.39-5.23,7.85
					c-0.75,0.18-1.5-0.03-2.24-0.62c-1.14-0.91-1.76-2.08-2.21-2.93c-0.21-0.39-0.49-0.92-0.64-1.01c0.01,0.01-0.25,0.07-0.87,0.7
					c-0.38,0.37-0.76,0.77-1.15,1.17c-2.65,2.72-4.33,4.35-5.79,4.23c-0.5-0.05-0.91-0.3-1.2-0.73c-0.24-0.37-0.46-0.93-0.74-1.64
					c-0.46-1.18-1.31-3.36-2.17-3.4c-0.26-0.05-1.33,0.24-3.16,3.89C402.99,177.6,402.02,178.72,401.03,178.72z"/>
				<path class="st120" d="M432.76,242.81c0,0,3.95-14.73,7.9-10.06c3.95,4.67,6.82,6.11,7.18,2.16c0.36-3.95,0-9.7,3.95-4.31
					c3.95,5.39,13.65,10.78,14.37,2.51c0.72-8.26,1.8-19.4,6.47-13.65c4.67,5.75,8.62,10.06,8.98,6.82
					c0.36-3.23,3.59-5.75,5.03-2.16c1.44,3.59,2.51,7.18,3.59-1.08c1.08-8.26-3.95-17.24,1.44-15.09c5.39,2.16,7.9,9.34,7.9,5.39
					c0-3.95-6.47-8.62-0.72-7.18c5.75,1.44,6.47,5.03,7.18,2.87c0.72-2.15-3.23-7.18,1.8-7.18"/>
			</g>
			
				<use xlink:href="#XMLID_53_"  style="overflow:visible;fill:none;stroke:#1A2E35;stroke-linecap:round;stroke-linejoin:round;stroke-miterlimit:10;"/>
		</g>
	</g>
</g>
</svg>
