<?xml version="1.0" encoding="utf-8"?>
<!-- Generator: Adobe Illustrator 24.3.0, SVG Export Plug-In . SVG Version: 6.00 Build 0)  -->
<svg version="1.1" id="Layer_1" xmlns="http://www.w3.org/2000/svg" xmlns:xlink="http://www.w3.org/1999/xlink" x="0px" y="0px"
	 viewBox="0 0 700 600" style="enable-background:new 0 0 700 600;" xml:space="preserve">
<style type="text/css">
	.st0{opacity:0.2;fill:#92B4D1;}
	.st1{fill:#2672AB;}
	.st2{fill:#D1EBFF;}
	.st3{opacity:0.5;fill:#3F92D1;}
	.st4{fill:#3F92D1;}
	.st5{fill:#FFFFFF;}
	.st6{opacity:0.3;fill:#FFFFFF;}
	.st7{fill:#A8CFF0;}
	.st8{fill:#72B5E8;}
	.st9{fill:#03336E;}
	.st10{fill:#022652;}
	.st11{opacity:0.7;fill:#FFFFFF;}
	.st12{opacity:0.3;}
	.st13{opacity:0.1;fill:#F1F2F2;}
	.st14{opacity:0.1429;fill:#ECEFF0;}
	.st15{opacity:0.1857;fill:#E7EBEE;}
	.st16{opacity:0.2286;fill:#E2E8EC;}
	.st17{opacity:0.2714;fill:#DEE5EA;}
	.st18{opacity:0.3143;fill:#D9E1E8;}
	.st19{opacity:0.3571;fill:#D4DEE6;}
	.st20{opacity:0.4;fill:#CFDBE4;}
	.st21{opacity:0.4429;fill:#CAD7E2;}
	.st22{opacity:0.4857;fill:#C5D4E0;}
	.st23{opacity:0.5286;fill:#C0D1DE;}
	.st24{opacity:0.5714;fill:#BCCDDB;}
	.st25{opacity:0.6143;fill:#B7CAD9;}
	.st26{opacity:0.6571;fill:#B2C7D7;}
	.st27{opacity:0.7;fill:#ADC3D5;}
	.st28{opacity:0.7429;fill:#A8C0D3;}
	.st29{opacity:0.7857;fill:#A3BDD1;}
	.st30{opacity:0.8286;fill:#9EB9CF;}
	.st31{opacity:0.8714;fill:#9AB6CD;}
	.st32{opacity:0.9143;fill:#95B3CB;}
	.st33{opacity:0.9571;fill:#90AFC9;}
	.st34{fill:#8BACC7;}
	.st35{fill:#EB4680;}
	.st36{fill:#FFD70F;}
	.st37{opacity:0.5;fill:#FFFFFF;}
	.st38{fill:#0BA19F;}
	.st39{fill:#3ECFCD;}
	.st40{fill:#0FBAB8;}
	.st41{fill:#FFDE17;}
	.st42{fill:#FFCC00;}
	.st43{fill:#E6EDFC;}
	.st44{fill:#D7E2F4;}
	.st45{fill:#444A7C;}
	.st46{fill:#262A41;}
	.st47{fill:none;stroke:#FFFFFF;stroke-width:0.6671;stroke-miterlimit:10;}
	.st48{fill:#85D2F9;}
	.st49{fill:none;stroke:#FFFFFF;stroke-width:0.3254;stroke-miterlimit:10;}
	.st50{fill:none;stroke:#FFFFFF;stroke-width:0.3254;stroke-miterlimit:10;stroke-dasharray:1.2826,1.2826;}
	.st51{fill:none;stroke:#FFFFFF;stroke-width:0.3254;stroke-miterlimit:10;stroke-dasharray:1.2776,1.2776;}
	.st52{fill:#8391FC;stroke:#FFFFFF;stroke-width:0.3254;stroke-miterlimit:10;}
	.st53{opacity:0.8;fill:#444A7C;}
	.st54{opacity:0.8;fill:#8391FC;}
	.st55{fill:#8391FC;}
	.st56{fill:none;stroke:#FFFFFF;stroke-width:1.0422;stroke-miterlimit:10;}
	.st57{fill:none;stroke:#C8D0FC;stroke-width:0.2605;stroke-miterlimit:10;}
	.st58{fill:none;stroke:#FFFFFF;stroke-width:0.2605;stroke-linecap:round;stroke-miterlimit:10;}
	.st59{fill:none;stroke:#FFFFFF;stroke-width:0.5211;stroke-miterlimit:10;}
	.st60{fill:#E5E1F9;}
	.st61{fill:#7683E1;}
	.st62{fill:#E8A398;}
	.st63{fill:#C3D3EA;}
	.st64{fill:none;stroke:#E8B1C3;stroke-width:1.9735;stroke-miterlimit:10;}
	.st65{fill:#7481B2;}
	.st66{fill:#545C8C;}
	.st67{fill:#ECECEC;}
	.st68{fill:#F0F0F0;}
	.st69{fill:#F5F5F5;}
	.st70{fill:#E7E7E7;}
	.st71{fill:#FAFAFA;}
	.st72{opacity:0.4;fill:#E7E7E7;}
	.st73{fill:#E1E1E1;}
	.st74{fill:#007CFF;}
	.st75{opacity:0.2;fill:#FFFFFF;}
	.st76{opacity:0.2;}
	.st77{opacity:0.6;fill:#FFFFFF;}
	.st78{fill:#1A2E35;}
	.st79{opacity:0.4;fill:#FFFFFF;}
	.st80{fill:#CD5B51;}
	.st81{fill:#BA221F;}
	.st82{opacity:0.4;}
	.st83{fill:#1A4175;}
	.st84{fill:#1674BA;}
	.st85{fill-rule:evenodd;clip-rule:evenodd;fill:#389CCF;}
	.st86{fill:url(#XMLID_6_);}
	.st87{fill-rule:evenodd;clip-rule:evenodd;fill:#1674BA;}
	.st88{fill:#1B75BB;}
	.st89{clip-path:url(#SVGID_3_);}
	.st90{clip-path:url(#SVGID_4_);}
	.st91{filter:url(#Adobe_OpacityMaskFilter);}
	.st92{filter:url(#Adobe_OpacityMaskFilter_1_);}
	.st93{mask:url(#SVGID_5_);fill:url(#SVGID_6_);}
	.st94{opacity:0.3;fill:#ADBCFF;}
	.st95{filter:url(#Adobe_OpacityMaskFilter_2_);}
	.st96{filter:url(#Adobe_OpacityMaskFilter_3_);}
	.st97{mask:url(#SVGID_7_);fill:url(#SVGID_8_);}
	.st98{opacity:0.7;fill:#E6EDFC;}
	.st99{fill:none;stroke:#1A2E35;stroke-width:2;stroke-miterlimit:10;}
	.st100{fill:none;stroke:#1A2E35;stroke-linecap:round;stroke-linejoin:round;stroke-miterlimit:10;}
	.st101{opacity:0.44;fill:#FFFFFF;}
	.st102{fill:none;stroke:#FFFFFF;stroke-miterlimit:10;}
	.st103{fill:none;stroke:#1A2E35;stroke-width:0.5;stroke-miterlimit:10;}
	.st104{fill:#FFFFFF;stroke:#1A2E35;stroke-width:0.5;stroke-miterlimit:10;}
	.st105{fill:#1A2E35;stroke:#1A2E35;stroke-linecap:round;stroke-linejoin:round;stroke-miterlimit:10;}
	.st106{fill:#FFFFFF;stroke:#1A2E35;stroke-linecap:round;stroke-linejoin:round;stroke-miterlimit:10;}
	.st107{fill:#808080;stroke:#1A2E35;stroke-linecap:round;stroke-linejoin:round;stroke-miterlimit:10;}
	.st108{fill:#B0B0D9;}
	.st109{fill:#B0B0D9;stroke:#1A2E35;stroke-linecap:round;stroke-linejoin:round;stroke-miterlimit:10;}
	.st110{opacity:0.2;clip-path:url(#XMLID_7_);fill:#404773;}
	.st111{fill:#AAFF00;}
	.st112{opacity:0.2;clip-path:url(#XMLID_8_);fill:#8383C9;}
	.st113{opacity:0.2;clip-path:url(#XMLID_9_);}
	.st114{clip-path:url(#XMLID_10_);fill:none;stroke:#1A2E35;stroke-linecap:round;stroke-linejoin:round;stroke-miterlimit:10;}
	.st115{clip-path:url(#XMLID_11_);}
	.st116{fill:#575757;}
	.st117{fill:none;stroke:#575757;stroke-miterlimit:10;}
	.st118{filter:url(#Adobe_OpacityMaskFilter_4_);}
	.st119{filter:url(#Adobe_OpacityMaskFilter_5_);}
	.st120{mask:url(#SVGID_9_);fill:url(#SVGID_10_);}
	.st121{fill:#939AA3;}
	.st122{fill:#404773;}
	.st123{fill:#EEA886;}
	.st124{fill:#C5CDDB;}
	.st125{fill:#E55353;}
	.st126{fill:#434343;}
	.st127{fill:#282C47;}
	.st128{fill:#525252;}
	.st129{fill:#EDDAD3;}
	.st130{fill:#A77860;}
	.st131{fill:url(#SVGID_11_);}
	.st132{fill:#7A7AB5;}
	.st133{fill:url(#SVGID_12_);}
	.st134{fill:url(#SVGID_13_);}
	.st135{fill:#2A2E4A;}
	.st136{fill:url(#SVGID_14_);}
	.st137{fill:#626EB0;}
	.st138{opacity:0.72;fill:#D9D9D9;}
	.st139{fill:#8383C9;}
	.st140{enable-background:new    ;}
	.st141{fill:url(#SVGID_15_);}
	.st142{fill:url(#SVGID_16_);}
	.st143{fill:url(#SVGID_17_);}
	.st144{opacity:0.8;}
	.st145{opacity:0;fill:#D7C8FF;}
	.st146{opacity:6.369427e-03;fill:#D6C7FE;}
	.st147{opacity:0.0127;fill:#D5C6FE;}
	.st148{opacity:0.0191;fill:#D4C6FD;}
	.st149{opacity:0.0255;fill:#D3C5FC;}
	.st150{opacity:0.0318;fill:#D2C4FB;}
	.st151{opacity:0.0382;fill:#D1C3FB;}
	.st152{opacity:0.0446;fill:#D0C3FA;}
	.st153{opacity:0.051;fill:#CFC2F9;}
	.st154{opacity:0.0573;fill:#CEC1F9;}
	.st155{opacity:0.0637;fill:#CDC0F8;}
	.st156{opacity:0.0701;fill:#CCC0F7;}
	.st157{opacity:0.0764;fill:#CBBFF6;}
	.st158{opacity:0.0828;fill:#CABEF6;}
	.st159{opacity:0.0892;fill:#C9BDF5;}
	.st160{opacity:0.0955;fill:#C8BDF4;}
	.st161{opacity:0.1019;fill:#C7BCF3;}
	.st162{opacity:0.1083;fill:#C6BBF3;}
	.st163{opacity:0.1146;fill:#C5BAF2;}
	.st164{opacity:0.121;fill:#C4B9F1;}
	.st165{opacity:0.1274;fill:#C3B9F1;}
	.st166{opacity:0.1338;fill:#C2B8F0;}
	.st167{opacity:0.1401;fill:#C1B7EF;}
	.st168{opacity:0.1465;fill:#C0B6EE;}
	.st169{opacity:0.1529;fill:#BFB6EE;}
	.st170{opacity:0.1592;fill:#BEB5ED;}
	.st171{opacity:0.1656;fill:#BDB4EC;}
	.st172{opacity:0.172;fill:#BCB3EC;}
	.st173{opacity:0.1783;fill:#BBB3EB;}
	.st174{opacity:0.1847;fill:#BAB2EA;}
	.st175{opacity:0.1911;fill:#B9B1E9;}
	.st176{opacity:0.1975;fill:#B8B0E9;}
	.st177{opacity:0.2038;fill:#B7B0E8;}
	.st178{opacity:0.2102;fill:#B6AFE7;}
	.st179{opacity:0.2166;fill:#B5AEE7;}
	.st180{opacity:0.2229;fill:#B4ADE6;}
	.st181{opacity:0.2293;fill:#B3ACE5;}
	.st182{opacity:0.2357;fill:#B2ACE4;}
	.st183{opacity:0.242;fill:#B1ABE4;}
	.st184{opacity:0.2484;fill:#B0AAE3;}
	.st185{opacity:0.2548;fill:#AFA9E2;}
	.st186{opacity:0.2611;fill:#AEA9E1;}
	.st187{opacity:0.2675;fill:#ADA8E1;}
	.st188{opacity:0.2739;fill:#ACA7E0;}
	.st189{opacity:0.2803;fill:#ABA6DF;}
	.st190{opacity:0.2866;fill:#AAA6DF;}
	.st191{opacity:0.293;fill:#A9A5DE;}
	.st192{opacity:0.2994;fill:#A8A4DD;}
	.st193{opacity:0.3057;fill:#A7A3DC;}
	.st194{opacity:0.3121;fill:#A6A3DC;}
	.st195{opacity:0.3185;fill:#A5A2DB;}
	.st196{opacity:0.3248;fill:#A4A1DA;}
	.st197{opacity:0.3312;fill:#A3A0DA;}
	.st198{opacity:0.3376;fill:#A29FD9;}
	.st199{opacity:0.3439;fill:#A19FD8;}
	.st200{opacity:0.3503;fill:#A09ED7;}
	.st201{opacity:0.3567;fill:#9F9DD7;}
	.st202{opacity:0.3631;fill:#9E9CD6;}
	.st203{opacity:0.3694;fill:#9D9CD5;}
	.st204{opacity:0.3758;fill:#9C9BD5;}
	.st205{opacity:0.3822;fill:#9B9AD4;}
	.st206{opacity:0.3885;fill:#9A99D3;}
	.st207{opacity:0.3949;fill:#9999D2;}
	.st208{opacity:0.4013;fill:#9898D2;}
	.st209{opacity:0.4076;fill:#9797D1;}
	.st210{opacity:0.414;fill:#9696D0;}
	.st211{opacity:0.4204;fill:#9596CF;}
	.st212{opacity:0.4268;fill:#9495CF;}
	.st213{opacity:0.4331;fill:#9394CE;}
	.st214{opacity:0.4395;fill:#9293CD;}
	.st215{opacity:0.4459;fill:#9192CD;}
	.st216{opacity:0.4522;fill:#9092CC;}
	.st217{opacity:0.4586;fill:#8F91CB;}
	.st218{opacity:0.465;fill:#8E90CA;}
	.st219{opacity:0.4713;fill:#8D8FCA;}
	.st220{opacity:0.4777;fill:#8C8FC9;}
	.st221{opacity:0.4841;fill:#8B8EC8;}
	.st222{opacity:0.4904;fill:#8A8DC8;}
	.st223{opacity:0.4968;fill:#898CC7;}
	.st224{opacity:0.5032;fill:#888CC6;}
	.st225{opacity:0.5096;fill:#878BC5;}
	.st226{opacity:0.5159;fill:#868AC5;}
	.st227{opacity:0.5223;fill:#8589C4;}
	.st228{opacity:0.5287;fill:#8489C3;}
	.st229{opacity:0.535;fill:#8388C3;}
	.st230{opacity:0.5414;fill:#8287C2;}
	.st231{opacity:0.5478;fill:#8186C1;}
	.st232{opacity:0.5541;fill:#8086C0;}
	.st233{opacity:0.5605;fill:#7F85C0;}
	.st234{opacity:0.5669;fill:#7E84BF;}
	.st235{opacity:0.5732;fill:#7D83BE;}
	.st236{opacity:0.5796;fill:#7C82BE;}
	.st237{opacity:0.586;fill:#7B82BD;}
	.st238{opacity:0.5924;fill:#7A81BC;}
	.st239{opacity:0.5987;fill:#7980BB;}
	.st240{opacity:0.6051;fill:#787FBB;}
	.st241{opacity:0.6115;fill:#777FBA;}
	.st242{opacity:0.6178;fill:#767EB9;}
	.st243{opacity:0.6242;fill:#757DB8;}
	.st244{opacity:0.6306;fill:#747CB8;}
	.st245{opacity:0.6369;fill:#737CB7;}
	.st246{opacity:0.6433;fill:#727BB6;}
	.st247{opacity:0.6497;fill:#717AB6;}
	.st248{opacity:0.6561;fill:#7079B5;}
	.st249{opacity:0.6624;fill:#6F79B4;}
	.st250{opacity:0.6688;fill:#6E78B3;}
	.st251{opacity:0.6752;fill:#6D77B3;}
	.st252{opacity:0.6815;fill:#6C76B2;}
	.st253{opacity:0.6879;fill:#6B75B1;}
	.st254{opacity:0.6943;fill:#6A75B1;}
	.st255{opacity:0.7006;fill:#6974B0;}
	.st256{opacity:0.707;fill:#6873AF;}
	.st257{opacity:0.7134;fill:#6772AE;}
	.st258{opacity:0.7197;fill:#6672AE;}
	.st259{opacity:0.7261;fill:#6571AD;}
	.st260{opacity:0.7325;fill:#6470AC;}
	.st261{opacity:0.7389;fill:#636FAC;}
	.st262{opacity:0.7452;fill:#626FAB;}
	.st263{opacity:0.7516;fill:#616EAA;}
	.st264{opacity:0.758;fill:#606DA9;}
	.st265{opacity:0.7643;fill:#5F6CA9;}
	.st266{opacity:0.7707;fill:#5E6CA8;}
	.st267{opacity:0.7771;fill:#5D6BA7;}
	.st268{opacity:0.7834;fill:#5C6AA6;}
	.st269{opacity:0.7898;fill:#5B69A6;}
	.st270{opacity:0.7962;fill:#5A68A5;}
	.st271{opacity:0.8025;fill:#5968A4;}
	.st272{opacity:0.8089;fill:#5867A4;}
	.st273{opacity:0.8153;fill:#5766A3;}
	.st274{opacity:0.8217;fill:#5665A2;}
	.st275{opacity:0.828;fill:#5565A1;}
	.st276{opacity:0.8344;fill:#5464A1;}
	.st277{opacity:0.8408;fill:#5363A0;}
	.st278{opacity:0.8471;fill:#52629F;}
	.st279{opacity:0.8535;fill:#51629F;}
	.st280{opacity:0.8599;fill:#50619E;}
	.st281{opacity:0.8662;fill:#4F609D;}
	.st282{opacity:0.8726;fill:#4E5F9C;}
	.st283{opacity:0.879;fill:#4D5F9C;}
	.st284{opacity:0.8854;fill:#4C5E9B;}
	.st285{opacity:0.8917;fill:#4B5D9A;}
	.st286{opacity:0.8981;fill:#4A5C9A;}
	.st287{opacity:0.9045;fill:#495B99;}
	.st288{opacity:0.9108;fill:#485B98;}
	.st289{opacity:0.9172;fill:#475A97;}
	.st290{opacity:0.9236;fill:#465997;}
	.st291{opacity:0.9299;fill:#455896;}
	.st292{opacity:0.9363;fill:#445895;}
	.st293{opacity:0.9427;fill:#435794;}
	.st294{opacity:0.949;fill:#425694;}
	.st295{opacity:0.9554;fill:#415593;}
	.st296{opacity:0.9618;fill:#405592;}
	.st297{opacity:0.9682;fill:#3F5492;}
	.st298{opacity:0.9745;fill:#3E5391;}
	.st299{opacity:0.9809;fill:#3D5290;}
	.st300{opacity:0.9873;fill:#3C528F;}
	.st301{opacity:0.9936;fill:#3B518F;}
	.st302{fill:#3A508E;}
	.st303{clip-path:url(#SVGID_19_);enable-background:new    ;}
	.st304{fill:#70166B;}
	.st305{fill:#74176F;}
	.st306{fill:#781873;}
	.st307{fill:#7D1977;}
	.st308{fill:#811A7B;}
	.st309{fill:#851B7F;}
	.st310{fill:#8A1C83;}
	.st311{fill:#8E1C87;}
	.st312{fill:#921D8B;}
	.st313{clip-path:url(#SVGID_21_);enable-background:new    ;}
	.st314{fill:#616B85;}
	.st315{fill:#656F8A;}
	.st316{fill:#69738F;}
	.st317{fill:#6C7794;}
	.st318{fill:#707B99;}
	.st319{fill:#747F9E;}
	.st320{fill:#7883A3;}
	.st321{fill:#7B87A8;}
	.st322{fill:#7F8BAD;}
	.st323{clip-path:url(#SVGID_23_);enable-background:new    ;}
	.st324{fill:#9D1F95;}
	.st325{clip-path:url(#SVGID_25_);enable-background:new    ;}
	.st326{clip-path:url(#SVGID_27_);enable-background:new    ;}
	.st327{fill:#767385;}
	.st328{fill:#6C1667;}
	.st329{clip-path:url(#SVGID_29_);enable-background:new    ;}
	.st330{fill:#7C798C;}
	.st331{clip-path:url(#SVGID_31_);enable-background:new    ;}
	.st332{fill:#918DA3;}
	.st333{fill:#9592A8;}
	.st334{fill:#9A96AD;}
	.st335{fill:#8C899E;}
	.st336{fill:#888599;}
	.st337{fill:#838094;}
	.st338{fill:#7F7C8F;}
	.st339{fill:#7A778A;}
	.st340{fill:url(#SVGID_32_);}
	.st341{fill:url(#SVGID_33_);}
	.st342{fill:url(#SVGID_34_);}
	.st343{fill:url(#SVGID_35_);}
	.st344{fill:url(#SVGID_36_);}
	.st345{opacity:0;fill:#012B7E;}
	.st346{opacity:0.0278;fill:#012B7E;}
	.st347{opacity:0.0556;fill:#012B7E;}
	.st348{opacity:0.0833;fill:#012B7E;}
	.st349{opacity:0.1111;fill:#012B7E;}
	.st350{opacity:0.1389;fill:#012B7E;}
	.st351{opacity:0.1667;fill:#012B7E;}
	.st352{opacity:0.1944;fill:#012B7E;}
	.st353{opacity:0.2222;fill:#012B7E;}
	.st354{opacity:0.25;fill:#012B7E;}
	.st355{opacity:0.2778;fill:#012B7E;}
	.st356{opacity:0.3056;fill:#012B7E;}
	.st357{opacity:0.3333;fill:#012B7E;}
	.st358{opacity:0.3611;fill:#012B7E;}
	.st359{opacity:0.3889;fill:#012B7E;}
	.st360{opacity:0.4167;fill:#012B7E;}
	.st361{opacity:0.4444;fill:#012B7E;}
	.st362{opacity:0.4722;fill:#012B7E;}
	.st363{opacity:0.5;fill:#012B7E;}
	.st364{opacity:0.5278;fill:#012B7E;}
	.st365{opacity:0.5556;fill:#012B7E;}
	.st366{opacity:0.5833;fill:#012B7E;}
	.st367{opacity:0.6111;fill:#012B7E;}
	.st368{opacity:0.6389;fill:#012B7E;}
	.st369{opacity:0.6667;fill:#012B7E;}
	.st370{opacity:0.6944;fill:#012B7E;}
	.st371{opacity:0.7222;fill:#012B7E;}
	.st372{opacity:0.75;fill:#012B7E;}
	.st373{opacity:0.7778;fill:#012B7E;}
	.st374{opacity:0.8056;fill:#012B7E;}
	.st375{opacity:0.8333;fill:#012B7E;}
	.st376{opacity:0.8611;fill:#012B7E;}
	.st377{opacity:0.8889;fill:#012B7E;}
	.st378{opacity:0.9167;fill:#012B7E;}
	.st379{opacity:0.9444;fill:#012B7E;}
	.st380{opacity:0.9722;fill:#012B7E;}
	.st381{fill:#012B7E;}
	.st382{fill:url(#SVGID_37_);}
	.st383{fill:url(#SVGID_38_);}
	.st384{fill:url(#SVGID_39_);}
	.st385{fill:url(#SVGID_40_);}
	.st386{fill:url(#SVGID_41_);}
	.st387{fill:url(#SVGID_42_);}
	.st388{fill:url(#SVGID_43_);}
	.st389{fill:url(#SVGID_44_);}
	.st390{clip-path:url(#SVGID_46_);}
	.st391{fill:#412121;}
	.st392{fill:#87A8DC;}
	.st393{opacity:0.8;clip-path:url(#SVGID_46_);}
	.st394{opacity:0.7;}
	.st395{fill:url(#SVGID_47_);}
	.st396{fill:url(#SVGID_48_);}
	.st397{fill:url(#SVGID_49_);}
	.st398{fill:url(#SVGID_50_);}
	.st399{fill:url(#SVGID_51_);}
	.st400{fill:url(#SVGID_52_);}
	.st401{opacity:0;fill:#BECBF7;}
	.st402{opacity:0.0108;fill:#BDCAF6;}
	.st403{opacity:0.0215;fill:#BBC8F5;}
	.st404{opacity:0.0323;fill:#BAC7F4;}
	.st405{opacity:0.043;fill:#B8C6F2;}
	.st406{opacity:0.0538;fill:#B7C4F1;}
	.st407{opacity:0.0645;fill:#B5C3F0;}
	.st408{opacity:0.0753;fill:#B4C2EF;}
	.st409{opacity:0.086;fill:#B3C0EE;}
	.st410{opacity:0.0968;fill:#B1BFED;}
	.st411{opacity:0.1075;fill:#B0BEEC;}
	.st412{opacity:0.1183;fill:#AEBCEB;}
	.st413{opacity:0.129;fill:#ADBBE9;}
	.st414{opacity:0.1398;fill:#ACBAE8;}
	.st415{opacity:0.1505;fill:#AAB8E7;}
	.st416{opacity:0.1613;fill:#A9B7E6;}
	.st417{opacity:0.172;fill:#A7B6E5;}
	.st418{opacity:0.1828;fill:#A6B5E4;}
	.st419{opacity:0.1935;fill:#A4B3E3;}
	.st420{opacity:0.2043;fill:#A3B2E2;}
	.st421{opacity:0.2151;fill:#A2B1E0;}
	.st422{opacity:0.2258;fill:#A0AFDF;}
	.st423{opacity:0.2366;fill:#9FAEDE;}
	.st424{opacity:0.2473;fill:#9DADDD;}
	.st425{opacity:0.2581;fill:#9CABDC;}
	.st426{opacity:0.2688;fill:#9BAADB;}
	.st427{opacity:0.2796;fill:#99A9DA;}
	.st428{opacity:0.2903;fill:#98A7D9;}
	.st429{opacity:0.3011;fill:#96A6D7;}
	.st430{opacity:0.3118;fill:#95A5D6;}
	.st431{opacity:0.3226;fill:#93A3D5;}
	.st432{opacity:0.3333;fill:#92A2D4;}
	.st433{opacity:0.3441;fill:#91A1D3;}
	.st434{opacity:0.3548;fill:#8F9FD2;}
	.st435{opacity:0.3656;fill:#8E9ED1;}
	.st436{opacity:0.3763;fill:#8C9DCF;}
	.st437{opacity:0.3871;fill:#8B9BCE;}
	.st438{opacity:0.3978;fill:#899ACD;}
	.st439{opacity:0.4086;fill:#8899CC;}
	.st440{opacity:0.4194;fill:#8797CB;}
	.st441{opacity:0.4301;fill:#8596CA;}
	.st442{opacity:0.4409;fill:#8495C9;}
	.st443{opacity:0.4516;fill:#8293C8;}
	.st444{opacity:0.4624;fill:#8192C6;}
	.st445{opacity:0.4731;fill:#8091C5;}
	.st446{opacity:0.4839;fill:#7E8FC4;}
	.st447{opacity:0.4946;fill:#7D8EC3;}
	.st448{opacity:0.5054;fill:#7B8DC2;}
	.st449{opacity:0.5161;fill:#7A8CC1;}
	.st450{opacity:0.5269;fill:#788AC0;}
	.st451{opacity:0.5376;fill:#7789BF;}
	.st452{opacity:0.5484;fill:#7688BD;}
	.st453{opacity:0.5591;fill:#7486BC;}
	.st454{opacity:0.5699;fill:#7385BB;}
	.st455{opacity:0.5806;fill:#7184BA;}
	.st456{opacity:0.5914;fill:#7082B9;}
	.st457{opacity:0.6022;fill:#6F81B8;}
	.st458{opacity:0.6129;fill:#6D80B7;}
	.st459{opacity:0.6237;fill:#6C7EB6;}
	.st460{opacity:0.6344;fill:#6A7DB4;}
	.st461{opacity:0.6452;fill:#697CB3;}
	.st462{opacity:0.6559;fill:#677AB2;}
	.st463{opacity:0.6667;fill:#6679B1;}
	.st464{opacity:0.6774;fill:#6578B0;}
	.st465{opacity:0.6882;fill:#6376AF;}
	.st466{opacity:0.6989;fill:#6275AE;}
	.st467{opacity:0.7097;fill:#6074AC;}
	.st468{opacity:0.7204;fill:#5F72AB;}
	.st469{opacity:0.7312;fill:#5D71AA;}
	.st470{opacity:0.7419;fill:#5C70A9;}
	.st471{opacity:0.7527;fill:#5B6EA8;}
	.st472{opacity:0.7634;fill:#596DA7;}
	.st473{opacity:0.7742;fill:#586CA6;}
	.st474{opacity:0.7849;fill:#566AA5;}
	.st475{opacity:0.7957;fill:#5569A3;}
	.st476{opacity:0.8065;fill:#5468A2;}
	.st477{opacity:0.8172;fill:#5266A1;}
	.st478{opacity:0.828;fill:#5165A0;}
	.st479{opacity:0.8387;fill:#4F649F;}
	.st480{opacity:0.8495;fill:#4E639E;}
	.st481{opacity:0.8602;fill:#4C619D;}
	.st482{opacity:0.871;fill:#4B609C;}
	.st483{opacity:0.8817;fill:#4A5F9A;}
	.st484{opacity:0.8925;fill:#485D99;}
	.st485{opacity:0.9032;fill:#475C98;}
	.st486{opacity:0.914;fill:#455B97;}
	.st487{opacity:0.9247;fill:#445996;}
	.st488{opacity:0.9355;fill:#435895;}
	.st489{opacity:0.9462;fill:#415794;}
	.st490{opacity:0.957;fill:#405593;}
	.st491{opacity:0.9677;fill:#3E5491;}
	.st492{opacity:0.9785;fill:#3D5390;}
	.st493{opacity:0.9892;fill:#3B518F;}
	.st494{fill:url(#SVGID_53_);}
	.st495{fill:url(#SVGID_54_);}
	.st496{fill:url(#SVGID_55_);}
	.st497{fill:url(#SVGID_56_);}
	.st498{fill:url(#SVGID_57_);}
	.st499{clip-path:url(#SVGID_59_);}
	.st500{fill:#FA4542;}
	.st501{opacity:0.8;clip-path:url(#SVGID_59_);}
	.st502{fill:url(#SVGID_60_);}
	.st503{fill:url(#SVGID_61_);}
	.st504{opacity:0.7;fill:url(#SVGID_62_);}
	.st505{fill:url(#SVGID_63_);}
	.st506{fill:url(#SVGID_64_);}
	.st507{clip-path:url(#SVGID_66_);}
	.st508{fill:#1479DA;}
	.st509{opacity:0.8;clip-path:url(#SVGID_66_);}
	.st510{fill:url(#SVGID_67_);}
	.st511{clip-path:url(#SVGID_69_);}
	.st512{fill:#1278DA;}
	.st513{opacity:0.8;clip-path:url(#SVGID_69_);}
	.st514{fill:url(#SVGID_70_);}
	.st515{clip-path:url(#SVGID_72_);}
	.st516{fill:#127ADB;}
	.st517{opacity:0.8;clip-path:url(#SVGID_72_);}
	.st518{fill:url(#SVGID_73_);}
	.st519{clip-path:url(#SVGID_75_);}
	.st520{opacity:0.8;clip-path:url(#SVGID_75_);}
	.st521{fill:url(#SVGID_76_);}
	.st522{clip-path:url(#SVGID_78_);}
	.st523{fill:url(#SVGID_79_);}
	.st524{fill:url(#SVGID_80_);}
	.st525{opacity:0.8;clip-path:url(#SVGID_78_);}
	.st526{fill:url(#SVGID_81_);}
	.st527{clip-path:url(#SVGID_83_);}
	.st528{fill:#187FDF;}
	.st529{opacity:0.8;clip-path:url(#SVGID_83_);}
	.st530{fill:url(#SVGID_84_);}
	.st531{clip-path:url(#SVGID_86_);}
	.st532{fill:#0E70D3;}
	.st533{opacity:0.8;clip-path:url(#SVGID_86_);}
	.st534{fill:url(#SVGID_87_);}
	.st535{clip-path:url(#SVGID_89_);fill:#FFFFFF;}
	.st536{clip-path:url(#SVGID_89_);fill:#0071C1;}
	.st537{opacity:0.8;clip-path:url(#SVGID_89_);}
	.st538{clip-path:url(#SVGID_89_);}
	.st539{opacity:0.7;fill:#8B7BC8;}
	.st540{fill:url(#SVGID_90_);}
	.st541{fill:url(#SVGID_91_);}
	.st542{fill:#003B64;}
	.st543{fill:#003D68;}
	.st544{fill:url(#SVGID_92_);}
	.st545{opacity:0.7;fill:url(#SVGID_93_);}
	.st546{fill:url(#SVGID_94_);}
	.st547{fill:url(#SVGID_95_);}
	.st548{clip-path:url(#SVGID_97_);}
	.st549{opacity:0.8;clip-path:url(#SVGID_97_);}
	.st550{fill:url(#SVGID_98_);}
	.st551{fill:url(#SVGID_99_);}
	.st552{fill:url(#SVGID_100_);}
	.st553{fill:url(#SVGID_101_);}
	.st554{fill:url(#SVGID_102_);}
	.st555{opacity:0.7;fill:url(#SVGID_103_);}
	.st556{fill:url(#SVGID_104_);}
	.st557{fill:url(#SVGID_105_);}
	.st558{fill:url(#SVGID_106_);}
	.st559{fill:url(#SVGID_107_);}
	.st560{fill:url(#SVGID_108_);}
	.st561{fill:url(#SVGID_109_);}
	.st562{opacity:0.7;fill:url(#SVGID_110_);}
	.st563{fill:url(#SVGID_111_);}
	.st564{clip-path:url(#SVGID_113_);fill:#FF3B62;}
	.st565{clip-path:url(#SVGID_113_);fill:#412121;}
	.st566{clip-path:url(#SVGID_113_);fill:#FFFFFF;}
	.st567{opacity:0.8;clip-path:url(#SVGID_113_);}
	.st568{clip-path:url(#SVGID_113_);}
	.st569{fill:url(#SVGID_114_);}
	.st570{fill:url(#SVGID_115_);}
	.st571{opacity:0;fill:#3A508E;}
	.st572{opacity:0.02;fill:#3A508E;}
	.st573{opacity:0.04;fill:#3A508E;}
	.st574{opacity:0.06;fill:#3A508E;}
	.st575{opacity:0.08;fill:#3A508E;}
	.st576{opacity:0.1;fill:#3A508E;}
	.st577{opacity:0.12;fill:#3A508E;}
	.st578{opacity:0.14;fill:#3A508E;}
	.st579{opacity:0.16;fill:#3A508E;}
	.st580{opacity:0.18;fill:#3A508E;}
	.st581{opacity:0.2;fill:#3A508E;}
	.st582{opacity:0.22;fill:#3A508E;}
	.st583{opacity:0.24;fill:#3A508E;}
	.st584{opacity:0.26;fill:#3A508E;}
	.st585{opacity:0.28;fill:#3A508E;}
	.st586{opacity:0.3;fill:#3A508E;}
	.st587{opacity:0.32;fill:#3A508E;}
	.st588{opacity:0.34;fill:#3A508E;}
	.st589{opacity:0.36;fill:#3A508E;}
	.st590{opacity:0.38;fill:#3A508E;}
	.st591{opacity:0.4;fill:#3A508E;}
	.st592{opacity:0.42;fill:#3A508E;}
	.st593{opacity:0.44;fill:#3A508E;}
	.st594{opacity:0.46;fill:#3A508E;}
	.st595{opacity:0.48;fill:#3A508E;}
	.st596{opacity:0.5;fill:#3A508E;}
	.st597{opacity:0.52;fill:#3A508E;}
	.st598{opacity:0.54;fill:#3A508E;}
	.st599{opacity:0.56;fill:#3A508E;}
	.st600{opacity:0.58;fill:#3A508E;}
	.st601{opacity:0.6;fill:#3A508E;}
	.st602{opacity:0.62;fill:#3A508E;}
	.st603{opacity:0.64;fill:#3A508E;}
	.st604{opacity:0.66;fill:#3A508E;}
	.st605{opacity:0.68;fill:#3A508E;}
	.st606{opacity:0.7;fill:#3A508E;}
	.st607{opacity:0.72;fill:#3A508E;}
	.st608{opacity:0.74;fill:#3A508E;}
	.st609{opacity:0.76;fill:#3A508E;}
	.st610{opacity:0.78;fill:#3A508E;}
	.st611{opacity:0.8;fill:#3A508E;}
	.st612{opacity:0.82;fill:#3A508E;}
	.st613{opacity:0.84;fill:#3A508E;}
	.st614{opacity:0.86;fill:#3A508E;}
	.st615{opacity:0.88;fill:#3A508E;}
	.st616{opacity:0.9;fill:#3A508E;}
	.st617{opacity:0.92;fill:#3A508E;}
	.st618{opacity:0.94;fill:#3A508E;}
	.st619{opacity:0.96;fill:#3A508E;}
	.st620{opacity:0.98;fill:#3A508E;}
	.st621{fill:url(#SVGID_116_);}
	.st622{fill:url(#SVGID_117_);}
	.st623{clip-path:url(#SVGID_119_);}
	.st624{fill:url(#SVGID_120_);}
	.st625{fill:url(#SVGID_121_);}
	.st626{clip-path:url(#SVGID_123_);}
	.st627{fill:url(#SVGID_124_);}
	.st628{fill:url(#SVGID_125_);}
	.st629{fill:url(#SVGID_126_);}
</style>
<g>
	<g>
		<g>
			<path class="st0" d="M334.71,582.77L59.71,424c-10.86-6.27-9.5-17.22,3.04-24.46l156.07-90.11c12.54-7.24,31.51-8.03,42.37-1.76
				l275,158.77c10.86,6.27,9.5,17.22-3.04,24.46l-156.07,90.11C364.54,588.25,345.57,589.04,334.71,582.77z"/>
			<path class="st1" d="M334.71,569.04l-275-158.77c-4.84-2.79-7.25-6.52-7.33-10.43c0-0.13,0-13.5,0-13.62
				c0.09-4.75,3.6,3.5,10.37-0.41l156.07-90.11c12.54-7.24,31.51-8.03,42.37-1.76l275,158.77c3.63,2.09,6.25-6.79,7.19-3.97
				c0.31,0.94,0.11,13.4,0.13,14.38c0.1,4.87-3.41,10.03-10.37,14.05l-156.07,90.11C364.54,574.53,345.57,575.31,334.71,569.04z"/>
			<path class="st2" d="M334.71,555.67l-275-158.77c-10.86-6.27-9.5-17.22,3.04-24.46l156.07-90.11
				c12.54-7.24,31.51-8.03,42.37-1.76l275,158.77c10.86,6.27,9.5,17.22-3.04,24.46l-156.07,90.11
				C364.54,561.16,345.57,561.94,334.71,555.67z"/>
			<path class="st3" d="M334.71,569.04c10.86,6.27,29.83,5.48,42.37-1.76v-13.37c-12.54,7.24-31.51,8.03-42.37,1.76V569.04z"/>
			<path class="st4" d="M334.71,555.67l-275-158.77c-5.25-3.03-7.62-7.16-7.27-11.43c-0.03,0.2-0.05,0.45-0.06,0.75
				c0,0.13,0,13.5,0,13.62c0.08,3.91,2.49,7.63,7.33,10.43l275,158.77V555.67z"/>
			<path class="st5" d="M533.15,461.54l-156.07,90.11c-12.54,7.24-31.51,8.03-42.37,1.76l-275-158.77c-4.51-2.6-6.87-6.01-7.25-9.62
				c-0.56,4.44,1.81,8.75,7.25,11.89l275,158.77c10.86,6.27,29.83,5.48,42.37-1.76l156.07-90.11c7.34-4.24,10.82-9.74,10.29-14.84
				C542.87,453.39,539.4,457.93,533.15,461.54z"/>
			<path class="st6" d="M272.11,500.21l-97.87-56.51c-1.96-1.13-1.71-3.11,0.55-4.41l36.74-21.21c2.26-1.31,5.69-1.45,7.65-0.32
				l97.87,56.51c1.96,1.13,1.71,3.11-0.55,4.41l-36.74,21.21C277.49,501.2,274.07,501.34,272.11,500.21z"/>
			<path class="st7" d="M174.79,441.61l36.74-21.21c2.26-1.31,5.69-1.45,7.65-0.32l97.87,56.51c0.4,0.23,0.69,0.5,0.9,0.79
				c0.74-1.11,0.48-2.32-0.9-3.11l-97.87-56.51c-1.96-1.13-5.38-0.99-7.65,0.32l-36.74,21.21c-1.8,1.04-2.3,2.5-1.45,3.62
				C173.65,442.44,174.12,442,174.79,441.61z"/>
			<path class="st8" d="M243.29,300.98l16.87,9.74c2.14,1.24,5.61,1.24,7.74,0.01c2.13-1.23,2.12-3.23-0.02-4.47L251,296.53
				c-2.15-1.24-5.61-1.24-7.74-0.01C241.13,297.74,241.14,299.74,243.29,300.98z M272.16,317.66l7.99,4.61
				c2.14,1.24,5.61,1.24,7.74,0.01c2.13-1.23,2.12-3.23-0.02-4.47l-7.99-4.61c-2.14-1.24-5.61-1.24-7.74-0.01
				C270.01,314.42,270.02,316.42,272.16,317.66z M292.17,329.2l7.99,4.61c2.14,1.24,5.61,1.24,7.74,0.01
				c2.13-1.23,2.12-3.23-0.02-4.47l-7.99-4.61c-2.14-1.24-5.61-1.24-7.74-0.01C290.01,325.96,290.02,327.97,292.17,329.2z
				 M312.17,340.75l7.99,4.61c2.14,1.24,5.61,1.24,7.74,0.01c2.13-1.23,2.12-3.23-0.02-4.47l-7.99-4.61
				c-2.14-1.24-5.61-1.24-7.74-0.01C310.01,337.51,310.02,339.51,312.17,340.75z M332.17,352.3l7.99,4.61
				c2.14,1.24,5.61,1.24,7.74,0.01c2.13-1.23,2.12-3.23-0.02-4.47l-7.99-4.61c-2.14-1.24-5.61-1.24-7.74-0.01
				C330.01,349.06,330.02,351.06,332.17,352.3z M352.17,363.85l7.99,4.61c2.14,1.24,5.61,1.24,7.74,0.01
				c2.13-1.23,2.12-3.23-0.02-4.47l-7.99-4.61c-2.14-1.24-5.61-1.24-7.74-0.01C350.02,360.61,350.03,362.61,352.17,363.85z
				 M372.17,375.4l7.99,4.61c2.14,1.24,5.61,1.24,7.74,0.01c2.13-1.23,2.12-3.23-0.02-4.47l-7.99-4.61
				c-2.14-1.24-5.61-1.24-7.74-0.01C370.02,372.16,370.03,374.16,372.17,375.4z M392.17,386.94l7.99,4.61
				c2.14,1.24,5.61,1.24,7.74,0.01c2.13-1.23,2.12-3.23-0.02-4.47l-7.99-4.61c-2.14-1.24-5.61-1.24-7.74-0.01
				C390.02,383.7,390.03,385.71,392.17,386.94z M412.18,398.49l7.99,4.61c2.14,1.24,5.61,1.24,7.74,0.01
				c2.13-1.23,2.12-3.23-0.02-4.47l-7.99-4.61c-2.14-1.24-5.61-1.24-7.74-0.01C410.02,395.25,410.03,397.25,412.18,398.49z
				 M432.18,410.04l7.99,4.61c2.14,1.24,5.61,1.24,7.74,0.01c2.13-1.23,2.12-3.23-0.02-4.47l-7.99-4.61
				c-2.14-1.24-5.61-1.24-7.74-0.01C430.02,406.8,430.03,408.8,432.18,410.04z M452.18,421.59l7.99,4.61
				c2.14,1.24,5.61,1.24,7.74,0.01c2.13-1.23,2.12-3.23-0.02-4.47l-7.99-4.61c-2.14-1.24-5.61-1.24-7.74-0.01
				C450.02,418.35,450.03,420.35,452.18,421.59z M472.18,433.14l7.99,4.61c2.14,1.24,5.61,1.24,7.74,0.01
				c2.13-1.23,2.12-3.23-0.02-4.47l-7.99-4.61c-2.14-1.24-5.61-1.24-7.74-0.01C470.03,429.9,470.04,431.9,472.18,433.14z
				 M492.6,444.92l7.99,4.61c2.14,1.24,5.61,1.24,7.74,0.01c2.13-1.23,2.12-3.23-0.02-4.47l-7.99-4.61
				c-2.14-1.24-5.61-1.24-7.74-0.01C490.44,441.68,490.45,443.69,492.6,444.92z M225.3,311.99l6.92,3.99
				c2.44,1.41,6.39,1.42,8.81,0.02l6.87-3.97c2.43-1.4,2.41-3.68-0.03-5.09l-6.92-3.99c-2.44-1.41-6.39-1.42-8.81-0.02l-6.87,3.97
				C222.84,308.3,222.85,310.58,225.3,311.99z M261.03,327.55l6.87-3.97c2.43-1.4,2.41-3.68-0.03-5.09l-6.92-3.99
				c-2.44-1.41-6.39-1.42-8.81-0.02l-6.87,3.97c-2.43,1.4-2.41,3.68,0.03,5.09l6.92,3.99C254.66,328.94,258.6,328.95,261.03,327.55z
				 M265.3,335.08l6.92,3.99c2.44,1.41,6.39,1.42,8.81,0.02l6.87-3.97c2.43-1.4,2.41-3.68-0.03-5.09l-6.92-3.99
				c-2.44-1.41-6.39-1.42-8.81-0.02l-6.87,3.97C262.85,331.4,262.86,333.67,265.3,335.08z M285.3,346.63l6.92,3.99
				c2.44,1.41,6.39,1.42,8.81,0.02l6.87-3.97c2.43-1.4,2.41-3.68-0.03-5.09l-6.92-3.99c-2.44-1.41-6.39-1.42-8.81-0.02l-6.87,3.97
				C282.85,342.94,282.86,345.22,285.3,346.63z M327.88,353.13l-6.92-3.99c-2.44-1.41-6.39-1.42-8.81-0.02l-6.87,3.97
				c-2.43,1.4-2.41,3.68,0.03,5.09l6.92,3.99c2.44,1.41,6.39,1.42,8.81,0.02l6.87-3.97C330.33,356.82,330.32,354.54,327.88,353.13z
				 M347.88,364.68l-6.92-3.99c-2.44-1.41-6.39-1.42-8.81-0.02l-6.87,3.97c-2.43,1.4-2.41,3.68,0.03,5.09l6.92,3.99
				c2.44,1.41,6.39,1.42,8.81,0.02l6.87-3.97C350.33,368.37,350.32,366.09,347.88,364.68z M367.88,376.23l-6.92-3.99
				c-2.44-1.41-6.39-1.42-8.81-0.02l-6.87,3.97c-2.43,1.4-2.41,3.68,0.03,5.09l6.92,3.99c2.44,1.41,6.39,1.42,8.81,0.02l6.87-3.97
				C370.34,379.92,370.32,377.64,367.88,376.23z M387.88,387.78l-6.92-3.99c-2.44-1.41-6.39-1.42-8.81-0.02l-6.87,3.97
				c-2.43,1.4-2.41,3.68,0.03,5.09l6.92,3.99c2.44,1.41,6.39,1.42,8.81,0.02l6.87-3.97C390.34,391.46,390.32,389.19,387.88,387.78z
				 M407.89,399.33l-6.92-3.99c-2.44-1.41-6.39-1.42-8.81-0.02l-6.87,3.97c-2.43,1.4-2.41,3.68,0.03,5.09l6.92,3.99
				c2.44,1.41,6.39,1.42,8.81,0.02l6.87-3.97C410.34,403.01,410.33,400.73,407.89,399.33z M427.89,410.87l-6.92-3.99
				c-2.44-1.41-6.39-1.42-8.81-0.02l-6.87,3.97c-2.43,1.4-2.41,3.68,0.03,5.09l6.92,3.99c2.44,1.41,6.39,1.42,8.81,0.02l6.87-3.97
				C430.34,414.56,430.33,412.28,427.89,410.87z M425.31,427.47l6.92,3.99c2.44,1.41,6.39,1.42,8.81,0.02l6.87-3.97
				c2.43-1.4,2.41-3.68-0.03-5.09l-6.92-3.99c-2.44-1.41-6.39-1.42-8.81-0.02l-6.87,3.97C422.86,423.78,422.87,426.06,425.31,427.47
				z M467.89,433.97l-6.92-3.99c-2.44-1.41-6.39-1.42-8.81-0.02l-6.87,3.97c-2.43,1.4-2.41,3.68,0.03,5.09l6.92,3.99
				c2.44,1.41,6.39,1.42,8.81,0.02l6.87-3.97C470.34,437.66,470.33,435.38,467.89,433.97z M497.19,450.88l-15.79-9.12
				c-2.44-1.41-6.39-1.42-8.81-0.02l-6.87,3.97c-2.43,1.4-2.41,3.68,0.03,5.09l15.79,9.12c2.44,1.41,6.39,1.42,8.81,0.02l6.87-3.97
				C499.64,454.57,499.63,452.29,497.19,450.88z M206.77,322.68l15.79,9.12c2.44,1.41,6.39,1.42,8.81,0.02l6.87-3.97
				c2.43-1.4,2.41-3.68-0.03-5.09l-15.79-9.12c-2.44-1.41-6.39-1.42-8.81-0.02l-6.87,3.97C204.32,319,204.33,321.27,206.77,322.68z
				 M235.65,339.36l6.92,3.99c2.44,1.41,6.39,1.42,8.81,0.02l6.87-3.97c2.43-1.4,2.41-3.68-0.03-5.09l-6.92-3.99
				c-2.44-1.41-6.39-1.42-8.81-0.02l-6.87,3.97C233.19,335.67,233.21,337.95,235.65,339.36z M262.57,354.9
				c2.44,1.41,6.39,1.42,8.81,0.02l6.87-3.97c2.43-1.4,2.41-3.68-0.03-5.09l-6.92-3.99c-2.44-1.41-6.39-1.42-8.81-0.02l-6.87,3.97
				c-2.43,1.4-2.41,3.68,0.03,5.09L262.57,354.9z M282.57,366.45c2.44,1.41,6.39,1.42,8.81,0.02l6.87-3.97
				c2.43-1.4,2.41-3.68-0.03-5.09l-6.92-3.99c-2.44-1.41-6.39-1.42-8.81-0.02l-6.87,3.97c-2.43,1.4-2.41,3.68,0.03,5.09
				L282.57,366.45z M302.5,364.95l-6.87,3.97c-2.43,1.4-2.41,3.68,0.03,5.09l6.92,3.99c2.44,1.41,6.39,1.42,8.81,0.02l6.87-3.97
				c2.43-1.4,2.41-3.68-0.03-5.09l-6.92-3.99C308.87,363.55,304.93,363.54,302.5,364.95z M322.92,376.25l-7.72,4.46
				c-2.19,1.27-2.18,3.32,0.03,4.6l7.77,4.48c2.21,1.27,5.77,1.28,7.96,0.01l7.72-4.46c2.19-1.27,2.18-3.32-0.02-4.6l-7.77-4.48
				C328.68,374.99,325.12,374.98,322.92,376.25z M342.93,387.8l-7.72,4.46c-2.19,1.27-2.18,3.32,0.02,4.6l7.77,4.48
				c2.21,1.27,5.77,1.28,7.96,0.01l7.72-4.46c2.19-1.27,2.18-3.32-0.02-4.6l-7.77-4.48C348.68,386.54,345.12,386.53,342.93,387.8z
				 M362.93,399.35l-7.72,4.46c-2.19,1.27-2.18,3.32,0.02,4.6l7.77,4.48c2.21,1.27,5.77,1.28,7.96,0.01l7.72-4.46
				c2.19-1.27,2.18-3.32-0.02-4.6l-7.77-4.48C368.69,398.09,365.12,398.08,362.93,399.35z M382.93,410.89l-7.72,4.46
				c-2.19,1.27-2.18,3.32,0.02,4.6l7.77,4.48c2.21,1.27,5.77,1.28,7.96,0.01l7.72-4.46c2.19-1.27,2.18-3.32-0.02-4.6l-7.77-4.48
				C388.69,409.63,385.12,409.63,382.93,410.89z M402.93,422.44l-7.72,4.46c-2.19,1.27-2.18,3.32,0.03,4.6l7.77,4.48
				c2.21,1.27,5.77,1.28,7.96,0.01l7.72-4.46c2.19-1.27,2.18-3.32-0.02-4.6l-7.77-4.48C408.69,421.18,405.12,421.18,402.93,422.44z
				 M430.97,447.54l7.72-4.46c2.19-1.27,2.18-3.32-0.02-4.6L430.9,434c-2.21-1.27-5.77-1.28-7.96-0.01l-7.72,4.46
				c-2.19,1.27-2.18,3.32,0.02,4.6l7.77,4.48C425.21,448.8,428.78,448.81,430.97,447.54z M450.97,459.09l7.72-4.46
				c2.19-1.27,2.18-3.32-0.02-4.6l-7.77-4.48c-2.21-1.27-5.77-1.28-7.96-0.01l-7.72,4.46c-2.19,1.27-2.18,3.32,0.02,4.6l7.77,4.48
				C445.21,460.35,448.78,460.36,450.97,459.09z M479.08,461.82l-7.77-4.48c-2.21-1.27-5.77-1.28-7.96-0.01l-7.72,4.46
				c-2.19,1.27-2.18,3.32,0.02,4.6l7.77,4.48c2.21,1.27,5.77,1.28,7.96,0.01l7.72-4.46C481.3,465.16,481.29,463.1,479.08,461.82z
				 M187.82,333.13l25.08,14.48c2.21,1.27,5.77,1.28,7.96,0.01l7.72-4.46c2.19-1.27,2.18-3.32-0.03-4.6l-25.08-14.48
				c-2.21-1.27-5.77-1.28-7.96-0.01l-7.72,4.46C185.6,329.8,185.61,331.86,187.82,333.13z M225.13,354.68l7.77,4.48
				c2.21,1.27,5.77,1.28,7.96,0.01l7.72-4.46c2.19-1.27,2.18-3.32-0.02-4.6l-7.77-4.48c-2.21-1.27-5.77-1.28-7.96-0.01l-7.72,4.46
				C222.91,351.34,222.92,353.4,225.13,354.68z M245.13,366.23l7.77,4.48c2.21,1.27,5.77,1.28,7.96,0.01l7.72-4.46
				c2.19-1.27,2.18-3.32-0.02-4.6l-7.77-4.48c-2.21-1.27-5.77-1.28-7.96-0.01l-7.72,4.46C242.91,362.89,242.93,364.95,245.13,366.23
				z M265.13,377.77l7.77,4.48c2.21,1.27,5.77,1.28,7.96,0.01l7.72-4.46c2.19-1.27,2.18-3.32-0.02-4.6l-7.77-4.48
				c-2.21-1.27-5.77-1.28-7.96-0.01l-7.72,4.46C262.92,374.44,262.93,376.5,265.13,377.77z M300.87,393.82l7.72-4.46
				c2.19-1.27,2.18-3.32-0.03-4.6l-7.77-4.48c-2.21-1.27-5.77-1.28-7.96-0.01l-7.72,4.46c-2.19,1.27-2.18,3.32,0.03,4.6l7.77,4.48
				C295.11,395.08,298.68,395.09,300.87,393.82z M320.87,405.37l7.72-4.46c2.19-1.27,2.18-3.32-0.02-4.6l-7.77-4.48
				c-2.21-1.27-5.77-1.28-7.96-0.01l-7.72,4.46c-2.19,1.27-2.18,3.32,0.02,4.6l7.77,4.48C315.11,406.63,318.68,406.63,320.87,405.37
				z M340.87,416.92l7.72-4.46c2.19-1.27,2.18-3.32-0.02-4.6l-7.77-4.48c-2.21-1.27-5.77-1.28-7.96-0.01l-7.72,4.46
				c-2.19,1.27-2.18,3.32,0.02,4.6l7.77,4.48C335.11,418.18,338.68,418.18,340.87,416.92z M360.87,428.46l7.72-4.46
				c2.19-1.27,2.18-3.32-0.02-4.6l-7.77-4.48c-2.21-1.27-5.77-1.28-7.96-0.01l-7.72,4.46c-2.19,1.27-2.18,3.32,0.02,4.6l7.77,4.48
				C355.11,429.72,358.68,429.73,360.87,428.46z M380.87,440.01l7.72-4.46c2.19-1.27,2.18-3.32-0.02-4.6l-7.77-4.48
				c-2.21-1.27-5.77-1.28-7.96-0.01l-7.72,4.46c-2.19,1.27-2.18,3.32,0.03,4.6l7.77,4.48C375.12,441.27,378.68,441.28,380.87,440.01
				z M400.88,451.56l7.72-4.46c2.19-1.27,2.18-3.32-0.02-4.6l-7.77-4.48c-2.21-1.27-5.77-1.28-7.96-0.01l-7.72,4.46
				c-2.19,1.27-2.18,3.32,0.02,4.6l7.77,4.48C395.12,452.82,398.68,452.83,400.88,451.56z M405.15,458.61l7.77,4.48
				c2.21,1.27,5.77,1.28,7.96,0.01l7.72-4.46c2.19-1.27,2.18-3.32-0.02-4.6l-7.77-4.48c-2.21-1.27-5.77-1.28-7.96-0.01l-7.72,4.46
				C402.93,455.28,402.94,457.34,405.15,458.61z M460.56,472.52l-19.75-11.4c-2.21-1.27-5.77-1.28-7.96-0.01l-7.72,4.46
				c-2.19,1.27-2.18,3.32,0.02,4.6l19.75,11.4c2.21,1.27,5.77,1.28,7.96,0.01l7.72-4.46C462.78,475.85,462.77,473.79,460.56,472.52z
				 M169.37,344.38l35.58,20.54c2.49,1.44,6.52,1.45,9,0.02l6.69-3.86c2.48-1.43,2.46-3.76-0.03-5.19l-35.58-20.54
				c-2.49-1.44-6.52-1.45-9-0.02l-6.69,3.86C166.86,340.62,166.88,342.95,169.37,344.38z M218.22,372.59l6.73,3.89
				c2.49,1.44,6.52,1.45,9,0.02l6.69-3.86c2.48-1.43,2.46-3.76-0.03-5.19l-6.73-3.89c-2.49-1.44-6.52-1.45-9-0.02l-6.69,3.86
				C215.72,368.83,215.73,371.15,218.22,372.59z M238.22,384.14l6.73,3.89c2.49,1.44,6.52,1.45,9,0.02l6.69-3.86
				c2.48-1.43,2.46-3.76-0.03-5.19l-6.73-3.89c-2.49-1.44-6.52-1.45-9-0.02l-6.69,3.86C235.72,380.37,235.73,382.7,238.22,384.14z
				 M258.23,395.69l6.73,3.89c2.49,1.44,6.52,1.45,9,0.02l6.69-3.86c2.48-1.43,2.46-3.76-0.03-5.19l-6.73-3.89
				c-2.49-1.44-6.52-1.45-9-0.02l-6.69,3.86C255.72,391.92,255.73,394.25,258.23,395.69z M278.23,407.23l6.73,3.89
				c2.49,1.44,6.52,1.45,9,0.02l6.69-3.86c2.48-1.43,2.46-3.76-0.03-5.19l-6.73-3.89c-2.49-1.44-6.52-1.45-9-0.02l-6.69,3.86
				C275.72,403.47,275.73,405.79,278.23,407.23z M298.23,418.78l6.73,3.89c2.49,1.44,6.52,1.45,9,0.02l6.69-3.86
				c2.48-1.43,2.46-3.76-0.03-5.19l-6.73-3.89c-2.49-1.44-6.52-1.45-9-0.02l-6.69,3.86C295.72,415.02,295.74,417.34,298.23,418.78z
				 M318.23,430.33l6.73,3.89c2.49,1.44,6.52,1.45,9,0.02l6.69-3.86c2.48-1.43,2.46-3.76-0.03-5.19l-6.73-3.89
				c-2.49-1.44-6.52-1.45-9-0.02l-6.69,3.86C315.73,426.57,315.74,428.89,318.23,430.33z M338.23,441.88l6.73,3.89
				c2.49,1.44,6.52,1.45,9,0.02l6.69-3.86c2.48-1.43,2.46-3.76-0.03-5.19l-6.73-3.89c-2.49-1.44-6.52-1.45-9-0.02l-6.69,3.86
				C335.73,438.11,335.74,440.44,338.23,441.88z M358.23,453.43l6.73,3.89c2.49,1.44,6.52,1.45,9,0.02l6.69-3.86
				c2.48-1.43,2.46-3.76-0.03-5.19l-6.73-3.89c-2.49-1.44-6.52-1.45-9-0.02l-6.69,3.86C355.73,449.66,355.74,451.99,358.23,453.43z
				 M378.24,464.97l6.73,3.89c2.49,1.44,6.52,1.45,9,0.02l6.69-3.86c2.48-1.43,2.46-3.76-0.03-5.19l-6.73-3.89
				c-2.49-1.44-6.52-1.45-9-0.02l-6.69,3.86C375.73,461.21,375.74,463.53,378.24,464.97z M398.24,476.52l6.73,3.89
				c2.49,1.44,6.52,1.45,9,0.02l6.69-3.86c2.48-1.43,2.46-3.76-0.03-5.19l-6.73-3.89c-2.49-1.44-6.52-1.45-9-0.02l-6.69,3.86
				C395.73,472.76,395.75,475.08,398.24,476.52z M441.07,483.17l-6.73-3.89c-2.49-1.44-6.52-1.45-9-0.02l-6.69,3.86
				c-2.48,1.43-2.46,3.76,0.03,5.19l6.73,3.89c2.49,1.44,6.52,1.45,9,0.02l6.69-3.86C443.58,486.94,443.57,484.61,441.07,483.17z
				 M182.11,355.05l-15.61-9.01c-2.49-1.44-6.52-1.45-9-0.02l-6.69,3.86c-2.48,1.43-2.46,3.76,0.03,5.19l15.61,9.01
				c2.49,1.44,6.52,1.45,9,0.02l6.69-3.86C184.62,358.82,184.6,356.49,182.11,355.05z M202.11,366.6l-6.73-3.89
				c-2.49-1.44-6.52-1.45-9-0.02l-6.69,3.86c-2.48,1.43-2.46,3.76,0.03,5.19l6.73,3.89c2.49,1.44,6.52,1.45,9,0.02l6.69-3.86
				C204.62,370.36,204.6,368.04,202.11,366.6z M222.11,378.15l-6.73-3.89c-2.49-1.44-6.52-1.45-9-0.02l-6.69,3.86
				c-2.48,1.43-2.46,3.76,0.03,5.19l6.73,3.89c2.49,1.44,6.52,1.45,9,0.02l6.69-3.86C224.62,381.91,224.61,379.59,222.11,378.15z
				 M362.13,458.98l-126.74-73.17c-2.49-1.44-6.52-1.45-9-0.02l-6.69,3.86c-2.48,1.43-2.46,3.76,0.03,5.19l126.74,73.17
				c2.49,1.44,6.52,1.45,9,0.02l6.69-3.86C364.63,462.75,364.62,460.42,362.13,458.98z M382.13,470.53l-6.73-3.89
				c-2.49-1.44-6.52-1.45-9-0.02l-6.69,3.86c-2.48,1.43-2.46,3.76,0.03,5.19l6.73,3.89c2.49,1.44,6.52,1.45,9,0.02l6.69-3.86
				C384.63,474.3,384.62,471.97,382.13,470.53z M402.13,482.08l-6.73-3.89c-2.49-1.44-6.52-1.45-9-0.02l-6.69,3.86
				c-2.48,1.43-2.46,3.76,0.03,5.19l6.73,3.89c2.49,1.44,6.52,1.45,9,0.02l6.69-3.86C404.63,485.84,404.62,483.52,402.13,482.08z
				 M422.55,493.87l-6.73-3.89c-2.49-1.44-6.52-1.45-9-0.02l-6.69,3.86c-2.48,1.43-2.46,3.76,0.03,5.19l6.73,3.89
				c2.49,1.44,6.52,1.45,9,0.02l6.69-3.86C425.05,497.63,425.04,495.31,422.55,493.87z"/>
			<path class="st7" d="M243.29,299.12l16.87,9.74c2.14,1.24,5.61,1.24,7.74,0.01s2.12-3.23-0.02-4.47L251,294.66
				c-2.15-1.24-5.61-1.24-7.74-0.01C241.13,295.88,241.14,297.88,243.29,299.12z M272.16,315.79l7.99,4.61
				c2.14,1.24,5.61,1.24,7.74,0.01c2.13-1.23,2.12-3.23-0.02-4.47l-7.99-4.61c-2.14-1.24-5.61-1.24-7.74-0.01
				C270.01,312.55,270.02,314.55,272.16,315.79z M292.17,327.34l7.99,4.61c2.14,1.24,5.61,1.24,7.74,0.01
				c2.13-1.23,2.12-3.23-0.02-4.47l-7.99-4.61c-2.14-1.24-5.61-1.24-7.74-0.01C290.01,324.1,290.02,326.1,292.17,327.34z
				 M312.17,338.89l7.99,4.61c2.14,1.24,5.61,1.24,7.74,0.01c2.13-1.23,2.12-3.23-0.02-4.47l-7.99-4.61
				c-2.14-1.24-5.61-1.24-7.74-0.01C310.01,335.65,310.02,337.65,312.17,338.89z M332.17,350.44l7.99,4.61
				c2.14,1.24,5.61,1.24,7.74,0.01c2.13-1.23,2.12-3.23-0.02-4.47l-7.99-4.61c-2.14-1.24-5.61-1.24-7.74-0.01
				C330.01,347.2,330.02,349.2,332.17,350.44z M352.17,361.98l7.99,4.61c2.14,1.24,5.61,1.24,7.74,0.01
				c2.13-1.23,2.12-3.23-0.02-4.47l-7.99-4.61c-2.14-1.24-5.61-1.24-7.74-0.01C350.02,358.75,350.03,360.75,352.17,361.98z
				 M372.17,373.53l7.99,4.61c2.14,1.24,5.61,1.24,7.74,0.01c2.13-1.23,2.12-3.23-0.02-4.47l-7.99-4.61
				c-2.14-1.24-5.61-1.24-7.74-0.01C370.02,370.29,370.03,372.29,372.17,373.53z M392.17,385.08l7.99,4.61
				c2.14,1.24,5.61,1.24,7.74,0.01c2.13-1.23,2.12-3.23-0.02-4.47l-7.99-4.61c-2.14-1.24-5.61-1.24-7.74-0.01
				C390.02,381.84,390.03,383.84,392.17,385.08z M412.18,396.63l7.99,4.61c2.14,1.24,5.61,1.24,7.74,0.01
				c2.13-1.23,2.12-3.23-0.02-4.47l-7.99-4.61c-2.14-1.24-5.61-1.24-7.74-0.01C410.02,393.39,410.03,395.39,412.18,396.63z
				 M432.18,408.18l7.99,4.61c2.14,1.24,5.61,1.24,7.74,0.01c2.13-1.23,2.12-3.23-0.02-4.47l-7.99-4.61
				c-2.14-1.24-5.61-1.24-7.74-0.01C430.02,404.94,430.03,406.94,432.18,408.18z M452.18,419.72l7.99,4.61
				c2.14,1.24,5.61,1.24,7.74,0.01c2.13-1.23,2.12-3.23-0.02-4.47l-7.99-4.61c-2.14-1.24-5.61-1.24-7.74-0.01
				C450.02,416.48,450.03,418.49,452.18,419.72z M472.18,431.27l7.99,4.61c2.14,1.24,5.61,1.24,7.74,0.01
				c2.13-1.23,2.12-3.23-0.02-4.47l-7.99-4.61c-2.14-1.24-5.61-1.24-7.74-0.01C470.03,428.03,470.04,430.03,472.18,431.27z
				 M492.6,443.06l7.99,4.61c2.14,1.24,5.61,1.24,7.74,0.01c2.13-1.23,2.12-3.23-0.02-4.47l-7.99-4.61
				c-2.14-1.24-5.61-1.24-7.74-0.01C490.44,439.82,490.45,441.82,492.6,443.06z M225.3,310.13l6.92,3.99
				c2.44,1.41,6.39,1.42,8.81,0.02l6.87-3.97c2.43-1.4,2.41-3.68-0.03-5.09l-6.92-3.99c-2.44-1.41-6.39-1.42-8.81-0.02l-6.87,3.97
				C222.84,306.44,222.85,308.72,225.3,310.13z M261.03,325.68l6.87-3.97c2.43-1.4,2.41-3.68-0.03-5.09l-6.92-3.99
				c-2.44-1.41-6.39-1.42-8.81-0.02l-6.87,3.97c-2.43,1.4-2.41,3.68,0.03,5.09l6.92,3.99C254.66,327.08,258.6,327.08,261.03,325.68z
				 M265.3,333.22l6.92,3.99c2.44,1.41,6.39,1.42,8.81,0.02l6.87-3.97c2.43-1.4,2.41-3.68-0.03-5.09l-6.92-3.99
				c-2.44-1.41-6.39-1.42-8.81-0.02l-6.87,3.97C262.85,329.53,262.86,331.81,265.3,333.22z M285.3,344.77l6.92,3.99
				c2.44,1.41,6.39,1.42,8.81,0.02l6.87-3.97c2.43-1.4,2.41-3.68-0.03-5.09l-6.92-3.99c-2.44-1.41-6.39-1.42-8.81-0.02l-6.87,3.97
				C282.85,341.08,282.86,343.36,285.3,344.77z M327.88,351.27l-6.92-3.99c-2.44-1.41-6.39-1.42-8.81-0.02l-6.87,3.97
				c-2.43,1.4-2.41,3.68,0.03,5.09l6.92,3.99c2.44,1.41,6.39,1.42,8.81,0.02l6.87-3.97C330.33,354.96,330.32,352.68,327.88,351.27z
				 M347.88,362.82l-6.92-3.99c-2.44-1.41-6.39-1.42-8.81-0.02l-6.87,3.97c-2.43,1.4-2.41,3.68,0.03,5.09l6.92,3.99
				c2.44,1.41,6.39,1.42,8.81,0.02l6.87-3.97C350.33,366.51,350.32,364.23,347.88,362.82z M367.88,374.37l-6.92-3.99
				c-2.44-1.41-6.39-1.42-8.81-0.02l-6.87,3.97c-2.43,1.4-2.41,3.68,0.03,5.09l6.92,3.99c2.44,1.41,6.39,1.42,8.81,0.02l6.87-3.97
				C370.34,378.05,370.32,375.78,367.88,374.37z M387.88,385.91l-6.92-3.99c-2.44-1.41-6.39-1.42-8.81-0.02l-6.87,3.97
				c-2.43,1.4-2.41,3.68,0.03,5.09l6.92,3.99c2.44,1.41,6.39,1.42,8.81,0.02l6.87-3.97C390.34,389.6,390.32,387.32,387.88,385.91z
				 M407.89,397.46l-6.92-3.99c-2.44-1.41-6.39-1.42-8.81-0.02l-6.87,3.97c-2.43,1.4-2.41,3.68,0.03,5.09l6.92,3.99
				c2.44,1.41,6.39,1.42,8.81,0.02l6.87-3.97C410.34,401.15,410.33,398.87,407.89,397.46z M427.89,409.01l-6.92-3.99
				c-2.44-1.41-6.39-1.42-8.81-0.02l-6.87,3.97c-2.43,1.4-2.41,3.68,0.03,5.09l6.92,3.99c2.44,1.41,6.39,1.42,8.81,0.02l6.87-3.97
				C430.34,412.7,430.33,410.42,427.89,409.01z M425.31,425.61l6.92,3.99c2.44,1.41,6.39,1.42,8.81,0.02l6.87-3.97
				c2.43-1.4,2.41-3.68-0.03-5.09l-6.92-3.99c-2.44-1.41-6.39-1.42-8.81-0.02l-6.87,3.97C422.86,421.92,422.87,424.2,425.31,425.61z
				 M467.89,432.11l-6.92-3.99c-2.44-1.41-6.39-1.42-8.81-0.02l-6.87,3.97c-2.43,1.4-2.41,3.68,0.03,5.09l6.92,3.99
				c2.44,1.41,6.39,1.42,8.81,0.02l6.87-3.97C470.34,435.79,470.33,433.52,467.89,432.11z M497.19,449.02l-15.79-9.12
				c-2.44-1.41-6.39-1.42-8.81-0.02l-6.87,3.97c-2.43,1.4-2.41,3.68,0.03,5.09l15.79,9.12c2.44,1.41,6.39,1.42,8.81,0.02l6.87-3.97
				C499.64,452.71,499.63,450.43,497.19,449.02z M206.77,320.82l15.79,9.12c2.44,1.41,6.39,1.42,8.81,0.02l6.87-3.97
				c2.43-1.4,2.41-3.68-0.03-5.09l-15.79-9.12c-2.44-1.41-6.39-1.42-8.81-0.02l-6.87,3.97
				C204.32,317.13,204.33,319.41,206.77,320.82z M235.65,337.49l6.92,3.99c2.44,1.41,6.39,1.42,8.81,0.02l6.87-3.97
				c2.43-1.4,2.41-3.68-0.03-5.09l-6.92-3.99c-2.44-1.41-6.39-1.42-8.81-0.02l-6.87,3.97C233.19,333.81,233.21,336.09,235.65,337.49
				z M262.57,353.04c2.44,1.41,6.39,1.42,8.81,0.02l6.87-3.97c2.43-1.4,2.41-3.68-0.03-5.09l-6.92-3.99
				c-2.44-1.41-6.39-1.42-8.81-0.02l-6.87,3.97c-2.43,1.4-2.41,3.68,0.03,5.09L262.57,353.04z M282.57,364.58
				c2.44,1.41,6.39,1.42,8.81,0.02l6.87-3.97c2.43-1.4,2.41-3.68-0.03-5.09l-6.92-3.99c-2.44-1.41-6.39-1.42-8.81-0.02l-6.87,3.97
				c-2.43,1.4-2.41,3.68,0.03,5.09L282.57,364.58z M302.5,363.08l-6.87,3.97c-2.43,1.4-2.41,3.68,0.03,5.09l6.92,3.99
				c2.44,1.41,6.39,1.42,8.81,0.02l6.87-3.97c2.43-1.4,2.41-3.68-0.03-5.09l-6.92-3.99C308.87,361.69,304.93,361.68,302.5,363.08z
				 M322.92,374.39l-7.72,4.46c-2.19,1.27-2.18,3.32,0.03,4.6l7.77,4.48c2.21,1.27,5.77,1.28,7.96,0.01l7.72-4.46
				c2.19-1.27,2.18-3.32-0.02-4.6l-7.77-4.48C328.68,373.13,325.12,373.12,322.92,374.39z M342.93,385.93l-7.72,4.46
				c-2.19,1.27-2.18,3.32,0.02,4.6l7.77,4.48c2.21,1.27,5.77,1.28,7.96,0.01l7.72-4.46c2.19-1.27,2.18-3.32-0.02-4.6l-7.77-4.48
				C348.68,384.67,345.12,384.67,342.93,385.93z M362.93,397.48l-7.72,4.46c-2.19,1.27-2.18,3.32,0.02,4.6l7.77,4.48
				c2.21,1.27,5.77,1.28,7.96,0.01l7.72-4.46c2.19-1.27,2.18-3.32-0.02-4.6l-7.77-4.48C368.69,396.22,365.12,396.22,362.93,397.48z
				 M382.93,409.03l-7.72,4.46c-2.19,1.27-2.18,3.32,0.02,4.6l7.77,4.48c2.21,1.27,5.77,1.28,7.96,0.01l7.72-4.46
				c2.19-1.27,2.18-3.32-0.02-4.6l-7.77-4.48C388.69,407.77,385.12,407.76,382.93,409.03z M402.93,420.58l-7.72,4.46
				c-2.19,1.27-2.18,3.32,0.03,4.6l7.77,4.48c2.21,1.27,5.77,1.28,7.96,0.01l7.72-4.46c2.19-1.27,2.18-3.32-0.02-4.6l-7.77-4.48
				C408.69,419.32,405.12,419.31,402.93,420.58z M430.97,445.68l7.72-4.46c2.19-1.27,2.18-3.32-0.02-4.6l-7.77-4.48
				c-2.21-1.27-5.77-1.28-7.96-0.01l-7.72,4.46c-2.19,1.27-2.18,3.32,0.02,4.6l7.77,4.48C425.21,446.94,428.78,446.95,430.97,445.68
				z M450.97,457.23l7.72-4.46c2.19-1.27,2.18-3.32-0.02-4.6l-7.77-4.48c-2.21-1.27-5.77-1.28-7.96-0.01l-7.72,4.46
				c-2.19,1.27-2.18,3.32,0.02,4.6l7.77,4.48C445.21,458.49,448.78,458.49,450.97,457.23z M479.08,459.96l-7.77-4.48
				c-2.21-1.27-5.77-1.28-7.96-0.01l-7.72,4.46c-2.19,1.27-2.18,3.32,0.02,4.6l7.77,4.48c2.21,1.27,5.77,1.28,7.96,0.01l7.72-4.46
				C481.3,463.29,481.29,461.24,479.08,459.96z M187.82,331.27l25.08,14.48c2.21,1.27,5.77,1.28,7.96,0.01l7.72-4.46
				c2.19-1.27,2.18-3.32-0.03-4.6l-25.08-14.48c-2.21-1.27-5.77-1.28-7.96-0.01l-7.72,4.46C185.6,327.94,185.61,330,187.82,331.27z
				 M225.13,352.81l7.77,4.48c2.21,1.27,5.77,1.28,7.96,0.01l7.72-4.46c2.19-1.27,2.18-3.32-0.02-4.6l-7.77-4.48
				c-2.21-1.27-5.77-1.28-7.96-0.01l-7.72,4.46C222.91,349.48,222.92,351.54,225.13,352.81z M245.13,364.36l7.77,4.48
				c2.21,1.27,5.77,1.28,7.96,0.01l7.72-4.46c2.19-1.27,2.18-3.32-0.02-4.6l-7.77-4.48c-2.21-1.27-5.77-1.28-7.96-0.01l-7.72,4.46
				C242.91,361.03,242.93,363.09,245.13,364.36z M265.13,375.91l7.77,4.48c2.21,1.27,5.77,1.28,7.96,0.01l7.72-4.46
				c2.19-1.27,2.18-3.32-0.02-4.6l-7.77-4.48c-2.21-1.27-5.77-1.28-7.96-0.01l-7.72,4.46C262.92,372.58,262.93,374.64,265.13,375.91
				z M300.87,391.96l7.72-4.46c2.19-1.27,2.18-3.32-0.03-4.6l-7.77-4.48c-2.21-1.27-5.77-1.28-7.96-0.01l-7.72,4.46
				c-2.19,1.27-2.18,3.32,0.03,4.6l7.77,4.48C295.11,393.22,298.68,393.22,300.87,391.96z M320.87,403.51l7.72-4.46
				c2.19-1.27,2.18-3.32-0.02-4.6l-7.77-4.48c-2.21-1.27-5.77-1.28-7.96-0.01l-7.72,4.46c-2.19,1.27-2.18,3.32,0.02,4.6l7.77,4.48
				C315.11,404.76,318.68,404.77,320.87,403.51z M340.87,415.05l7.72-4.46c2.19-1.27,2.18-3.32-0.02-4.6l-7.77-4.48
				c-2.21-1.27-5.77-1.28-7.96-0.01l-7.72,4.46c-2.19,1.27-2.18,3.32,0.02,4.6l7.77,4.48C335.11,416.31,338.68,416.32,340.87,415.05
				z M360.87,426.6l7.72-4.46c2.19-1.27,2.18-3.32-0.02-4.6l-7.77-4.48c-2.21-1.27-5.77-1.28-7.96-0.01l-7.72,4.46
				c-2.19,1.27-2.18,3.32,0.02,4.6l7.77,4.48C355.11,427.86,358.68,427.87,360.87,426.6z M380.87,438.15l7.72-4.46
				c2.19-1.27,2.18-3.32-0.02-4.6l-7.77-4.48c-2.21-1.27-5.77-1.28-7.96-0.01l-7.72,4.46c-2.19,1.27-2.18,3.32,0.03,4.6l7.77,4.48
				C375.12,439.41,378.68,439.42,380.87,438.15z M400.88,449.7l7.72-4.46c2.19-1.27,2.18-3.32-0.02-4.6l-7.77-4.48
				c-2.21-1.27-5.77-1.28-7.96-0.01l-7.72,4.46c-2.19,1.27-2.18,3.32,0.02,4.6l7.77,4.48C395.12,450.96,398.68,450.96,400.88,449.7z
				 M405.15,456.75l7.77,4.48c2.21,1.27,5.77,1.28,7.96,0.01l7.72-4.46c2.19-1.27,2.18-3.32-0.02-4.6l-7.77-4.48
				c-2.21-1.27-5.77-1.28-7.96-0.01l-7.72,4.46C402.93,453.41,402.94,455.47,405.15,456.75z M460.56,470.66l-19.75-11.4
				c-2.21-1.27-5.77-1.28-7.96-0.01l-7.72,4.46c-2.19,1.27-2.18,3.32,0.02,4.6l19.75,11.4c2.21,1.27,5.77,1.28,7.96,0.01l7.72-4.46
				C462.78,473.99,462.77,471.93,460.56,470.66z M169.37,342.52l35.58,20.54c2.49,1.44,6.52,1.45,9,0.02l6.69-3.86
				c2.48-1.43,2.46-3.76-0.03-5.19l-35.58-20.54c-2.49-1.44-6.52-1.45-9-0.02l-6.69,3.86C166.86,338.76,166.88,341.08,169.37,342.52
				z M218.22,370.73l6.73,3.89c2.49,1.44,6.52,1.45,9,0.02l6.69-3.86c2.48-1.43,2.46-3.76-0.03-5.19l-6.73-3.89
				c-2.49-1.44-6.52-1.45-9-0.02l-6.69,3.86C215.72,366.96,215.73,369.29,218.22,370.73z M238.22,382.27l6.73,3.89
				c2.49,1.44,6.52,1.45,9,0.02l6.69-3.86c2.48-1.43,2.46-3.76-0.03-5.19l-6.73-3.89c-2.49-1.44-6.52-1.45-9-0.02l-6.69,3.86
				C235.72,378.51,235.73,380.84,238.22,382.27z M258.23,393.82l6.73,3.89c2.49,1.44,6.52,1.45,9,0.02l6.69-3.86
				c2.48-1.43,2.46-3.76-0.03-5.19l-6.73-3.89c-2.49-1.44-6.52-1.45-9-0.02l-6.69,3.86C255.72,390.06,255.73,392.38,258.23,393.82z
				 M278.23,405.37l6.73,3.89c2.49,1.44,6.52,1.45,9,0.02l6.69-3.86c2.48-1.43,2.46-3.76-0.03-5.19l-6.73-3.89
				c-2.49-1.44-6.52-1.45-9-0.02l-6.69,3.86C275.72,401.61,275.73,403.93,278.23,405.37z M298.23,416.92l6.73,3.89
				c2.49,1.44,6.52,1.45,9,0.02l6.69-3.86c2.48-1.43,2.46-3.76-0.03-5.19l-6.73-3.89c-2.49-1.44-6.52-1.45-9-0.02l-6.69,3.86
				C295.72,413.15,295.74,415.48,298.23,416.92z M318.23,428.47l6.73,3.89c2.49,1.44,6.52,1.45,9,0.02l6.69-3.86
				c2.48-1.43,2.46-3.76-0.03-5.19l-6.73-3.89c-2.49-1.44-6.52-1.45-9-0.02l-6.69,3.86C315.73,424.7,315.74,427.03,318.23,428.47z
				 M338.23,440.01l6.73,3.89c2.49,1.44,6.52,1.45,9,0.02l6.69-3.86c2.48-1.43,2.46-3.76-0.03-5.19l-6.73-3.89
				c-2.49-1.44-6.52-1.45-9-0.02l-6.69,3.86C335.73,436.25,335.74,438.58,338.23,440.01z M358.23,451.56l6.73,3.89
				c2.49,1.44,6.52,1.45,9,0.02l6.69-3.86c2.48-1.43,2.46-3.76-0.03-5.19l-6.73-3.89c-2.49-1.44-6.52-1.45-9-0.02l-6.69,3.86
				C355.73,447.8,355.74,450.12,358.23,451.56z M378.24,463.11l6.73,3.89c2.49,1.44,6.52,1.45,9,0.02l6.69-3.86
				c2.48-1.43,2.46-3.76-0.03-5.19l-6.73-3.89c-2.49-1.44-6.52-1.45-9-0.02l-6.69,3.86C375.73,459.35,375.74,461.67,378.24,463.11z
				 M398.24,474.66l6.73,3.89c2.49,1.44,6.52,1.45,9,0.02l6.69-3.86c2.48-1.43,2.46-3.76-0.03-5.19l-6.73-3.89
				c-2.49-1.44-6.52-1.45-9-0.02l-6.69,3.86C395.73,470.89,395.75,473.22,398.24,474.66z M441.07,481.31l-6.73-3.89
				c-2.49-1.44-6.52-1.45-9-0.02l-6.69,3.86c-2.48,1.43-2.46,3.76,0.03,5.19l6.73,3.89c2.49,1.44,6.52,1.45,9,0.02l6.69-3.86
				C443.58,485.07,443.57,482.75,441.07,481.31z M182.11,353.19l-15.61-9.01c-2.49-1.44-6.52-1.45-9-0.02l-6.69,3.86
				c-2.48,1.43-2.46,3.76,0.03,5.19l15.61,9.01c2.49,1.44,6.52,1.45,9,0.02l6.69-3.86C184.62,356.95,184.6,354.63,182.11,353.19z
				 M202.11,364.74l-6.73-3.89c-2.49-1.44-6.52-1.45-9-0.02l-6.69,3.86c-2.48,1.43-2.46,3.76,0.03,5.19l6.73,3.89
				c2.49,1.44,6.52,1.45,9,0.02l6.69-3.86C204.62,368.5,204.6,366.18,202.11,364.74z M222.11,376.28l-6.73-3.89
				c-2.49-1.44-6.52-1.45-9-0.02l-6.69,3.86c-2.48,1.43-2.46,3.76,0.03,5.19l6.73,3.89c2.49,1.44,6.52,1.45,9,0.02l6.69-3.86
				C224.62,380.05,224.61,377.72,222.11,376.28z M362.13,457.12l-126.74-73.17c-2.49-1.44-6.52-1.45-9-0.02l-6.69,3.86
				c-2.48,1.43-2.46,3.76,0.03,5.19l126.74,73.17c2.49,1.44,6.52,1.45,9,0.02l6.69-3.86C364.63,460.89,364.62,458.56,362.13,457.12z
				 M382.13,468.67l-6.73-3.89c-2.49-1.44-6.52-1.45-9-0.02l-6.69,3.86c-2.48,1.43-2.46,3.76,0.03,5.19l6.73,3.89
				c2.49,1.44,6.52,1.45,9,0.02l6.69-3.86C384.63,472.43,384.62,470.11,382.13,468.67z M402.13,480.22l-6.73-3.89
				c-2.49-1.44-6.52-1.45-9-0.02l-6.69,3.86c-2.48,1.43-2.46,3.76,0.03,5.19l6.73,3.89c2.49,1.44,6.52,1.45,9,0.02l6.69-3.86
				C404.63,483.98,404.62,481.66,402.13,480.22z M422.55,492.01l-6.73-3.89c-2.49-1.44-6.52-1.45-9-0.02l-6.69,3.86
				c-2.48,1.43-2.46,3.76,0.03,5.19l6.73,3.89c2.49,1.44,6.52,1.45,9,0.02l6.69-3.86C425.05,495.77,425.04,493.44,422.55,492.01z"/>
			<g>
				<path class="st7" d="M533.16,437.85L263.71,282.28c-10.3-6.01-15.68-21.2-12.02-33.93l55.69-193.45
					c3.66-12.73,14.99-18.18,25.29-12.17l269.45,155.58c10.3,6.01,15.68,21.2,12.02,33.93l-55.69,193.45
					C554.79,438.42,543.47,443.86,533.16,437.85z"/>
				<path class="st9" d="M538.8,428.03l-266.62-153.9c-8.16-5.28-11.27-15.29-8.4-25.27l55.96-194.39c0.68-2.37,4.31-3.7,6.51-2.4
					c0.26,0.15,0.46,0.27,0.58,0.34l266.82,154.05c9.87,5.75,11.27,15.29,8.4,25.27l-55.83,193.94c-0.73,2.54-4.6,3.98-6.99,2.61
					C539.05,428.17,538.9,428.09,538.8,428.03z"/>
				<path class="st10" d="M593.66,206.46L326.84,52.41c-0.12-0.07-0.33-0.19-0.58-0.34c-2.2-1.3-5.83,0.03-6.51,2.4l-55.96,194.39
					c-2.87,9.98,0.23,19.99,8.4,25.27l266.62,153.9c0.1,0.06,0.25,0.14,0.44,0.25c2.38,1.37,6.26-0.08,6.99-2.61l55.83-193.94
					C604.93,221.75,603.53,212.21,593.66,206.46z M543.8,425.57c-0.24,0.84-1.28,1.33-2.1,1.3c-0.29-0.01-0.55-0.09-0.78-0.22
					L273.87,272.49c-7.37-4.77-10.41-14.03-7.67-23.54l55.96-194.39c0.2-0.69,1.05-1.09,1.73-1.06c0.24,0.01,0.46,0.07,0.66,0.19
					l267.42,154.4c10.23,5.96,9.82,16.09,7.67,23.54L543.8,425.57z"/>
				<path class="st4" d="M608.98,195.96L339.53,40.38c-4.08-2.38-8.31-2.96-12.17-2.01c-0.49,0.12-7.23,2.43-7.71,2.6
					c-0.01,0-0.02,0.01-0.02,0.01c4.08-1.28,8.65-0.81,13.05,1.75l269.45,155.58c10.3,6.01,15.68,21.2,12.02,33.93l-55.69,193.45
					c-2.29,7.94-7.56,13.05-13.7,14.31c0.46,0.04,1.08-0.08,2.03-0.44c0.31-0.11,7.67-2.79,7.97-2.93
					c4.75-2.13,8.66-6.75,10.54-13.29L621,229.89C624.66,217.16,619.28,201.97,608.98,195.96z"/>
				<path class="st8" d="M608.98,195.96L339.53,40.38c-4.08-2.38-8.31-2.96-12.17-2.01c-0.49,0.12-7.23,2.43-7.71,2.6
					c-0.01,0-0.02,0.01-0.02,0.01c4.08-1.28,8.65-0.81,13.05,1.75l269.45,155.58L608.98,195.96z"/>
				<path class="st5" d="M603.28,197.93L333.83,42.36c-4.22-2.47-8.61-2.98-12.58-1.87c3.19-0.26,6.56,0.48,9.82,2.39l269.45,155.58
					c10.3,6.01,15.68,21.2,12.02,33.93l-55.69,193.45c-2.16,7.51-7,12.46-12.71,14.04c6.89-0.57,12.96-5.86,15.47-14.55
					l55.69-193.45C618.96,219.14,613.58,203.94,603.28,197.93z"/>
			</g>
		</g>
	</g>
	<g>
		<g>
			<polygon class="st1" points="175.49,225.93 175.49,275.61 182.99,271.48 182.99,221.42 			"/>
			<polygon class="st8" points="175.55,225.93 175.55,275.61 131.32,250.06 131.32,199.99 			"/>
			<polygon class="st7" points="131.32,199.99 175.55,225.93 182.99,221.42 138.67,195.62 			"/>
			<polygon class="st11" points="131.32,199.99 175.55,225.93 182.99,221.42 175.18,223.54 			"/>
		</g>
		<g>
			<polygon class="st1" points="175.49,160.58 175.49,210.26 182.99,206.13 182.99,156.07 			"/>
			<polygon class="st8" points="175.55,160.58 175.55,210.26 131.32,184.71 131.32,134.64 			"/>
			<g>
				<path class="st7" d="M149,280.77c-0.17,0-0.35-0.05-0.51-0.14l-3.46-2.03c-0.48-0.28-0.64-0.9-0.36-1.37
					c0.28-0.48,0.9-0.63,1.37-0.36l3.46,2.03c0.48,0.28,0.64,0.9,0.36,1.37C149.68,280.59,149.34,280.77,149,280.77z M140.34,275.69
					c-0.17,0-0.35-0.05-0.51-0.14l-3.47-2.03c-0.48-0.28-0.64-0.9-0.36-1.37c0.28-0.48,0.89-0.64,1.37-0.36l3.47,2.03
					c0.48,0.28,0.64,0.9,0.36,1.37C141.02,275.51,140.68,275.69,140.34,275.69z M131.67,270.61c-0.17,0-0.35-0.05-0.51-0.14
					l-2.59-1.52c-0.31-0.18-0.61-0.37-0.91-0.57c-0.46-0.3-0.59-0.93-0.29-1.39c0.31-0.46,0.93-0.59,1.39-0.28
					c0.27,0.18,0.54,0.35,0.82,0.51l2.59,1.52c0.48,0.28,0.64,0.9,0.36,1.37C132.35,270.43,132.02,270.61,131.67,270.61z
					 M123.8,264.5c-0.3,0-0.59-0.13-0.79-0.38c-0.88-1.1-1.64-2.3-2.26-3.56c-0.25-0.5-0.04-1.1,0.45-1.35
					c0.5-0.25,1.1-0.04,1.35,0.46c0.56,1.13,1.24,2.21,2.03,3.2c0.35,0.43,0.27,1.07-0.16,1.41
					C124.24,264.43,124.02,264.5,123.8,264.5z M119.87,255.39c-0.49,0-0.92-0.36-0.99-0.86c-0.14-0.95-0.21-1.92-0.21-2.88v-1.27
					c0-0.56,0.45-1,1-1c0.56,0,1,0.45,1,1v1.27c0,0.87,0.06,1.74,0.19,2.59c0.08,0.55-0.3,1.06-0.85,1.14
					C119.96,255.38,119.92,255.39,119.87,255.39z M119.67,245.36c-0.55,0-1-0.45-1-1v-4.02c0-0.56,0.45-1,1-1c0.56,0,1,0.45,1,1
					v4.02C120.68,244.91,120.23,245.36,119.67,245.36z M119.67,235.31c-0.55,0-1-0.45-1-1v-4.02c0-0.56,0.45-1,1-1
					c0.56,0,1,0.45,1,1v4.02C120.68,234.86,120.23,235.31,119.67,235.31z M119.67,225.27c-0.55,0-1-0.45-1-1v-4.02
					c0-0.56,0.45-1,1-1c0.56,0,1,0.45,1,1v4.02C120.68,224.82,120.23,225.27,119.67,225.27z M119.67,215.23c-0.55,0-1-0.45-1-1
					v-4.02c0-0.56,0.45-1,1-1c0.56,0,1,0.45,1,1v4.02C120.68,214.78,120.23,215.23,119.67,215.23z M119.67,205.19
					c-0.55,0-1-0.45-1-1v-4.02c0-0.56,0.45-1,1-1c0.56,0,1,0.45,1,1v4.02C120.68,204.74,120.23,205.19,119.67,205.19z
					 M119.67,195.15c-0.55,0-1-0.45-1-1v-4.02c0-0.56,0.45-1,1-1c0.56,0,1,0.45,1,1v4.02C120.68,194.7,120.23,195.15,119.67,195.15z
					 M119.67,185.1c-0.55,0-1-0.45-1-1v-4.02c0-0.56,0.45-1,1-1c0.56,0,1,0.45,1,1v4.02C120.68,184.65,120.23,185.1,119.67,185.1z
					 M119.67,175.06c-0.55,0-1-0.45-1-1v-4.02c0-0.56,0.45-1,1-1c0.56,0,1,0.45,1,1v4.02C120.68,174.61,120.23,175.06,119.67,175.06
					z"/>
			</g>
			<polygon class="st7" points="131.32,134.64 175.55,160.58 182.99,156.07 138.67,130.27 			"/>
			<polygon class="st11" points="131.32,134.64 175.55,160.58 182.99,156.07 175.18,158.19 			"/>
		</g>
		<g>
			<g>
				<path class="st5" d="M145.33,166.81l-5.53-3.19l2.72-1.59c1.03-0.33,1.79-0.76,2.28-1.3c0.49-0.53,0.73-1.3,0.73-2.3
					c0-0.91-0.18-1.83-0.55-2.76c-0.36-0.93-0.91-1.81-1.64-2.64c-0.73-0.83-1.62-1.55-2.66-2.15c-1-0.58-1.88-0.85-2.62-0.8
					c-0.74,0.04-1.31,0.33-1.71,0.87c-0.4,0.54-0.61,1.25-0.64,2.11c0,0.13,0.04,0.27,0.12,0.4c0.08,0.14,0.18,0.24,0.29,0.3
					l1.76,1.02c0.13,0.07,0.25,0.1,0.36,0.09c0.11-0.02,0.19-0.11,0.23-0.26c0.09-0.65,0.32-1.09,0.69-1.32
					c0.37-0.23,0.88-0.15,1.53,0.22c0.66,0.38,1.16,0.87,1.49,1.46c0.33,0.59,0.49,1.24,0.49,1.94c0,0.43-0.12,0.8-0.37,1.11
					c-0.25,0.31-0.62,0.58-1.12,0.82c-0.5,0.24-1.21,0.51-2.14,0.82l-3.05,1.72c-0.33,0.09-0.49,0.35-0.49,0.77v1.17
					c0,0.15,0.05,0.3,0.14,0.46c0.09,0.16,0.2,0.27,0.33,0.35l9.36,5.41c0.14,0.08,0.26,0.1,0.35,0.06
					c0.09-0.04,0.14-0.15,0.14-0.31v-1.62c0-0.16-0.05-0.33-0.14-0.48C145.6,167.01,145.48,166.89,145.33,166.81z M154.83,174.85
					c0.08-0.06,0.13-0.16,0.13-0.31v-2.87l1.76,1.02c0.14,0.08,0.26,0.1,0.34,0.04c0.08-0.05,0.13-0.16,0.13-0.31v-1.59
					c0-0.16-0.04-0.32-0.13-0.47c-0.09-0.15-0.2-0.26-0.34-0.34l-1.76-1.02v-9.08c0-0.16-0.04-0.32-0.13-0.47
					c-0.08-0.15-0.2-0.26-0.34-0.34l-2.15-1.24c-0.16-0.09-0.3-0.14-0.43-0.15c-0.13-0.01-0.23,0.03-0.29,0.11l-5.77,5.82
					c-0.14,0.13-0.22,0.31-0.22,0.55v1.55c0,0.15,0.04,0.3,0.14,0.46c0.09,0.16,0.2,0.27,0.33,0.35l6.2,3.58v2.87
					c0,0.15,0.04,0.3,0.14,0.46c0.09,0.16,0.2,0.27,0.33,0.35l1.72,0.99C154.63,174.89,154.75,174.91,154.83,174.85z M152.36,167.59
					l-3.97-2.29l3.97-4.15V167.59z M162.27,171.53c0-0.14-0.04-0.27-0.12-0.4c-0.08-0.14-0.18-0.24-0.29-0.31l-1.27-0.73
					c-0.16-0.09-0.29-0.12-0.39-0.08c-0.1,0.04-0.18,0.1-0.24,0.19l-6.64,14.49c-0.03,0.06-0.04,0.13-0.04,0.22
					c0,0.13,0.04,0.27,0.12,0.4c0.08,0.14,0.17,0.23,0.27,0.29l1.27,0.73c0.17,0.1,0.3,0.13,0.4,0.09c0.1-0.04,0.17-0.11,0.21-0.21
					l6.68-14.47C162.26,171.69,162.27,171.62,162.27,171.53z M171.18,182.01c-0.09-0.16-0.21-0.28-0.35-0.36l-8.6-4.97
					c-0.14-0.08-0.26-0.09-0.34-0.04c-0.08,0.06-0.13,0.17-0.13,0.33v1.59c0,0.15,0.05,0.3,0.14,0.46c0.09,0.16,0.2,0.27,0.33,0.35
					l6.12,3.53l-4.69,9.61c-0.03,0.07-0.04,0.13-0.04,0.18c0,0.13,0.04,0.27,0.12,0.42c0.08,0.14,0.18,0.25,0.29,0.32l1.82,1.05
					c0.16,0.09,0.28,0.11,0.37,0.07c0.09-0.04,0.18-0.13,0.25-0.25l4.65-9.54c0.13-0.25,0.2-0.54,0.2-0.85v-1.41
					C171.31,182.32,171.27,182.16,171.18,182.01z"/>
			</g>
		</g>
		<g>
			<polygon class="st5" points="139.96,231.53 152.29,238.64 152.29,236.13 139.96,229.01 			"/>
			<path class="st5" d="M167.6,233.45L139.11,217c-1.82-1.05-3.29-0.21-3.29,1.87v17.62c0,2.08,1.47,4.62,3.29,5.67l28.49,16.45
				c1.82,1.05,3.29,0.21,3.29-1.87v-17.62C170.88,237.03,169.41,234.49,167.6,233.45z M167.6,256.6l-28.49-16.45
				c-0.85-0.49-1.53-1.68-1.53-2.65v-13.64l31.55,18.22v13.64C169.13,256.69,168.44,257.09,167.6,256.6z"/>
		</g>
	</g>
	<g class="st12">
		<path class="st13" d="M317.24,107.14L340,118.78c10.9,6.3,19.74,23.19,19.74,37.72v75.62c0,14.54-8.84,21.22-19.74,14.93
			l-53.56-32.13L317.24,107.14z"/>
		<path class="st14" d="M316.82,107.77l22.11,11.34c10.77,6.22,19.51,22.91,19.51,37.27v74.72c0,14.37-8.73,20.97-19.51,14.75
			l-52.2-31.33L316.82,107.77z"/>
		<path class="st15" d="M316.41,108.41l21.45,11.03c10.64,6.14,19.27,22.63,19.27,36.82v73.82c0,14.19-8.63,20.71-19.27,14.57
			l-50.85-30.52L316.41,108.41z"/>
		<path class="st16" d="M315.99,109.05l20.8,10.72c10.51,6.07,19.04,22.35,19.04,36.37v72.91c0,14.02-8.52,20.46-19.04,14.39
			l-49.49-29.72L315.99,109.05z"/>
		<path class="st17" d="M315.58,109.69l20.14,10.41c10.38,5.99,18.8,22.08,18.8,35.92v72.01c0,13.84-8.42,20.21-18.8,14.21
			l-48.14-28.91L315.58,109.69z"/>
		<path class="st18" d="M315.17,110.32l19.49,10.1c10.25,5.92,18.56,21.8,18.56,35.47V227c0,13.67-8.31,19.95-18.56,14.03
			l-46.78-28.1L315.17,110.32z"/>
		<path class="st19" d="M314.75,110.96l18.84,9.8c10.12,5.84,18.33,21.52,18.33,35.02v70.2c0,13.5-8.21,19.7-18.33,13.86
			l-45.42-27.3L314.75,110.96z"/>
		<path class="st20" d="M314.34,111.6l18.18,9.49c9.99,5.77,18.09,21.24,18.09,34.57v69.29c0,13.32-8.1,19.45-18.09,13.68
			l-44.07-26.49L314.34,111.6z"/>
		<path class="st21" d="M313.92,112.24l17.53,9.18c9.86,5.69,17.86,20.97,17.86,34.12v68.39c0,13.15-7.99,19.19-17.86,13.5
			l-42.71-25.69L313.92,112.24z"/>
		<path class="st22" d="M313.51,112.87l16.87,8.87c9.73,5.62,17.62,20.69,17.62,33.66v67.49c0,12.97-7.89,18.94-17.62,13.32
			l-41.36-24.88L313.51,112.87z"/>
		<path class="st23" d="M313.09,113.51l16.22,8.56c9.6,5.54,17.38,20.41,17.38,33.21v66.58c0,12.8-7.78,18.68-17.38,13.14l-40-24.08
			L313.09,113.51z"/>
		<path class="st24" d="M312.68,114.15l15.57,8.26c9.47,5.47,17.15,20.14,17.15,32.76v65.68c0,12.63-7.68,18.43-17.15,12.96
			l-38.65-23.27L312.68,114.15z"/>
		<path class="st25" d="M312.26,114.79l14.91,7.95c9.34,5.39,16.91,19.86,16.91,32.31v64.77c0,12.45-7.57,18.18-16.91,12.78
			l-37.29-22.46L312.26,114.79z"/>
		<path class="st26" d="M311.85,115.42l14.26,7.64c9.21,5.32,16.67,19.58,16.67,31.86v63.87c0,12.28-7.47,17.92-16.67,12.61
			l-35.93-21.66L311.85,115.42z"/>
		<path class="st27" d="M311.44,116.06l13.6,7.33c9.08,5.24,16.44,19.3,16.44,31.41v62.96c0,12.1-7.36,17.67-16.44,12.43
			l-34.58-20.85L311.44,116.06z"/>
		<path class="st28" d="M311.02,116.7l12.95,7.02c8.95,5.17,16.2,19.03,16.2,30.96v62.06c0,11.93-7.25,17.42-16.2,12.25
			l-33.22-20.05L311.02,116.7z"/>
		<path class="st29" d="M310.61,117.34l12.29,6.72c8.82,5.09,15.97,18.75,15.97,30.51v61.15c0,11.76-7.15,17.16-15.97,12.07
			l-31.87-19.24L310.61,117.34z"/>
		<path class="st30" d="M310.19,117.97l11.64,6.41c8.69,5.02,15.73,18.47,15.73,30.06v60.25c0,11.58-7.04,16.91-15.73,11.89
			l-30.51-18.43L310.19,117.97z"/>
		<path class="st31" d="M309.78,118.61l10.99,6.1c8.56,4.94,15.49,18.19,15.49,29.6v59.35c0,11.41-6.94,16.65-15.49,11.71
			l-29.16-17.63L309.78,118.61z"/>
		<path class="st32" d="M309.36,119.25l10.33,5.79c8.43,4.87,15.26,17.92,15.26,29.15v58.44c0,11.24-6.83,16.4-15.26,11.53
			l-27.8-16.82L309.36,119.25z"/>
		<path class="st33" d="M308.95,119.89l9.68,5.48c8.3,4.79,15.02,17.64,15.02,28.7v57.54c0,11.06-6.73,16.15-15.02,11.36
			l-26.45-16.02L308.95,119.89z"/>
		<path class="st34" d="M308.53,120.53l9.02,5.18c8.17,4.71,14.79,17.36,14.79,28.25v56.63c0,10.89-6.62,15.89-14.79,11.18
			l-25.09-15.21L308.53,120.53z"/>
	</g>
	<g>
		<polygon class="st1" points="323.21,129.03 323.21,230.09 329.5,226.63 329.5,125.25 		"/>
		<polygon class="st4" points="323.26,129.03 323.26,230.09 131.13,118.05 131.13,16.67 		"/>
		<polygon class="st8" points="131.13,16.67 323.26,129.03 329.5,125.25 137.28,13 		"/>
	</g>
	<g>
		<polygon class="st5" points="310.21,155.62 288.61,143.43 288.61,148.34 310.21,160.53 		"/>
		<polygon class="st5" points="285.1,141.41 239.46,115.34 239.46,120.25 285.1,146.31 		"/>
		<polygon class="st35" points="235.96,113.32 185.75,84.14 185.75,89.04 235.96,118.22 		"/>
		<polygon class="st5" points="182.25,82.11 142.34,58.85 142.34,63.75 182.25,87.02 		"/>
		<polygon class="st36" points="251.3,101.7 142.34,38.18 142.34,47.03 251.3,110.55 		"/>
		<polygon class="st36" points="244.48,134.59 262.5,145.27 262.5,140.36 244.48,129.69 		"/>
		<polygon class="st5" points="194.7,105.71 240.97,132.57 240.97,127.66 194.7,100.8 		"/>
		<polygon class="st5" points="191.2,98.78 142.34,70.3 142.34,75.21 191.2,103.68 		"/>
		<polygon class="st5" points="303.18,175.2 254.77,147.55 254.77,152.45 303.18,180.11 		"/>
		<polygon class="st5" points="251.26,145.52 207.42,120.1 207.42,125.01 251.26,150.43 		"/>
		<polygon class="st5" points="203.91,118.08 199.57,115.54 199.57,120.45 203.91,122.98 		"/>
		<polygon class="st5" points="310.52,179.5 306.18,176.97 306.18,181.87 310.52,184.41 		"/>
		<polygon class="st5" points="196.06,113.52 142.34,82.32 142.34,87.23 196.06,118.42 		"/>
		<polygon class="st5" points="280.07,174.23 239.46,150.82 239.46,155.72 280.07,179.13 		"/>
		<polygon class="st36" points="235.96,148.79 190.98,122.67 190.98,127.58 235.96,153.7 		"/>
		<polygon class="st5" points="187.47,120.65 142.34,94.32 142.34,99.23 187.47,125.55 		"/>
		<polygon class="st5" points="244.48,170.07 259.21,178.52 259.21,173.61 244.48,165.16 		"/>
		<polygon class="st5" points="194.7,141.18 240.97,168.04 240.97,163.14 194.7,136.28 		"/>
		<polygon class="st35" points="191.2,134.25 142.34,105.78 142.34,110.68 191.2,139.16 		"/>
		<polygon class="st5" points="310.38,202.9 262.72,175.64 262.72,180.54 310.38,207.8 		"/>
		<polygon class="st35" points="310.38,191.62 283.58,176.25 283.58,181.16 310.38,196.52 		"/>
		<polygon class="st36" points="310.38,167.79 266.01,142.39 266.01,147.29 310.38,172.69 		"/>
	</g>
	<g class="st12">
		<path class="st13" d="M570.71,344.46c-52.44-23.2-44.98-18.42-45.14-74.18c0-7.4,4.5-10.8,10.05-7.6l50.76,26.92L570.71,344.46z"
			/>
		<path class="st14" d="M570.82,343.99c-51.57-22.91-44.39-18.06-44.5-73.04c0-7.27,4.42-10.62,9.88-7.47l49.89,26.46L570.82,343.99
			z"/>
		<path class="st15" d="M570.93,343.52c-50.7-22.62-43.8-17.7-43.87-71.9c0-7.15,4.35-10.44,9.71-7.34l49.02,25.99L570.93,343.52z"
			/>
		<path class="st16" d="M571.04,343.05c-49.82-22.33-43.21-17.35-43.24-70.76c0-7.03,4.27-10.26,9.54-7.21l48.15,25.53
			L571.04,343.05z"/>
		<path class="st17" d="M571.15,342.58c-48.95-22.04-42.62-16.99-42.61-69.61c0-6.9,4.2-10.08,9.38-7.09l47.27,25.07L571.15,342.58z
			"/>
		<path class="st18" d="M571.26,342.1c-48.08-21.75-42.03-16.63-41.98-68.47c0-6.78,4.12-9.9,9.21-6.96l46.4,24.6L571.26,342.1z"/>
		<path class="st19" d="M571.37,341.63c-47.21-21.46-41.44-16.27-41.35-67.33c0-6.66,4.05-9.72,9.04-6.83l45.53,24.14L571.37,341.63
			z"/>
		<path class="st20" d="M571.48,341.16c-46.33-21.17-40.85-15.91-40.72-66.19c0-6.53,3.97-9.54,8.87-6.71l44.66,23.67L571.48,341.16
			z"/>
		<path class="st21" d="M571.59,340.69c-45.46-20.88-40.26-15.55-40.09-65.04c0-6.41,3.9-9.36,8.7-6.58l43.79,23.21L571.59,340.69z"
			/>
		<path class="st22" d="M571.7,340.22c-44.59-20.59-39.56-15.19-39.46-63.9c0.01-6.29,3.82-9.18,8.54-6.45l42.91,22.74L571.7,340.22
			z"/>
		<path class="st23" d="M571.81,339.75c-43.72-20.3-38.95-14.83-38.83-62.76c0.02-6.16,3.75-8.99,8.37-6.33l42.04,22.28
			L571.81,339.75z"/>
		<path class="st24" d="M571.92,339.27c-42.85-20.01-38.34-14.47-38.2-61.62c0.02-6.04,3.67-8.81,8.2-6.2l41.17,21.82L571.92,339.27
			z"/>
		<path class="st25" d="M572.03,338.8c-41.97-19.72-37.73-14.11-37.56-60.47c0.02-5.91,3.6-8.63,8.03-6.07l40.3,21.35L572.03,338.8z
			"/>
		<path class="st26" d="M572.14,338.33c-41.1-19.43-37.12-13.75-36.93-59.33c0.02-5.79,3.52-8.45,7.86-5.95l39.43,20.89
			L572.14,338.33z"/>
		<path class="st27" d="M572.25,337.86c-40.23-19.14-36.51-13.39-36.3-58.19c0.03-5.67,3.45-8.27,7.7-5.82l38.56,20.42
			L572.25,337.86z"/>
		<path class="st28" d="M572.36,337.39c-39.36-18.85-35.9-13.03-35.67-57.05c0.03-5.54,3.37-8.09,7.53-5.69l37.68,19.96
			L572.36,337.39z"/>
		<path class="st29" d="M572.47,336.92c-38.48-18.56-35.29-12.67-35.04-55.9c0.03-5.42,3.29-7.91,7.36-5.56l36.81,19.49
			L572.47,336.92z"/>
		<path class="st30" d="M572.58,336.44c-37.61-18.27-34.68-12.31-34.41-54.76c0.03-5.3,3.22-7.73,7.19-5.44l35.94,19.03
			L572.58,336.44z"/>
		<path class="st31" d="M572.69,335.97c-36.74-17.98-34.06-11.95-33.78-53.62c0.04-5.17,3.14-7.55,7.03-5.31l35.07,18.57
			L572.69,335.97z"/>
		<path class="st32" d="M572.8,335.5c-35.87-17.69-33.45-11.59-33.15-52.48c0.04-5.05,3.07-7.37,6.86-5.18l34.2,18.1L572.8,335.5z"
			/>
		<path class="st33" d="M572.91,335.03c-34.99-17.4-32.84-11.23-32.52-51.34c0.04-4.93,2.99-7.19,6.69-5.06l33.32,17.64
			L572.91,335.03z"/>
		<path class="st34" d="M573.02,334.56c-34.12-17.11-32.59-10.88-31.89-50.19c0-4.8,2.92-7.01,6.52-4.93l32.45,17.17L573.02,334.56z
			"/>
	</g>
	<g class="st12">
		<path class="st13" d="M551.96,394.67l-78.04-39.66c-18.09-9.17-10.03-51.02-11.67-67.01c0-8.59,10.96-12.87,17.41-9.15l91.05,54.9
			L551.96,394.67z"/>
		<path class="st14" d="M551.96,394.29l-77.4-39.47c-17.88-9.05-10.72-50.36-11.53-66.21c-0.43-8.48,10.63-12.71,17-9.03
			l90.24,54.27L551.96,394.29z"/>
		<path class="st15" d="M551.96,393.92l-76.77-39.29c-17.67-8.94-10.59-49.75-11.39-65.41c-0.43-8.38,10.29-12.54,16.58-8.91
			l89.44,53.64L551.96,393.92z"/>
		<path class="st16" d="M551.95,393.54l-76.13-39.11c-17.46-8.83-10.46-49.14-11.25-64.6c-0.43-8.28,9.96-12.38,16.17-8.79
			l88.64,53.02L551.95,393.54z"/>
		<path class="st17" d="M551.95,393.16l-75.5-38.93c-17.25-8.71-10.33-48.54-11.11-63.8c-0.42-8.17,9.62-12.21,15.76-8.67
			l87.84,52.39L551.95,393.16z"/>
		<path class="st18" d="M551.94,392.78l-74.86-38.74c-17.04-8.6-10.19-47.93-10.97-63c-0.42-8.07,9.28-12.05,15.34-8.55l87.03,51.77
			L551.94,392.78z"/>
		<path class="st19" d="M551.94,392.41l-74.23-38.56c-16.82-8.48-10.06-47.33-10.84-62.2c-0.41-7.97,8.95-11.88,14.93-8.43
			l86.23,51.14L551.94,392.41z"/>
		<path class="st20" d="M551.94,392.03l-73.59-38.38c-16.61-8.37-9.93-46.72-10.7-61.4c-0.41-7.86,8.61-11.71,14.52-8.3l85.43,50.51
			L551.94,392.03z"/>
		<path class="st21" d="M551.93,391.65l-72.96-38.2c-16.4-8.26-9.8-46.11-10.56-60.6c-0.41-7.76,8.28-11.55,14.11-8.18l84.63,49.89
			L551.93,391.65z"/>
		<path class="st22" d="M551.93,391.27l-72.32-38.01c-16.19-8.14-9.67-45.51-10.42-59.8c-0.4-7.66,7.94-11.38,13.69-8.06
			l83.82,49.26L551.93,391.27z"/>
		<path class="st23" d="M551.93,390.9l-71.68-37.83c-15.98-8.03-9.54-44.9-10.28-58.99c-0.4-7.56,7.61-11.22,13.28-7.94l83.02,48.64
			L551.93,390.9z"/>
		<path class="st24" d="M551.92,390.52l-71.05-37.65c-15.77-7.91-9.41-44.3-10.14-58.19c-0.39-7.45,7.27-11.05,12.87-7.82
			l82.22,48.01L551.92,390.52z"/>
		<path class="st25" d="M551.92,390.14l-70.41-37.46c-15.56-7.8-9.27-43.69-10-57.39c-0.39-7.35,6.93-10.89,12.46-7.7l81.42,47.39
			L551.92,390.14z"/>
		<path class="st26" d="M551.92,389.76l-69.78-37.28c-15.35-7.69-9.14-43.08-9.86-56.59c-0.38-7.25,6.6-10.72,12.04-7.58
			l80.61,46.76L551.92,389.76z"/>
		<path class="st27" d="M551.91,389.39l-69.14-37.1c-15.14-7.57-9.01-42.48-9.72-55.79c-0.38-7.15,6.26-10.55,11.63-7.46
			l79.81,46.13L551.91,389.39z"/>
		<path class="st28" d="M551.91,389.01l-68.51-36.92c-14.92-7.46-8.88-41.87-9.58-54.99c-0.38-7.04,5.93-10.39,11.22-7.33
			l79.01,45.51L551.91,389.01z"/>
		<path class="st29" d="M551.91,388.63l-67.87-36.73c-14.71-7.34-8.75-41.26-9.44-54.19c-0.37-6.94,5.59-10.22,10.8-7.21
			l78.21,44.88L551.91,388.63z"/>
		<path class="st30" d="M551.9,388.25l-67.24-36.55c-14.5-7.23-8.62-40.66-9.3-53.39c-0.37-6.84,5.26-10.06,10.39-7.09l77.4,44.26
			L551.9,388.25z"/>
		<path class="st31" d="M551.9,387.88l-66.6-36.37c-14.29-7.12-8.48-40.05-9.16-52.58c-0.36-6.73,4.92-9.89,9.98-6.97l76.6,43.63
			L551.9,387.88z"/>
		<path class="st32" d="M551.89,387.5l-65.97-36.19c-14.08-7-8.35-39.45-9.02-51.78c-0.36-6.63,4.59-9.73,9.57-6.85l75.8,43
			L551.89,387.5z"/>
		<path class="st33" d="M551.89,387.12l-65.33-36c-13.87-6.89-8.22-38.84-8.88-50.98c-0.35-6.53,4.25-9.56,9.15-6.73l75,42.38
			L551.89,387.12z"/>
		<path class="st34" d="M551.89,386.74l-64.7-35.82c-13.66-6.77-7.44-38.29-8.74-50.18c0-6.44,3.91-9.39,8.74-6.61l74.19,41.75
			L551.89,386.74z"/>
	</g>
	<g>
		<g>
			<polygon class="st1" points="567.97,346.5 567.97,403.04 574.91,399.22 574.91,342.32 			"/>
			<polygon class="st4" points="568.02,346.5 568.02,403.04 472.19,346.91 472.19,290.02 			"/>
			<polygon class="st8" points="472.19,290.02 568.02,346.5 574.91,342.32 478.99,285.96 			"/>
			<polygon class="st37" points="472.19,290.02 568.02,346.5 574.91,342.32 567.67,344.28 			"/>
		</g>
		<g>
			<polygon class="st38" points="640.6,337.41 640.6,406.35 647.62,402.3 647.62,332.78 			"/>
			<polygon class="st39" points="537.73,277.02 640.69,337.41 647.62,332.78 544.52,272.6 			"/>
			<polygon class="st11" points="537.73,277.02 640.69,337.41 647.62,332.78 640.99,335.81 			"/>
		</g>
		<polygon class="st40" points="537.73,277.02 537.73,323.15 572.84,343.74 572.84,366.82 640.69,406.35 640.69,337.41 		"/>
	</g>
	<polygon class="st5" points="581.55,335.55 581.55,339.94 632.29,368.9 632.29,364.51 	"/>
	<polygon class="st5" points="610.83,370.39 581.55,353.79 581.55,358.18 610.83,374.78 	"/>
	<polygon class="st5" points="581.55,349.06 632.29,378.02 632.29,373.63 581.55,344.67 	"/>
	<polygon class="st5" points="515.77,327.58 515.77,331.97 560.02,357.5 560.02,353.11 	"/>
	<polygon class="st5" points="515.77,341.09 560.02,366.62 560.02,362.23 515.77,336.7 	"/>
	<polygon class="st5" points="538.56,368.03 515.77,354.86 515.77,359.25 538.56,372.42 	"/>
	<polygon class="st5" points="515.77,350.13 560.02,375.66 560.02,371.27 515.77,345.74 	"/>
	<polygon class="st5" points="581.55,317.48 581.55,321.87 632.29,350.83 632.29,346.44 	"/>
	<polygon class="st5" points="581.55,331 632.29,359.96 632.29,355.57 581.55,326.61 	"/>
	<path class="st5" d="M569.65,324.73c-1.8-1.85-6.84-6.16-4.73-8.84c0.98-0.57,1.85-1.48,2.42-2.69c2.73,0.72,1.9-3.33,0.66-4.27
		c1.97-7.24-14.38-23.44-15.22-8.79c-2.37,0.13-0.69,4.18,0.66,5.04c8.8,17.73-5.79,2.38-6.49,12.54c0.01,1.75-0.34,4.54,1.57,5.52
		c0,0,23.74,13.71,23.74,13.71c2.24,1.22,1.42-2.68,1.57-3.71C573.82,330.27,572.04,326.77,569.65,324.73z"/>
	<path class="st5" d="M498.25,324.15c-0.35-1.57-1.66-3.38-3.3-4.52v-4.24c3.46,0.48,1.41-5.03-0.57-5.83
		c-3.63-1.63-2.54,3.96-0.57,5.17v4.24c-1.64-0.74-2.95-0.45-3.3,0.72c-5.7-1.37-9.86,2.26-9.86,9.42c0,8.7,6.15,12.91,13.73,17.28
		c7.58,4.38,13.73,7.27,13.73-1.43C508.11,337.8,503.95,329.36,498.25,324.15z M500.55,342.37l-12.34-7.12c-2.71-1-4.72-8.58,0-6.61
		c0,0,12.34,7.12,12.34,7.12C503.26,336.76,505.27,344.34,500.55,342.37z M489.09,330.92c-2.38-1-1.36,2.83,0,3.33
		C491.47,335.25,490.46,331.42,489.09,330.92z M499.67,337.03c-2.38-1-1.37,2.83,0,3.33C502.05,341.36,501.04,337.53,499.67,337.03z
		"/>
	<g>
		<path class="st1" d="M526.59,176.86c0-15.32-10.82-33.98-24.17-41.68c-6.44-3.72-12.28-4.2-16.61-2l-0.01-0.02l-6.07,3.33
			l1.74,2.99c-0.81,2.3-1.25,5.02-1.25,8.1c0,15.32,10.82,33.98,24.17,41.68c2.74,1.58,5.37,2.58,7.83,3.03l1.77,3.05l4.83-2.59
			C523.6,190.44,526.59,184.92,526.59,176.86z"/>
		
			<ellipse transform="matrix(0.8633 -0.5047 0.5047 0.8633 -15.646 273.6169)" class="st5" cx="497.27" cy="165.69" rx="19.67" ry="34.07"/>
		<g>
			<path class="st7" d="M469.45,180.57c-0.35,0-0.7-0.19-0.88-0.52c-0.65-1.19-1.27-2.4-1.85-3.63c-0.24-0.5-0.03-1.1,0.47-1.34
				c0.5-0.24,1.1-0.03,1.34,0.48c0.57,1.19,1.17,2.37,1.8,3.53c0.27,0.49,0.09,1.1-0.4,1.36
				C469.78,180.53,469.61,180.57,469.45,180.57z M465.29,171.44c-0.41,0-0.79-0.25-0.94-0.66c-0.47-1.28-0.91-2.58-1.29-3.87
				c-0.16-0.53,0.15-1.09,0.68-1.25c0.53-0.16,1.09,0.15,1.25,0.67c0.37,1.26,0.79,2.51,1.25,3.75c0.19,0.52-0.07,1.1-0.59,1.29
				C465.52,171.42,465.41,171.44,465.29,171.44z M462.59,161.77c-0.47,0-0.89-0.34-0.98-0.82c-0.26-1.36-0.46-2.73-0.6-4.05
				c-0.06-0.55,0.34-1.05,0.89-1.1c0.54-0.06,1.05,0.34,1.1,0.89c0.14,1.27,0.33,2.58,0.57,3.9c0.1,0.54-0.26,1.07-0.8,1.17
				C462.72,161.77,462.66,161.77,462.59,161.77z"/>
		</g>
		
			<ellipse transform="matrix(0.8633 -0.5047 0.5047 0.8633 -15.867 273.3852)" class="st8" cx="496.74" cy="165.98" rx="19.67" ry="34.07"/>
	</g>
	<g>
		<path class="st1" d="M526.59,108.64c0-15.32-10.82-33.98-24.17-41.68c-6.44-3.72-12.28-4.2-16.61-2l-0.01-0.02l-6.07,3.33
			l1.74,2.99c-0.81,2.3-1.25,5.02-1.25,8.1c0,15.32,10.82,33.98,24.17,41.68c2.74,1.58,5.37,2.58,7.83,3.03l1.77,3.05l4.83-2.59
			C523.6,122.21,526.59,116.69,526.59,108.64z"/>
		
			<ellipse transform="matrix(0.8633 -0.5047 0.5047 0.8633 18.7888 264.2917)" class="st5" cx="497.27" cy="97.46" rx="19.67" ry="34.07"/>
		<g>
			<path class="st7" d="M471.6,116c-0.33,0-0.66-0.17-0.85-0.47c-0.72-1.15-1.41-2.32-2.07-3.51c-0.27-0.49-0.09-1.1,0.39-1.37
				c0.48-0.26,1.09-0.09,1.36,0.39c0.64,1.16,1.31,2.3,2.01,3.41c0.29,0.47,0.15,1.09-0.32,1.38C471.97,115.95,471.78,116,471.6,116
				z M466.89,107.14c-0.38,0-0.75-0.22-0.92-0.6c-0.55-1.25-1.07-2.51-1.54-3.78c-0.19-0.52,0.07-1.1,0.59-1.29
				c0.52-0.19,1.1,0.07,1.29,0.59c0.46,1.23,0.95,2.45,1.49,3.66c0.23,0.51,0,1.1-0.51,1.32
				C467.16,107.11,467.02,107.14,466.89,107.14z M463.54,97.68c-0.45,0-0.85-0.3-0.97-0.75c-0.35-1.34-0.66-2.68-0.91-3.99
				c-0.1-0.54,0.25-1.07,0.8-1.17c0.53-0.1,1.07,0.25,1.17,0.8c0.24,1.26,0.54,2.55,0.88,3.85c0.14,0.54-0.18,1.09-0.71,1.23
				C463.71,97.67,463.62,97.68,463.54,97.68z M461.86,87.8c-0.52,0-0.96-0.41-1-0.94c-0.07-1.03-0.11-2.05-0.11-3.06
				c0-0.35,0-0.7,0.01-1.05c0.02-0.55,0.51-0.96,1.03-0.97c0.55,0.02,0.99,0.48,0.97,1.03c-0.01,0.33-0.01,0.66-0.01,0.99
				c0,0.97,0.04,1.94,0.1,2.92c0.04,0.55-0.38,1.03-0.93,1.07C461.9,87.79,461.88,87.8,461.86,87.8z M462.4,77.8
				c-0.06,0-0.13-0.01-0.19-0.02c-0.54-0.1-0.9-0.63-0.8-1.18c0.26-1.37,0.61-2.72,1.03-4.01c0.17-0.53,0.74-0.81,1.27-0.65
				c0.53,0.17,0.82,0.74,0.65,1.27c-0.39,1.21-0.72,2.47-0.97,3.77C463.29,77.46,462.87,77.8,462.4,77.8z M465.84,68.42
				c-0.17,0-0.35-0.04-0.51-0.14c-0.48-0.28-0.64-0.89-0.36-1.37c0.71-1.22,1.51-2.37,2.38-3.43c0.35-0.43,0.99-0.49,1.41-0.14
				c0.43,0.35,0.49,0.99,0.14,1.41c-0.8,0.97-1.54,2.04-2.2,3.16C466.52,68.24,466.18,68.42,465.84,68.42z M472.51,61.02
				c-0.31,0-0.62-0.15-0.82-0.42c-0.32-0.45-0.22-1.08,0.24-1.4c1.14-0.81,2.36-1.52,3.62-2.1c0.5-0.23,1.1-0.02,1.33,0.49
				c0.23,0.5,0.02,1.1-0.49,1.33c-1.16,0.54-2.27,1.18-3.31,1.92C472.92,60.96,472.71,61.02,472.51,61.02z M481.71,57.24
				c-0.48,0-0.9-0.35-0.99-0.84c-0.09-0.55,0.28-1.07,0.82-1.16c1.35-0.23,2.74-0.35,4.16-0.36c0,0,0.01,0,0.01,0c0.55,0,1,0.45,1,1
				c0,0.55-0.44,1.01-1,1.01c-1.31,0.01-2.59,0.12-3.83,0.33C481.82,57.23,481.77,57.24,481.71,57.24z"/>
		</g>
		
			<ellipse transform="matrix(0.8633 -0.5047 0.5047 0.8633 18.5672 264.0585)" class="st8" cx="496.74" cy="97.75" rx="19.67" ry="34.07"/>
	</g>
	<g>
		<path class="st1" d="M526.59,245.07c0-15.32-10.82-33.98-24.17-41.68c-6.44-3.72-12.28-4.2-16.61-2l-0.01-0.02l-6.07,3.33
			l1.74,2.99c-0.81,2.3-1.25,5.02-1.25,8.1c0,15.32,10.82,33.98,24.17,41.68c2.74,1.58,5.37,2.58,7.83,3.03l1.77,3.05l4.83-2.59
			C523.6,258.64,526.59,253.12,526.59,245.07z"/>
		<path class="st5" d="M521.44,247.85c0,15.32-10.82,21.48-24.17,13.78c-13.35-7.71-24.17-26.37-24.17-41.68
			c0-15.32,10.82-21.48,24.17-13.78C510.62,213.87,521.44,232.53,521.44,247.85z"/>
		<g>
			<path class="st7" d="M507.58,277.05c-1.37,0-2.76-0.1-4.15-0.31c-0.55-0.08-0.93-0.59-0.85-1.14c0.08-0.55,0.61-0.93,1.14-0.85
				c1.29,0.19,2.59,0.29,3.86,0.29c0.55,0,1,0.45,1,1C508.59,276.6,508.14,277.05,507.58,277.05z M497.75,275.28
				c-0.11,0-0.23-0.02-0.34-0.06c-1.26-0.45-2.54-0.98-3.8-1.59c-0.5-0.24-0.71-0.84-0.47-1.34c0.24-0.5,0.84-0.71,1.34-0.47
				c1.2,0.58,2.41,1.09,3.6,1.51c0.52,0.18,0.8,0.76,0.61,1.28C498.55,275.02,498.16,275.28,497.75,275.28z M488.83,270.73
				c-0.19,0-0.39-0.06-0.56-0.17c-1.1-0.74-2.21-1.55-3.3-2.42c-0.44-0.35-0.51-0.98-0.16-1.41c0.35-0.44,0.98-0.51,1.41-0.16
				c1.05,0.83,2.12,1.61,3.18,2.32c0.46,0.31,0.58,0.93,0.28,1.39C489.47,270.57,489.15,270.73,488.83,270.73z M481.09,264.35
				c-0.26,0-0.51-0.1-0.71-0.29c-0.96-0.95-1.9-1.94-2.81-2.96c-0.37-0.41-0.33-1.05,0.08-1.42c0.41-0.37,1.05-0.33,1.42,0.08
				c0.88,0.99,1.79,1.95,2.72,2.87c0.39,0.39,0.4,1.03,0.01,1.42C481.6,264.26,481.34,264.35,481.09,264.35z M474.54,256.75
				c-0.31,0-0.61-0.14-0.81-0.41c-0.8-1.09-1.58-2.21-2.32-3.35c-0.3-0.46-0.17-1.09,0.29-1.39c0.47-0.3,1.09-0.17,1.39,0.29
				c0.72,1.11,1.47,2.19,2.26,3.25c0.33,0.45,0.23,1.08-0.21,1.4C474.95,256.69,474.74,256.75,474.54,256.75z M469.18,248.27
				c-0.36,0-0.7-0.19-0.88-0.53c-0.64-1.2-1.25-2.42-1.82-3.65c-0.23-0.5-0.01-1.1,0.49-1.33c0.5-0.24,1.1-0.01,1.33,0.49
				c0.55,1.2,1.14,2.38,1.77,3.54c0.26,0.49,0.08,1.1-0.41,1.36C469.5,248.23,469.34,248.27,469.18,248.27z M465.09,239.1
				c-0.41,0-0.8-0.25-0.95-0.66c-0.46-1.29-0.88-2.59-1.26-3.88c-0.15-0.53,0.15-1.09,0.69-1.24c0.53-0.15,1.09,0.16,1.24,0.69
				c0.36,1.26,0.77,2.51,1.22,3.76c0.19,0.52-0.08,1.1-0.61,1.28C465.32,239.08,465.21,239.1,465.09,239.1z M462.49,229.41
				c-0.48,0-0.9-0.34-0.99-0.83c-0.24-1.35-0.43-2.72-0.55-4.06c-0.05-0.55,0.35-1.04,0.9-1.09c0.55-0.06,1.04,0.35,1.1,0.9
				c0.12,1.29,0.3,2.6,0.53,3.9c0.1,0.55-0.27,1.07-0.81,1.16C462.61,229.4,462.55,229.41,462.49,229.41z"/>
		</g>
		
			<ellipse transform="matrix(0.8633 -0.5047 0.5047 0.8633 -50.2878 282.71)" class="st8" cx="496.74" cy="234.19" rx="19.67" ry="34.07"/>
	</g>
	<path class="st5" d="M509.07,91.77L485.56,78.2c-1.44-0.83-2.61,0.05-2.61,1.97v18.5c0,1.92,1.17,4.16,2.61,4.99l23.51,13.57
		c1.44,0.83,2.61-0.05,2.61-1.97v-18.5C511.68,94.84,510.51,92.6,509.07,91.77z M510.44,116.5l-9.27-15.67l-3.86,2.73
		c0,0-1.68-3.14-3.85-7.19l-9.28,4.97c-0.01-0.02,7.59-6.07,8.36-6.68c-3.83-7.15-8.57-16-8.57-16l13.33,22.03
		c0,0,13.35-6.6,13.37-6.58l-8.59,6.07C502.94,101.85,510.46,116.5,510.44,116.5z"/>
	<path class="st5" d="M504.24,163.22c2,6.12-0.76,9.57-2.47,10.54c-1.71,0.97-6.1,1.6-10.43-3.19l-6.63,3.78
		c5.01,7.78,12.95,8.39,19.95,4.4c7-3.99,10.47-11.1,6.2-19.31L504.24,163.22z"/>
	<path class="st5" d="M482.99,167.53l3.31-1.89c0.93-0.53,2.43,0.34,3.35,1.94l1.28,2.2l-6.66,3.8l-1.28-2.2
		C482.06,169.78,482.06,168.06,482.99,167.53z"/>
	<path class="st5" d="M502.48,156.41l3.31-1.89c0.93-0.53,2.43,0.34,3.35,1.94l1.28,2.2l-6.66,3.8l-1.28-2.2
		C501.56,158.66,501.56,156.94,502.48,156.41z"/>
	<path class="st5" d="M497.24,216.93c-7.29-4.21-13.2-0.84-13.2,7.53c0,7.99,5.4,17.64,12.24,22.16v7.45l5.72-5.12
		c4.94,0.66,8.45-2.8,8.45-9.24C510.44,231.34,504.53,221.14,497.24,216.93z M492.02,230.64c-0.8,0.46-2.1-0.29-2.9-1.68
		c-0.8-1.38-0.8-2.87,0-3.33c0.8-0.46,2.1,0.29,2.9,1.68C492.82,228.69,492.82,230.18,492.02,230.64z M498.69,234.49
		c-0.8,0.46-2.1-0.29-2.9-1.68c-0.8-1.38-0.8-2.87,0-3.33c0.8-0.46,2.1,0.29,2.9,1.68C499.49,232.54,499.49,234.03,498.69,234.49z
		 M505.36,238.34c-0.8,0.46-2.1-0.29-2.9-1.68c-0.8-1.38-0.8-2.87,0-3.33c0.8-0.46,2.1,0.29,2.9,1.68
		C506.17,236.39,506.17,237.88,505.36,238.34z"/>
	<polygon class="st38" points="251.71,69.74 285.35,143.01 344.67,80.75 317.22,55.76 285.35,109.49 270.3,73.37 	"/>
	<polygon class="st40" points="246.69,73.42 280.33,146.69 339.65,84.42 312.21,59.43 280.33,113.16 265.28,77.04 	"/>
	<polygon class="st38" points="344.67,80.75 339.65,84.42 280.33,146.69 285.35,143.01 	"/>
	<polygon class="st39" points="251.71,69.74 246.69,73.42 265.28,77.04 270.3,73.37 	"/>
	<polygon class="st39" points="339.65,84.42 312.21,59.43 317.22,55.76 344.67,80.75 	"/>
	<polygon class="st5" points="265.33,76.23 246.69,73.42 265.28,77.04 270.3,73.37 	"/>
	<polygon class="st5" points="339.65,84.42 312.21,59.43 339.72,83.42 344.67,80.75 	"/>
	<g>
		<g>
			<polygon class="st41" points="337.18,278.83 327.85,280.89 331.14,270.3 322.08,257.19 333.45,263.49 337.18,253.32 
				340.92,267.8 352.29,274.63 343.23,277.28 346.52,291.67 			"/>
			<g>
				<polygon class="st42" points="343.23,277.28 346.52,291.67 346.52,291.67 346.52,291.67 348.61,290.31 345.48,276.62 				"/>
				<polygon class="st42" points="333.45,263.49 334.22,261.39 324.17,255.82 322.38,257.28 325.09,258.86 				"/>
				<polygon class="st42" points="343.01,266.43 339.27,251.95 337.18,253.32 337.18,253.32 340.92,267.8 352.28,274.63 
					352.29,274.63 354.38,273.27 				"/>
			</g>
			<g>
				<polygon class="st5" points="343.23,277.28 346.52,291.67 346.52,291.67 346.52,291.67 343.91,277.08 				"/>
				<polygon class="st5" points="333.45,263.49 333.69,262.84 322.38,257.28 325.09,258.86 				"/>
				<polygon class="st5" points="341.55,267.46 337.18,253.32 337.18,253.32 340.92,267.8 352.28,274.63 352.29,274.63 				"/>
			</g>
		</g>
		<g>
			<polygon class="st41" points="304.29,260.02 294.96,262.09 298.25,251.5 289.19,238.38 300.56,244.68 304.29,234.51 
				308.03,248.99 319.4,255.82 310.33,258.47 313.63,272.86 			"/>
			<g>
				<polygon class="st42" points="310.33,258.47 313.63,272.86 313.63,272.86 313.63,272.86 315.72,271.5 312.59,257.81 				"/>
				<polygon class="st42" points="300.56,244.68 301.33,242.58 291.28,237.02 289.49,238.48 292.2,240.05 				"/>
				<polygon class="st42" points="310.12,247.63 306.38,233.14 304.29,234.51 304.29,234.51 308.03,248.99 319.39,255.82 
					319.4,255.82 321.49,254.46 				"/>
			</g>
			<g>
				<polygon class="st5" points="310.33,258.47 313.63,272.86 313.63,272.86 313.63,272.86 311.02,258.27 				"/>
				<polygon class="st5" points="300.56,244.68 300.8,244.03 289.49,238.48 292.2,240.05 				"/>
				<polygon class="st5" points="308.66,248.65 304.29,234.51 304.29,234.51 308.03,248.99 319.39,255.82 319.4,255.82 				"/>
			</g>
		</g>
		<g>
			<polygon class="st41" points="271.4,241.21 262.07,243.28 265.36,232.69 256.3,219.57 267.67,225.87 271.4,215.7 275.14,230.18 
				286.51,237.01 277.44,239.66 280.74,254.06 			"/>
			<g>
				<polygon class="st42" points="277.44,239.66 280.74,254.06 280.74,254.06 280.74,254.06 282.83,252.69 279.69,239.01 				"/>
				<polygon class="st42" points="267.67,225.87 268.44,223.78 258.39,218.21 256.6,219.67 259.31,221.24 				"/>
				<polygon class="st42" points="277.23,228.82 273.49,214.34 271.4,215.7 271.4,215.7 275.14,230.18 286.5,237.01 286.51,237.01 
					288.6,235.65 				"/>
			</g>
			<g>
				<polygon class="st5" points="277.44,239.66 280.74,254.06 280.74,254.06 280.74,254.06 278.13,239.46 				"/>
				<polygon class="st5" points="267.67,225.87 267.9,225.22 256.6,219.67 259.31,221.24 				"/>
				<polygon class="st5" points="275.77,229.84 271.4,215.7 271.4,215.7 275.14,230.18 286.5,237.01 286.51,237.01 				"/>
			</g>
		</g>
		<g>
			<polygon class="st41" points="238.51,222.4 229.17,224.47 232.47,213.88 223.41,200.76 234.78,207.06 238.51,196.89 
				242.24,211.37 253.61,218.2 244.55,220.86 247.84,235.25 			"/>
			<g>
				<polygon class="st42" points="244.55,220.86 247.84,235.25 247.84,235.25 247.84,235.25 249.93,233.89 246.8,220.2 				"/>
				<polygon class="st42" points="234.78,207.06 235.54,204.97 225.5,199.4 223.71,200.86 226.42,202.43 				"/>
				<polygon class="st42" points="244.33,210.01 240.6,195.53 238.51,196.89 238.51,196.89 242.24,211.37 253.61,218.2 
					253.61,218.2 255.7,216.84 				"/>
			</g>
			<g>
				<polygon class="st5" points="244.55,220.86 247.84,235.25 247.84,235.25 247.84,235.25 245.24,220.66 				"/>
				<polygon class="st5" points="234.78,207.06 235.01,206.42 223.71,200.86 226.42,202.43 				"/>
				<polygon class="st5" points="242.88,211.04 238.51,196.89 238.51,196.89 242.24,211.37 253.61,218.2 253.61,218.2 				"/>
			</g>
		</g>
		<g>
			<polygon class="st41" points="205.62,203.6 196.28,205.66 199.58,195.07 190.51,181.96 201.88,188.25 205.62,178.08 
				209.35,192.57 220.72,199.4 211.66,202.05 214.95,216.44 			"/>
			<g>
				<polygon class="st42" points="211.66,202.05 214.95,216.44 214.95,216.44 214.95,216.44 217.04,215.08 213.91,201.39 				"/>
				<polygon class="st42" points="201.88,188.25 202.65,186.16 192.6,180.59 190.81,182.05 193.53,183.62 				"/>
				<polygon class="st42" points="211.44,191.2 207.71,176.72 205.62,178.08 205.62,178.08 209.35,192.57 220.72,199.39 
					220.72,199.4 222.81,198.03 				"/>
			</g>
			<g>
				<polygon class="st5" points="211.66,202.05 214.95,216.44 214.95,216.44 214.95,216.44 212.34,201.85 				"/>
				<polygon class="st5" points="201.88,188.25 202.12,187.61 190.81,182.05 193.53,183.62 				"/>
				<polygon class="st5" points="209.99,192.23 205.62,178.08 205.62,178.08 209.35,192.57 220.72,199.39 220.72,199.4 				"/>
			</g>
		</g>
	</g>
</g>
</svg>
